  0
SECTION
  2
HEADER
  9
$ANGBASE
  50
0.0
  9
$ANGDIR
  70
1
  9
$MEASUREMENT
  70
1
  0
ENDSEC
  0
SECTION
  2
TABLES
  0
TABLE
  2
LTYPE
  70
4
  0
LTYPE
  5
40F
  2
CONTINUOUS
  70
0
  3
Solid line
  72
65
  73
0
  40
0.0
  0
LTYPE
  5
410
  2
DASHDOT
 70
0
  3
Dash Dot ____ _ ____ _
 72
65
 73
4
 40
2.0
 49
1.25
 49
-0.25
 49
0.25
 49
-0.25
  0
LTYPE
  5
411
  2
DASHED
 70
0
  3
Dashed __ __ __ __ __
 72
65
 73
2
 40
0.75
 49
0.5
 49
-0.25
  0
LTYPE
  5
43B
  2
DOTTED
 70
0
  3
Dotted .  .  .  .
 72
65
 73
2
 40
0.2
 49
0.0
 49
-0.2
  0
ENDTAB
  0
TABLE
  2
STYLE
  70
4
  0
STYLE
  2
KICAD
  70
0
  40
0
  41
1
  42
1
  50
0
  71
0
  3
isocp.shx
  0
STYLE
  2
KICADB
  70
0
  40
0
  41
1
  42
1
  50
0
  71
0
  3
isocp.shx
  0
STYLE
  2
KICADI
  70
0
  40
0
  41
1
  42
1
  50
15
  71
0
  3
isocp.shx
  0
STYLE
  2
KICADBI
  70
0
  40
0
  41
1
  42
1
  50
15
  71
0
  3
isocp.shx
  0
ENDTAB
  0
TABLE
  2
LAYER
  70
1
  0
LAYER
  2
BLACK
  70
0
  62
7
  6
CONTINUOUS
  0
ENDTAB
  0
ENDSEC
  0
SECTION
  2
ENTITIES
0
LINE
8
BLACK
6
CONTINUOUS
10
201
20
-93.25
11
201
21
-102
0
LINE
8
BLACK
6
CONTINUOUS
10
124
20
-93.25
11
124
21
-71
0
LINE
8
BLACK
6
CONTINUOUS
10
124
20
-71
11
201
21
-71
0
LINE
8
BLACK
6
CONTINUOUS
10
201
20
-102
11
190.75
21
-102
0
LINE
8
BLACK
6
CONTINUOUS
10
124
20
-102
11
133.5
21
-102
0
LINE
8
BLACK
6
CONTINUOUS
10
201
20
-71
11
201
21
-93.25
0
LINE
8
BLACK
6
CONTINUOUS
10
133.5
20
-102
11
133.5
21
-124
0
LINE
8
BLACK
6
CONTINUOUS
10
190.75
20
-124
11
133.5
21
-124
0
LINE
8
BLACK
6
CONTINUOUS
10
190.75
20
-102
11
190.75
21
-124
0
LINE
8
BLACK
6
CONTINUOUS
10
124
20
-102
11
124
21
-93.25
0
LINE
8
BLACK
6
CONTINUOUS
10
143.535
20
-96.1808
11
143.935
21
-96.5808
0
LINE
8
BLACK
6
CONTINUOUS
10
143.935
20
-96.1808
11
143.535
21
-96.5808
0
LINE
8
BLACK
6
CONTINUOUS
10
157.014
20
-98.6986
11
157.414
21
-99.0986
0
LINE
8
BLACK
6
CONTINUOUS
10
157.414
20
-98.6986
11
157.014
21
-99.0986
0
LINE
8
BLACK
6
CONTINUOUS
10
167.479
20
-96.6161
11
167.879
21
-97.0161
0
LINE
8
BLACK
6
CONTINUOUS
10
167.879
20
-96.6161
11
167.479
21
-97.0161
0
LINE
8
BLACK
6
CONTINUOUS
10
181.649
20
-89.1901
11
182.049
21
-89.5901
0
LINE
8
BLACK
6
CONTINUOUS
10
182.049
20
-89.1901
11
181.649
21
-89.5901
0
LINE
8
BLACK
6
CONTINUOUS
10
182.057
20
-99.6176
11
182.457
21
-100.018
0
LINE
8
BLACK
6
CONTINUOUS
10
182.457
20
-99.6176
11
182.057
21
-100.018
0
CIRCLE
8
BLACK
10
125.35
20
-75.8029
40
0.25
0
CIRCLE
8
BLACK
10
125.35
20
-97.85
40
0.25
0
CIRCLE
8
BLACK
10
126.053
20
-74.1058
40
0.25
0
CIRCLE
8
BLACK
10
126.053
20
-77.5
40
0.25
0
CIRCLE
8
BLACK
10
126.053
20
-96.1529
40
0.25
0
CIRCLE
8
BLACK
10
126.053
20
-99.5471
40
0.25
0
CIRCLE
8
BLACK
10
127.75
20
-73.4029
40
0.25
0
CIRCLE
8
BLACK
10
127.75
20
-78.2029
40
0.25
0
CIRCLE
8
BLACK
10
127.75
20
-95.45
40
0.25
0
CIRCLE
8
BLACK
10
127.75
20
-100.25
40
0.25
0
CIRCLE
8
BLACK
10
129.447
20
-74.1058
40
0.25
0
CIRCLE
8
BLACK
10
129.447
20
-77.5
40
0.25
0
CIRCLE
8
BLACK
10
129.447
20
-96.1529
40
0.25
0
CIRCLE
8
BLACK
10
129.447
20
-99.5471
40
0.25
0
CIRCLE
8
BLACK
10
130.15
20
-75.8029
40
0.25
0
CIRCLE
8
BLACK
10
130.15
20
-97.85
40
0.25
0
CIRCLE
8
BLACK
10
194.85
20
-75.85
40
0.25
0
CIRCLE
8
BLACK
10
194.85
20
-97.85
40
0.25
0
CIRCLE
8
BLACK
10
195.553
20
-74.1529
40
0.25
0
CIRCLE
8
BLACK
10
195.553
20
-77.5471
40
0.25
0
CIRCLE
8
BLACK
10
195.553
20
-96.1529
40
0.25
0
CIRCLE
8
BLACK
10
195.553
20
-99.5471
40
0.25
0
CIRCLE
8
BLACK
10
197.25
20
-73.45
40
0.25
0
CIRCLE
8
BLACK
10
197.25
20
-78.25
40
0.25
0
CIRCLE
8
BLACK
10
197.25
20
-95.45
40
0.25
0
CIRCLE
8
BLACK
10
197.25
20
-100.25
40
0.25
0
CIRCLE
8
BLACK
10
198.947
20
-74.1529
40
0.25
0
CIRCLE
8
BLACK
10
198.947
20
-77.5471
40
0.25
0
CIRCLE
8
BLACK
10
198.947
20
-96.1529
40
0.25
0
CIRCLE
8
BLACK
10
198.947
20
-99.5471
40
0.25
0
CIRCLE
8
BLACK
10
199.65
20
-75.85
40
0.25
0
CIRCLE
8
BLACK
10
199.65
20
-97.85
40
0.25
0
LINE
8
BLACK
6
CONTINUOUS
10
128.5
20
-86.2
11
128.5
21
-86.8
0
LINE
8
BLACK
6
CONTINUOUS
10
128.2
20
-86.5
11
128.8
21
-86.5
0
LINE
8
BLACK
6
CONTINUOUS
10
130.5
20
-86.2
11
130.5
21
-86.8
0
LINE
8
BLACK
6
CONTINUOUS
10
130.2
20
-86.5
11
130.8
21
-86.5
0
LINE
8
BLACK
6
CONTINUOUS
10
128.533
20
-92.0328
11
128.533
21
-91.4672
0
LINE
8
BLACK
6
CONTINUOUS
10
128.533
20
-91.4672
11
127.967
21
-91.4672
0
LINE
8
BLACK
6
CONTINUOUS
10
127.967
20
-91.4672
11
127.967
21
-92.0328
0
LINE
8
BLACK
6
CONTINUOUS
10
127.967
20
-92.0328
11
128.533
21
-92.0328
0
LINE
8
BLACK
6
CONTINUOUS
10
131.033
20
-92.0328
11
131.033
21
-91.4672
0
LINE
8
BLACK
6
CONTINUOUS
10
131.033
20
-91.4672
11
130.467
21
-91.4672
0
LINE
8
BLACK
6
CONTINUOUS
10
130.467
20
-91.4672
11
130.467
21
-92.0328
0
LINE
8
BLACK
6
CONTINUOUS
10
130.467
20
-92.0328
11
131.033
21
-92.0328
0
LINE
8
BLACK
6
CONTINUOUS
10
135.5
20
-104
11
136
21
-103.5
0
LINE
8
BLACK
6
CONTINUOUS
10
136
20
-103.5
11
135.5
21
-103
0
LINE
8
BLACK
6
CONTINUOUS
10
135.5
20
-103
11
135
21
-103.5
0
LINE
8
BLACK
6
CONTINUOUS
10
135
20
-103.5
11
135.5
21
-104
0
LINE
8
BLACK
6
CONTINUOUS
10
135.5
20
-109.08
11
136
21
-108.58
0
LINE
8
BLACK
6
CONTINUOUS
10
136
20
-108.58
11
135.5
21
-108.08
0
LINE
8
BLACK
6
CONTINUOUS
10
135.5
20
-108.08
11
135
21
-108.58
0
LINE
8
BLACK
6
CONTINUOUS
10
135
20
-108.58
11
135.5
21
-109.08
0
LINE
8
BLACK
6
CONTINUOUS
10
135.72
20
-86.92
11
136.22
21
-86.42
0
LINE
8
BLACK
6
CONTINUOUS
10
136.22
20
-86.42
11
135.72
21
-85.92
0
LINE
8
BLACK
6
CONTINUOUS
10
135.72
20
-85.92
11
135.22
21
-86.42
0
LINE
8
BLACK
6
CONTINUOUS
10
135.22
20
-86.42
11
135.72
21
-86.92
0
LINE
8
BLACK
6
CONTINUOUS
10
135.72
20
-92
11
136.22
21
-91.5
0
LINE
8
BLACK
6
CONTINUOUS
10
136.22
20
-91.5
11
135.72
21
-91
0
LINE
8
BLACK
6
CONTINUOUS
10
135.72
20
-91
11
135.22
21
-91.5
0
LINE
8
BLACK
6
CONTINUOUS
10
135.22
20
-91.5
11
135.72
21
-92
0
LINE
8
BLACK
6
CONTINUOUS
10
138.04
20
-104
11
138.54
21
-103.5
0
LINE
8
BLACK
6
CONTINUOUS
10
138.54
20
-103.5
11
138.04
21
-103
0
LINE
8
BLACK
6
CONTINUOUS
10
138.04
20
-103
11
137.54
21
-103.5
0
LINE
8
BLACK
6
CONTINUOUS
10
137.54
20
-103.5
11
138.04
21
-104
0
LINE
8
BLACK
6
CONTINUOUS
10
138.04
20
-109.08
11
138.54
21
-108.58
0
LINE
8
BLACK
6
CONTINUOUS
10
138.54
20
-108.58
11
138.04
21
-108.08
0
LINE
8
BLACK
6
CONTINUOUS
10
138.04
20
-108.08
11
137.54
21
-108.58
0
LINE
8
BLACK
6
CONTINUOUS
10
137.54
20
-108.58
11
138.04
21
-109.08
0
LINE
8
BLACK
6
CONTINUOUS
10
138.26
20
-86.92
11
138.76
21
-86.42
0
LINE
8
BLACK
6
CONTINUOUS
10
138.76
20
-86.42
11
138.26
21
-85.92
0
LINE
8
BLACK
6
CONTINUOUS
10
138.26
20
-85.92
11
137.76
21
-86.42
0
LINE
8
BLACK
6
CONTINUOUS
10
137.76
20
-86.42
11
138.26
21
-86.92
0
LINE
8
BLACK
6
CONTINUOUS
10
138.26
20
-92
11
138.76
21
-91.5
0
LINE
8
BLACK
6
CONTINUOUS
10
138.76
20
-91.5
11
138.26
21
-91
0
LINE
8
BLACK
6
CONTINUOUS
10
138.26
20
-91
11
137.76
21
-91.5
0
LINE
8
BLACK
6
CONTINUOUS
10
137.76
20
-91.5
11
138.26
21
-92
0
LINE
8
BLACK
6
CONTINUOUS
10
140.58
20
-104
11
141.08
21
-103.5
0
LINE
8
BLACK
6
CONTINUOUS
10
141.08
20
-103.5
11
140.58
21
-103
0
LINE
8
BLACK
6
CONTINUOUS
10
140.58
20
-103
11
140.08
21
-103.5
0
LINE
8
BLACK
6
CONTINUOUS
10
140.08
20
-103.5
11
140.58
21
-104
0
LINE
8
BLACK
6
CONTINUOUS
10
140.58
20
-109.08
11
141.08
21
-108.58
0
LINE
8
BLACK
6
CONTINUOUS
10
141.08
20
-108.58
11
140.58
21
-108.08
0
LINE
8
BLACK
6
CONTINUOUS
10
140.58
20
-108.08
11
140.08
21
-108.58
0
LINE
8
BLACK
6
CONTINUOUS
10
140.08
20
-108.58
11
140.58
21
-109.08
0
LINE
8
BLACK
6
CONTINUOUS
10
140.8
20
-86.92
11
141.3
21
-86.42
0
LINE
8
BLACK
6
CONTINUOUS
10
141.3
20
-86.42
11
140.8
21
-85.92
0
LINE
8
BLACK
6
CONTINUOUS
10
140.8
20
-85.92
11
140.3
21
-86.42
0
LINE
8
BLACK
6
CONTINUOUS
10
140.3
20
-86.42
11
140.8
21
-86.92
0
LINE
8
BLACK
6
CONTINUOUS
10
140.8
20
-92
11
141.3
21
-91.5
0
LINE
8
BLACK
6
CONTINUOUS
10
141.3
20
-91.5
11
140.8
21
-91
0
LINE
8
BLACK
6
CONTINUOUS
10
140.8
20
-91
11
140.3
21
-91.5
0
LINE
8
BLACK
6
CONTINUOUS
10
140.3
20
-91.5
11
140.8
21
-92
0
LINE
8
BLACK
6
CONTINUOUS
10
143.12
20
-104
11
143.62
21
-103.5
0
LINE
8
BLACK
6
CONTINUOUS
10
143.62
20
-103.5
11
143.12
21
-103
0
LINE
8
BLACK
6
CONTINUOUS
10
143.12
20
-103
11
142.62
21
-103.5
0
LINE
8
BLACK
6
CONTINUOUS
10
142.62
20
-103.5
11
143.12
21
-104
0
LINE
8
BLACK
6
CONTINUOUS
10
143.12
20
-109.08
11
143.62
21
-108.58
0
LINE
8
BLACK
6
CONTINUOUS
10
143.62
20
-108.58
11
143.12
21
-108.08
0
LINE
8
BLACK
6
CONTINUOUS
10
143.12
20
-108.08
11
142.62
21
-108.58
0
LINE
8
BLACK
6
CONTINUOUS
10
142.62
20
-108.58
11
143.12
21
-109.08
0
LINE
8
BLACK
6
CONTINUOUS
10
143.34
20
-86.92
11
143.84
21
-86.42
0
LINE
8
BLACK
6
CONTINUOUS
10
143.84
20
-86.42
11
143.34
21
-85.92
0
LINE
8
BLACK
6
CONTINUOUS
10
143.34
20
-85.92
11
142.84
21
-86.42
0
LINE
8
BLACK
6
CONTINUOUS
10
142.84
20
-86.42
11
143.34
21
-86.92
0
LINE
8
BLACK
6
CONTINUOUS
10
143.34
20
-92
11
143.84
21
-91.5
0
LINE
8
BLACK
6
CONTINUOUS
10
143.84
20
-91.5
11
143.34
21
-91
0
LINE
8
BLACK
6
CONTINUOUS
10
143.34
20
-91
11
142.84
21
-91.5
0
LINE
8
BLACK
6
CONTINUOUS
10
142.84
20
-91.5
11
143.34
21
-92
0
LINE
8
BLACK
6
CONTINUOUS
10
145.66
20
-104
11
146.16
21
-103.5
0
LINE
8
BLACK
6
CONTINUOUS
10
146.16
20
-103.5
11
145.66
21
-103
0
LINE
8
BLACK
6
CONTINUOUS
10
145.66
20
-103
11
145.16
21
-103.5
0
LINE
8
BLACK
6
CONTINUOUS
10
145.16
20
-103.5
11
145.66
21
-104
0
LINE
8
BLACK
6
CONTINUOUS
10
145.66
20
-109.08
11
146.16
21
-108.58
0
LINE
8
BLACK
6
CONTINUOUS
10
146.16
20
-108.58
11
145.66
21
-108.08
0
LINE
8
BLACK
6
CONTINUOUS
10
145.66
20
-108.08
11
145.16
21
-108.58
0
LINE
8
BLACK
6
CONTINUOUS
10
145.16
20
-108.58
11
145.66
21
-109.08
0
LINE
8
BLACK
6
CONTINUOUS
10
145.88
20
-86.92
11
146.38
21
-86.42
0
LINE
8
BLACK
6
CONTINUOUS
10
146.38
20
-86.42
11
145.88
21
-85.92
0
LINE
8
BLACK
6
CONTINUOUS
10
145.88
20
-85.92
11
145.38
21
-86.42
0
LINE
8
BLACK
6
CONTINUOUS
10
145.38
20
-86.42
11
145.88
21
-86.92
0
LINE
8
BLACK
6
CONTINUOUS
10
145.88
20
-92
11
146.38
21
-91.5
0
LINE
8
BLACK
6
CONTINUOUS
10
146.38
20
-91.5
11
145.88
21
-91
0
LINE
8
BLACK
6
CONTINUOUS
10
145.88
20
-91
11
145.38
21
-91.5
0
LINE
8
BLACK
6
CONTINUOUS
10
145.38
20
-91.5
11
145.88
21
-92
0
LINE
8
BLACK
6
CONTINUOUS
10
148.2
20
-104
11
148.7
21
-103.5
0
LINE
8
BLACK
6
CONTINUOUS
10
148.7
20
-103.5
11
148.2
21
-103
0
LINE
8
BLACK
6
CONTINUOUS
10
148.2
20
-103
11
147.7
21
-103.5
0
LINE
8
BLACK
6
CONTINUOUS
10
147.7
20
-103.5
11
148.2
21
-104
0
LINE
8
BLACK
6
CONTINUOUS
10
148.2
20
-109.08
11
148.7
21
-108.58
0
LINE
8
BLACK
6
CONTINUOUS
10
148.7
20
-108.58
11
148.2
21
-108.08
0
LINE
8
BLACK
6
CONTINUOUS
10
148.2
20
-108.08
11
147.7
21
-108.58
0
LINE
8
BLACK
6
CONTINUOUS
10
147.7
20
-108.58
11
148.2
21
-109.08
0
LINE
8
BLACK
6
CONTINUOUS
10
148.42
20
-86.92
11
148.92
21
-86.42
0
LINE
8
BLACK
6
CONTINUOUS
10
148.92
20
-86.42
11
148.42
21
-85.92
0
LINE
8
BLACK
6
CONTINUOUS
10
148.42
20
-85.92
11
147.92
21
-86.42
0
LINE
8
BLACK
6
CONTINUOUS
10
147.92
20
-86.42
11
148.42
21
-86.92
0
LINE
8
BLACK
6
CONTINUOUS
10
148.42
20
-92
11
148.92
21
-91.5
0
LINE
8
BLACK
6
CONTINUOUS
10
148.92
20
-91.5
11
148.42
21
-91
0
LINE
8
BLACK
6
CONTINUOUS
10
148.42
20
-91
11
147.92
21
-91.5
0
LINE
8
BLACK
6
CONTINUOUS
10
147.92
20
-91.5
11
148.42
21
-92
0
LINE
8
BLACK
6
CONTINUOUS
10
150.74
20
-104
11
151.24
21
-103.5
0
LINE
8
BLACK
6
CONTINUOUS
10
151.24
20
-103.5
11
150.74
21
-103
0
LINE
8
BLACK
6
CONTINUOUS
10
150.74
20
-103
11
150.24
21
-103.5
0
LINE
8
BLACK
6
CONTINUOUS
10
150.24
20
-103.5
11
150.74
21
-104
0
LINE
8
BLACK
6
CONTINUOUS
10
150.74
20
-109.08
11
151.24
21
-108.58
0
LINE
8
BLACK
6
CONTINUOUS
10
151.24
20
-108.58
11
150.74
21
-108.08
0
LINE
8
BLACK
6
CONTINUOUS
10
150.74
20
-108.08
11
150.24
21
-108.58
0
LINE
8
BLACK
6
CONTINUOUS
10
150.24
20
-108.58
11
150.74
21
-109.08
0
LINE
8
BLACK
6
CONTINUOUS
10
150.96
20
-86.92
11
151.46
21
-86.42
0
LINE
8
BLACK
6
CONTINUOUS
10
151.46
20
-86.42
11
150.96
21
-85.92
0
LINE
8
BLACK
6
CONTINUOUS
10
150.96
20
-85.92
11
150.46
21
-86.42
0
LINE
8
BLACK
6
CONTINUOUS
10
150.46
20
-86.42
11
150.96
21
-86.92
0
LINE
8
BLACK
6
CONTINUOUS
10
150.96
20
-92
11
151.46
21
-91.5
0
LINE
8
BLACK
6
CONTINUOUS
10
151.46
20
-91.5
11
150.96
21
-91
0
LINE
8
BLACK
6
CONTINUOUS
10
150.96
20
-91
11
150.46
21
-91.5
0
LINE
8
BLACK
6
CONTINUOUS
10
150.46
20
-91.5
11
150.96
21
-92
0
LINE
8
BLACK
6
CONTINUOUS
10
153.28
20
-104
11
153.78
21
-103.5
0
LINE
8
BLACK
6
CONTINUOUS
10
153.78
20
-103.5
11
153.28
21
-103
0
LINE
8
BLACK
6
CONTINUOUS
10
153.28
20
-103
11
152.78
21
-103.5
0
LINE
8
BLACK
6
CONTINUOUS
10
152.78
20
-103.5
11
153.28
21
-104
0
LINE
8
BLACK
6
CONTINUOUS
10
153.28
20
-109.08
11
153.78
21
-108.58
0
LINE
8
BLACK
6
CONTINUOUS
10
153.78
20
-108.58
11
153.28
21
-108.08
0
LINE
8
BLACK
6
CONTINUOUS
10
153.28
20
-108.08
11
152.78
21
-108.58
0
LINE
8
BLACK
6
CONTINUOUS
10
152.78
20
-108.58
11
153.28
21
-109.08
0
LINE
8
BLACK
6
CONTINUOUS
10
153.5
20
-86.92
11
154
21
-86.42
0
LINE
8
BLACK
6
CONTINUOUS
10
154
20
-86.42
11
153.5
21
-85.92
0
LINE
8
BLACK
6
CONTINUOUS
10
153.5
20
-85.92
11
153
21
-86.42
0
LINE
8
BLACK
6
CONTINUOUS
10
153
20
-86.42
11
153.5
21
-86.92
0
LINE
8
BLACK
6
CONTINUOUS
10
153.5
20
-92
11
154
21
-91.5
0
LINE
8
BLACK
6
CONTINUOUS
10
154
20
-91.5
11
153.5
21
-91
0
LINE
8
BLACK
6
CONTINUOUS
10
153.5
20
-91
11
153
21
-91.5
0
LINE
8
BLACK
6
CONTINUOUS
10
153
20
-91.5
11
153.5
21
-92
0
LINE
8
BLACK
6
CONTINUOUS
10
155.82
20
-104
11
156.32
21
-103.5
0
LINE
8
BLACK
6
CONTINUOUS
10
156.32
20
-103.5
11
155.82
21
-103
0
LINE
8
BLACK
6
CONTINUOUS
10
155.82
20
-103
11
155.32
21
-103.5
0
LINE
8
BLACK
6
CONTINUOUS
10
155.32
20
-103.5
11
155.82
21
-104
0
LINE
8
BLACK
6
CONTINUOUS
10
155.82
20
-109.08
11
156.32
21
-108.58
0
LINE
8
BLACK
6
CONTINUOUS
10
156.32
20
-108.58
11
155.82
21
-108.08
0
LINE
8
BLACK
6
CONTINUOUS
10
155.82
20
-108.08
11
155.32
21
-108.58
0
LINE
8
BLACK
6
CONTINUOUS
10
155.32
20
-108.58
11
155.82
21
-109.08
0
LINE
8
BLACK
6
CONTINUOUS
10
156.04
20
-86.92
11
156.54
21
-86.42
0
LINE
8
BLACK
6
CONTINUOUS
10
156.54
20
-86.42
11
156.04
21
-85.92
0
LINE
8
BLACK
6
CONTINUOUS
10
156.04
20
-85.92
11
155.54
21
-86.42
0
LINE
8
BLACK
6
CONTINUOUS
10
155.54
20
-86.42
11
156.04
21
-86.92
0
LINE
8
BLACK
6
CONTINUOUS
10
156.04
20
-92
11
156.54
21
-91.5
0
LINE
8
BLACK
6
CONTINUOUS
10
156.54
20
-91.5
11
156.04
21
-91
0
LINE
8
BLACK
6
CONTINUOUS
10
156.04
20
-91
11
155.54
21
-91.5
0
LINE
8
BLACK
6
CONTINUOUS
10
155.54
20
-91.5
11
156.04
21
-92
0
LINE
8
BLACK
6
CONTINUOUS
10
158.36
20
-104
11
158.86
21
-103.5
0
LINE
8
BLACK
6
CONTINUOUS
10
158.86
20
-103.5
11
158.36
21
-103
0
LINE
8
BLACK
6
CONTINUOUS
10
158.36
20
-103
11
157.86
21
-103.5
0
LINE
8
BLACK
6
CONTINUOUS
10
157.86
20
-103.5
11
158.36
21
-104
0
LINE
8
BLACK
6
CONTINUOUS
10
158.36
20
-109.08
11
158.86
21
-108.58
0
LINE
8
BLACK
6
CONTINUOUS
10
158.86
20
-108.58
11
158.36
21
-108.08
0
LINE
8
BLACK
6
CONTINUOUS
10
158.36
20
-108.08
11
157.86
21
-108.58
0
LINE
8
BLACK
6
CONTINUOUS
10
157.86
20
-108.58
11
158.36
21
-109.08
0
LINE
8
BLACK
6
CONTINUOUS
10
158.58
20
-86.92
11
159.08
21
-86.42
0
LINE
8
BLACK
6
CONTINUOUS
10
159.08
20
-86.42
11
158.58
21
-85.92
0
LINE
8
BLACK
6
CONTINUOUS
10
158.58
20
-85.92
11
158.08
21
-86.42
0
LINE
8
BLACK
6
CONTINUOUS
10
158.08
20
-86.42
11
158.58
21
-86.92
0
LINE
8
BLACK
6
CONTINUOUS
10
158.58
20
-92
11
159.08
21
-91.5
0
LINE
8
BLACK
6
CONTINUOUS
10
159.08
20
-91.5
11
158.58
21
-91
0
LINE
8
BLACK
6
CONTINUOUS
10
158.58
20
-91
11
158.08
21
-91.5
0
LINE
8
BLACK
6
CONTINUOUS
10
158.08
20
-91.5
11
158.58
21
-92
0
LINE
8
BLACK
6
CONTINUOUS
10
160.9
20
-104
11
161.4
21
-103.5
0
LINE
8
BLACK
6
CONTINUOUS
10
161.4
20
-103.5
11
160.9
21
-103
0
LINE
8
BLACK
6
CONTINUOUS
10
160.9
20
-103
11
160.4
21
-103.5
0
LINE
8
BLACK
6
CONTINUOUS
10
160.4
20
-103.5
11
160.9
21
-104
0
LINE
8
BLACK
6
CONTINUOUS
10
160.9
20
-109.08
11
161.4
21
-108.58
0
LINE
8
BLACK
6
CONTINUOUS
10
161.4
20
-108.58
11
160.9
21
-108.08
0
LINE
8
BLACK
6
CONTINUOUS
10
160.9
20
-108.08
11
160.4
21
-108.58
0
LINE
8
BLACK
6
CONTINUOUS
10
160.4
20
-108.58
11
160.9
21
-109.08
0
LINE
8
BLACK
6
CONTINUOUS
10
161.12
20
-86.92
11
161.62
21
-86.42
0
LINE
8
BLACK
6
CONTINUOUS
10
161.62
20
-86.42
11
161.12
21
-85.92
0
LINE
8
BLACK
6
CONTINUOUS
10
161.12
20
-85.92
11
160.62
21
-86.42
0
LINE
8
BLACK
6
CONTINUOUS
10
160.62
20
-86.42
11
161.12
21
-86.92
0
LINE
8
BLACK
6
CONTINUOUS
10
161.12
20
-92
11
161.62
21
-91.5
0
LINE
8
BLACK
6
CONTINUOUS
10
161.62
20
-91.5
11
161.12
21
-91
0
LINE
8
BLACK
6
CONTINUOUS
10
161.12
20
-91
11
160.62
21
-91.5
0
LINE
8
BLACK
6
CONTINUOUS
10
160.62
20
-91.5
11
161.12
21
-92
0
LINE
8
BLACK
6
CONTINUOUS
10
163.44
20
-104
11
163.94
21
-103.5
0
LINE
8
BLACK
6
CONTINUOUS
10
163.94
20
-103.5
11
163.44
21
-103
0
LINE
8
BLACK
6
CONTINUOUS
10
163.44
20
-103
11
162.94
21
-103.5
0
LINE
8
BLACK
6
CONTINUOUS
10
162.94
20
-103.5
11
163.44
21
-104
0
LINE
8
BLACK
6
CONTINUOUS
10
163.44
20
-109.08
11
163.94
21
-108.58
0
LINE
8
BLACK
6
CONTINUOUS
10
163.94
20
-108.58
11
163.44
21
-108.08
0
LINE
8
BLACK
6
CONTINUOUS
10
163.44
20
-108.08
11
162.94
21
-108.58
0
LINE
8
BLACK
6
CONTINUOUS
10
162.94
20
-108.58
11
163.44
21
-109.08
0
LINE
8
BLACK
6
CONTINUOUS
10
163.66
20
-86.92
11
164.16
21
-86.42
0
LINE
8
BLACK
6
CONTINUOUS
10
164.16
20
-86.42
11
163.66
21
-85.92
0
LINE
8
BLACK
6
CONTINUOUS
10
163.66
20
-85.92
11
163.16
21
-86.42
0
LINE
8
BLACK
6
CONTINUOUS
10
163.16
20
-86.42
11
163.66
21
-86.92
0
LINE
8
BLACK
6
CONTINUOUS
10
163.66
20
-92
11
164.16
21
-91.5
0
LINE
8
BLACK
6
CONTINUOUS
10
164.16
20
-91.5
11
163.66
21
-91
0
LINE
8
BLACK
6
CONTINUOUS
10
163.66
20
-91
11
163.16
21
-91.5
0
LINE
8
BLACK
6
CONTINUOUS
10
163.16
20
-91.5
11
163.66
21
-92
0
LINE
8
BLACK
6
CONTINUOUS
10
165.98
20
-104
11
166.48
21
-103.5
0
LINE
8
BLACK
6
CONTINUOUS
10
166.48
20
-103.5
11
165.98
21
-103
0
LINE
8
BLACK
6
CONTINUOUS
10
165.98
20
-103
11
165.48
21
-103.5
0
LINE
8
BLACK
6
CONTINUOUS
10
165.48
20
-103.5
11
165.98
21
-104
0
LINE
8
BLACK
6
CONTINUOUS
10
165.98
20
-109.08
11
166.48
21
-108.58
0
LINE
8
BLACK
6
CONTINUOUS
10
166.48
20
-108.58
11
165.98
21
-108.08
0
LINE
8
BLACK
6
CONTINUOUS
10
165.98
20
-108.08
11
165.48
21
-108.58
0
LINE
8
BLACK
6
CONTINUOUS
10
165.48
20
-108.58
11
165.98
21
-109.08
0
LINE
8
BLACK
6
CONTINUOUS
10
166.2
20
-86.92
11
166.7
21
-86.42
0
LINE
8
BLACK
6
CONTINUOUS
10
166.7
20
-86.42
11
166.2
21
-85.92
0
LINE
8
BLACK
6
CONTINUOUS
10
166.2
20
-85.92
11
165.7
21
-86.42
0
LINE
8
BLACK
6
CONTINUOUS
10
165.7
20
-86.42
11
166.2
21
-86.92
0
LINE
8
BLACK
6
CONTINUOUS
10
166.2
20
-92
11
166.7
21
-91.5
0
LINE
8
BLACK
6
CONTINUOUS
10
166.7
20
-91.5
11
166.2
21
-91
0
LINE
8
BLACK
6
CONTINUOUS
10
166.2
20
-91
11
165.7
21
-91.5
0
LINE
8
BLACK
6
CONTINUOUS
10
165.7
20
-91.5
11
166.2
21
-92
0
LINE
8
BLACK
6
CONTINUOUS
10
168.52
20
-104
11
169.02
21
-103.5
0
LINE
8
BLACK
6
CONTINUOUS
10
169.02
20
-103.5
11
168.52
21
-103
0
LINE
8
BLACK
6
CONTINUOUS
10
168.52
20
-103
11
168.02
21
-103.5
0
LINE
8
BLACK
6
CONTINUOUS
10
168.02
20
-103.5
11
168.52
21
-104
0
LINE
8
BLACK
6
CONTINUOUS
10
168.52
20
-109.08
11
169.02
21
-108.58
0
LINE
8
BLACK
6
CONTINUOUS
10
169.02
20
-108.58
11
168.52
21
-108.08
0
LINE
8
BLACK
6
CONTINUOUS
10
168.52
20
-108.08
11
168.02
21
-108.58
0
LINE
8
BLACK
6
CONTINUOUS
10
168.02
20
-108.58
11
168.52
21
-109.08
0
LINE
8
BLACK
6
CONTINUOUS
10
168.74
20
-86.92
11
169.24
21
-86.42
0
LINE
8
BLACK
6
CONTINUOUS
10
169.24
20
-86.42
11
168.74
21
-85.92
0
LINE
8
BLACK
6
CONTINUOUS
10
168.74
20
-85.92
11
168.24
21
-86.42
0
LINE
8
BLACK
6
CONTINUOUS
10
168.24
20
-86.42
11
168.74
21
-86.92
0
LINE
8
BLACK
6
CONTINUOUS
10
168.74
20
-92
11
169.24
21
-91.5
0
LINE
8
BLACK
6
CONTINUOUS
10
169.24
20
-91.5
11
168.74
21
-91
0
LINE
8
BLACK
6
CONTINUOUS
10
168.74
20
-91
11
168.24
21
-91.5
0
LINE
8
BLACK
6
CONTINUOUS
10
168.24
20
-91.5
11
168.74
21
-92
0
LINE
8
BLACK
6
CONTINUOUS
10
171.06
20
-104
11
171.56
21
-103.5
0
LINE
8
BLACK
6
CONTINUOUS
10
171.56
20
-103.5
11
171.06
21
-103
0
LINE
8
BLACK
6
CONTINUOUS
10
171.06
20
-103
11
170.56
21
-103.5
0
LINE
8
BLACK
6
CONTINUOUS
10
170.56
20
-103.5
11
171.06
21
-104
0
LINE
8
BLACK
6
CONTINUOUS
10
171.06
20
-109.08
11
171.56
21
-108.58
0
LINE
8
BLACK
6
CONTINUOUS
10
171.56
20
-108.58
11
171.06
21
-108.08
0
LINE
8
BLACK
6
CONTINUOUS
10
171.06
20
-108.08
11
170.56
21
-108.58
0
LINE
8
BLACK
6
CONTINUOUS
10
170.56
20
-108.58
11
171.06
21
-109.08
0
LINE
8
BLACK
6
CONTINUOUS
10
171.28
20
-86.92
11
171.78
21
-86.42
0
LINE
8
BLACK
6
CONTINUOUS
10
171.78
20
-86.42
11
171.28
21
-85.92
0
LINE
8
BLACK
6
CONTINUOUS
10
171.28
20
-85.92
11
170.78
21
-86.42
0
LINE
8
BLACK
6
CONTINUOUS
10
170.78
20
-86.42
11
171.28
21
-86.92
0
LINE
8
BLACK
6
CONTINUOUS
10
171.28
20
-92
11
171.78
21
-91.5
0
LINE
8
BLACK
6
CONTINUOUS
10
171.78
20
-91.5
11
171.28
21
-91
0
LINE
8
BLACK
6
CONTINUOUS
10
171.28
20
-91
11
170.78
21
-91.5
0
LINE
8
BLACK
6
CONTINUOUS
10
170.78
20
-91.5
11
171.28
21
-92
0
LINE
8
BLACK
6
CONTINUOUS
10
173.6
20
-104
11
174.1
21
-103.5
0
LINE
8
BLACK
6
CONTINUOUS
10
174.1
20
-103.5
11
173.6
21
-103
0
LINE
8
BLACK
6
CONTINUOUS
10
173.6
20
-103
11
173.1
21
-103.5
0
LINE
8
BLACK
6
CONTINUOUS
10
173.1
20
-103.5
11
173.6
21
-104
0
LINE
8
BLACK
6
CONTINUOUS
10
173.6
20
-109.08
11
174.1
21
-108.58
0
LINE
8
BLACK
6
CONTINUOUS
10
174.1
20
-108.58
11
173.6
21
-108.08
0
LINE
8
BLACK
6
CONTINUOUS
10
173.6
20
-108.08
11
173.1
21
-108.58
0
LINE
8
BLACK
6
CONTINUOUS
10
173.1
20
-108.58
11
173.6
21
-109.08
0
LINE
8
BLACK
6
CONTINUOUS
10
173.82
20
-86.92
11
174.32
21
-86.42
0
LINE
8
BLACK
6
CONTINUOUS
10
174.32
20
-86.42
11
173.82
21
-85.92
0
LINE
8
BLACK
6
CONTINUOUS
10
173.82
20
-85.92
11
173.32
21
-86.42
0
LINE
8
BLACK
6
CONTINUOUS
10
173.32
20
-86.42
11
173.82
21
-86.92
0
LINE
8
BLACK
6
CONTINUOUS
10
173.82
20
-92
11
174.32
21
-91.5
0
LINE
8
BLACK
6
CONTINUOUS
10
174.32
20
-91.5
11
173.82
21
-91
0
LINE
8
BLACK
6
CONTINUOUS
10
173.82
20
-91
11
173.32
21
-91.5
0
LINE
8
BLACK
6
CONTINUOUS
10
173.32
20
-91.5
11
173.82
21
-92
0
LINE
8
BLACK
6
CONTINUOUS
10
176.14
20
-104
11
176.64
21
-103.5
0
LINE
8
BLACK
6
CONTINUOUS
10
176.64
20
-103.5
11
176.14
21
-103
0
LINE
8
BLACK
6
CONTINUOUS
10
176.14
20
-103
11
175.64
21
-103.5
0
LINE
8
BLACK
6
CONTINUOUS
10
175.64
20
-103.5
11
176.14
21
-104
0
LINE
8
BLACK
6
CONTINUOUS
10
176.14
20
-109.08
11
176.64
21
-108.58
0
LINE
8
BLACK
6
CONTINUOUS
10
176.64
20
-108.58
11
176.14
21
-108.08
0
LINE
8
BLACK
6
CONTINUOUS
10
176.14
20
-108.08
11
175.64
21
-108.58
0
LINE
8
BLACK
6
CONTINUOUS
10
175.64
20
-108.58
11
176.14
21
-109.08
0
LINE
8
BLACK
6
CONTINUOUS
10
176.36
20
-86.92
11
176.86
21
-86.42
0
LINE
8
BLACK
6
CONTINUOUS
10
176.86
20
-86.42
11
176.36
21
-85.92
0
LINE
8
BLACK
6
CONTINUOUS
10
176.36
20
-85.92
11
175.86
21
-86.42
0
LINE
8
BLACK
6
CONTINUOUS
10
175.86
20
-86.42
11
176.36
21
-86.92
0
LINE
8
BLACK
6
CONTINUOUS
10
176.36
20
-92
11
176.86
21
-91.5
0
LINE
8
BLACK
6
CONTINUOUS
10
176.86
20
-91.5
11
176.36
21
-91
0
LINE
8
BLACK
6
CONTINUOUS
10
176.36
20
-91
11
175.86
21
-91.5
0
LINE
8
BLACK
6
CONTINUOUS
10
175.86
20
-91.5
11
176.36
21
-92
0
LINE
8
BLACK
6
CONTINUOUS
10
178.68
20
-104
11
179.18
21
-103.5
0
LINE
8
BLACK
6
CONTINUOUS
10
179.18
20
-103.5
11
178.68
21
-103
0
LINE
8
BLACK
6
CONTINUOUS
10
178.68
20
-103
11
178.18
21
-103.5
0
LINE
8
BLACK
6
CONTINUOUS
10
178.18
20
-103.5
11
178.68
21
-104
0
LINE
8
BLACK
6
CONTINUOUS
10
178.68
20
-109.08
11
179.18
21
-108.58
0
LINE
8
BLACK
6
CONTINUOUS
10
179.18
20
-108.58
11
178.68
21
-108.08
0
LINE
8
BLACK
6
CONTINUOUS
10
178.68
20
-108.08
11
178.18
21
-108.58
0
LINE
8
BLACK
6
CONTINUOUS
10
178.18
20
-108.58
11
178.68
21
-109.08
0
LINE
8
BLACK
6
CONTINUOUS
10
178.9
20
-86.92
11
179.4
21
-86.42
0
LINE
8
BLACK
6
CONTINUOUS
10
179.4
20
-86.42
11
178.9
21
-85.92
0
LINE
8
BLACK
6
CONTINUOUS
10
178.9
20
-85.92
11
178.4
21
-86.42
0
LINE
8
BLACK
6
CONTINUOUS
10
178.4
20
-86.42
11
178.9
21
-86.92
0
LINE
8
BLACK
6
CONTINUOUS
10
178.9
20
-92
11
179.4
21
-91.5
0
LINE
8
BLACK
6
CONTINUOUS
10
179.4
20
-91.5
11
178.9
21
-91
0
LINE
8
BLACK
6
CONTINUOUS
10
178.9
20
-91
11
178.4
21
-91.5
0
LINE
8
BLACK
6
CONTINUOUS
10
178.4
20
-91.5
11
178.9
21
-92
0
LINE
8
BLACK
6
CONTINUOUS
10
181.22
20
-104
11
181.72
21
-103.5
0
LINE
8
BLACK
6
CONTINUOUS
10
181.72
20
-103.5
11
181.22
21
-103
0
LINE
8
BLACK
6
CONTINUOUS
10
181.22
20
-103
11
180.72
21
-103.5
0
LINE
8
BLACK
6
CONTINUOUS
10
180.72
20
-103.5
11
181.22
21
-104
0
LINE
8
BLACK
6
CONTINUOUS
10
181.22
20
-109.08
11
181.72
21
-108.58
0
LINE
8
BLACK
6
CONTINUOUS
10
181.72
20
-108.58
11
181.22
21
-108.08
0
LINE
8
BLACK
6
CONTINUOUS
10
181.22
20
-108.08
11
180.72
21
-108.58
0
LINE
8
BLACK
6
CONTINUOUS
10
180.72
20
-108.58
11
181.22
21
-109.08
0
LINE
8
BLACK
6
CONTINUOUS
10
181.44
20
-86.92
11
181.94
21
-86.42
0
LINE
8
BLACK
6
CONTINUOUS
10
181.94
20
-86.42
11
181.44
21
-85.92
0
LINE
8
BLACK
6
CONTINUOUS
10
181.44
20
-85.92
11
180.94
21
-86.42
0
LINE
8
BLACK
6
CONTINUOUS
10
180.94
20
-86.42
11
181.44
21
-86.92
0
LINE
8
BLACK
6
CONTINUOUS
10
181.44
20
-92
11
181.94
21
-91.5
0
LINE
8
BLACK
6
CONTINUOUS
10
181.94
20
-91.5
11
181.44
21
-91
0
LINE
8
BLACK
6
CONTINUOUS
10
181.44
20
-91
11
180.94
21
-91.5
0
LINE
8
BLACK
6
CONTINUOUS
10
180.94
20
-91.5
11
181.44
21
-92
0
LINE
8
BLACK
6
CONTINUOUS
10
183.76
20
-104
11
184.26
21
-103.5
0
LINE
8
BLACK
6
CONTINUOUS
10
184.26
20
-103.5
11
183.76
21
-103
0
LINE
8
BLACK
6
CONTINUOUS
10
183.76
20
-103
11
183.26
21
-103.5
0
LINE
8
BLACK
6
CONTINUOUS
10
183.26
20
-103.5
11
183.76
21
-104
0
LINE
8
BLACK
6
CONTINUOUS
10
183.76
20
-109.08
11
184.26
21
-108.58
0
LINE
8
BLACK
6
CONTINUOUS
10
184.26
20
-108.58
11
183.76
21
-108.08
0
LINE
8
BLACK
6
CONTINUOUS
10
183.76
20
-108.08
11
183.26
21
-108.58
0
LINE
8
BLACK
6
CONTINUOUS
10
183.26
20
-108.58
11
183.76
21
-109.08
0
LINE
8
BLACK
6
CONTINUOUS
10
183.98
20
-86.92
11
184.48
21
-86.42
0
LINE
8
BLACK
6
CONTINUOUS
10
184.48
20
-86.42
11
183.98
21
-85.92
0
LINE
8
BLACK
6
CONTINUOUS
10
183.98
20
-85.92
11
183.48
21
-86.42
0
LINE
8
BLACK
6
CONTINUOUS
10
183.48
20
-86.42
11
183.98
21
-86.92
0
LINE
8
BLACK
6
CONTINUOUS
10
183.98
20
-92
11
184.48
21
-91.5
0
LINE
8
BLACK
6
CONTINUOUS
10
184.48
20
-91.5
11
183.98
21
-91
0
LINE
8
BLACK
6
CONTINUOUS
10
183.98
20
-91
11
183.48
21
-91.5
0
LINE
8
BLACK
6
CONTINUOUS
10
183.48
20
-91.5
11
183.98
21
-92
0
LINE
8
BLACK
6
CONTINUOUS
10
186.3
20
-104
11
186.8
21
-103.5
0
LINE
8
BLACK
6
CONTINUOUS
10
186.8
20
-103.5
11
186.3
21
-103
0
LINE
8
BLACK
6
CONTINUOUS
10
186.3
20
-103
11
185.8
21
-103.5
0
LINE
8
BLACK
6
CONTINUOUS
10
185.8
20
-103.5
11
186.3
21
-104
0
LINE
8
BLACK
6
CONTINUOUS
10
186.3
20
-109.08
11
186.8
21
-108.58
0
LINE
8
BLACK
6
CONTINUOUS
10
186.8
20
-108.58
11
186.3
21
-108.08
0
LINE
8
BLACK
6
CONTINUOUS
10
186.3
20
-108.08
11
185.8
21
-108.58
0
LINE
8
BLACK
6
CONTINUOUS
10
185.8
20
-108.58
11
186.3
21
-109.08
0
LINE
8
BLACK
6
CONTINUOUS
10
186.52
20
-86.92
11
187.02
21
-86.42
0
LINE
8
BLACK
6
CONTINUOUS
10
187.02
20
-86.42
11
186.52
21
-85.92
0
LINE
8
BLACK
6
CONTINUOUS
10
186.52
20
-85.92
11
186.02
21
-86.42
0
LINE
8
BLACK
6
CONTINUOUS
10
186.02
20
-86.42
11
186.52
21
-86.92
0
LINE
8
BLACK
6
CONTINUOUS
10
186.52
20
-92
11
187.02
21
-91.5
0
LINE
8
BLACK
6
CONTINUOUS
10
187.02
20
-91.5
11
186.52
21
-91
0
LINE
8
BLACK
6
CONTINUOUS
10
186.52
20
-91
11
186.02
21
-91.5
0
LINE
8
BLACK
6
CONTINUOUS
10
186.02
20
-91.5
11
186.52
21
-92
0
LINE
8
BLACK
6
CONTINUOUS
10
188.84
20
-104
11
189.34
21
-103.5
0
LINE
8
BLACK
6
CONTINUOUS
10
189.34
20
-103.5
11
188.84
21
-103
0
LINE
8
BLACK
6
CONTINUOUS
10
188.84
20
-103
11
188.34
21
-103.5
0
LINE
8
BLACK
6
CONTINUOUS
10
188.34
20
-103.5
11
188.84
21
-104
0
LINE
8
BLACK
6
CONTINUOUS
10
188.84
20
-109.08
11
189.34
21
-108.58
0
LINE
8
BLACK
6
CONTINUOUS
10
189.34
20
-108.58
11
188.84
21
-108.08
0
LINE
8
BLACK
6
CONTINUOUS
10
188.84
20
-108.08
11
188.34
21
-108.58
0
LINE
8
BLACK
6
CONTINUOUS
10
188.34
20
-108.58
11
188.84
21
-109.08
0
LINE
8
BLACK
6
CONTINUOUS
10
189.06
20
-86.92
11
189.56
21
-86.42
0
LINE
8
BLACK
6
CONTINUOUS
10
189.56
20
-86.42
11
189.06
21
-85.92
0
LINE
8
BLACK
6
CONTINUOUS
10
189.06
20
-85.92
11
188.56
21
-86.42
0
LINE
8
BLACK
6
CONTINUOUS
10
188.56
20
-86.42
11
189.06
21
-86.92
0
LINE
8
BLACK
6
CONTINUOUS
10
189.06
20
-92
11
189.56
21
-91.5
0
LINE
8
BLACK
6
CONTINUOUS
10
189.56
20
-91.5
11
189.06
21
-91
0
LINE
8
BLACK
6
CONTINUOUS
10
189.06
20
-91
11
188.56
21
-91.5
0
LINE
8
BLACK
6
CONTINUOUS
10
188.56
20
-91.5
11
189.06
21
-92
0
LINE
8
BLACK
6
CONTINUOUS
10
195.725
20
-87.65
11
196.225
21
-87.15
0
LINE
8
BLACK
6
CONTINUOUS
10
196.225
20
-87.15
11
195.725
21
-86.65
0
LINE
8
BLACK
6
CONTINUOUS
10
195.725
20
-86.65
11
195.225
21
-87.15
0
LINE
8
BLACK
6
CONTINUOUS
10
195.225
20
-87.15
11
195.725
21
-87.65
0
LINE
8
BLACK
6
CONTINUOUS
10
195.725
20
-90.15
11
196.225
21
-89.65
0
LINE
8
BLACK
6
CONTINUOUS
10
196.225
20
-89.65
11
195.725
21
-89.15
0
LINE
8
BLACK
6
CONTINUOUS
10
195.725
20
-89.15
11
195.225
21
-89.65
0
LINE
8
BLACK
6
CONTINUOUS
10
195.225
20
-89.65
11
195.725
21
-90.15
0
LINE
8
BLACK
6
CONTINUOUS
10
126.15
20
-74.2029
11
129.35
21
-77.4029
0
LINE
8
BLACK
6
CONTINUOUS
10
129.35
20
-74.2029
11
126.15
21
-77.4029
0
CIRCLE
8
BLACK
10
127.75
20
-75.8029
40
1.6
0
LINE
8
BLACK
6
CONTINUOUS
10
126.15
20
-96.25
11
129.35
21
-99.45
0
LINE
8
BLACK
6
CONTINUOUS
10
129.35
20
-96.25
11
126.15
21
-99.45
0
CIRCLE
8
BLACK
10
127.75
20
-97.85
40
1.6
0
LINE
8
BLACK
6
CONTINUOUS
10
195.65
20
-74.25
11
198.85
21
-77.45
0
LINE
8
BLACK
6
CONTINUOUS
10
198.85
20
-74.25
11
195.65
21
-77.45
0
CIRCLE
8
BLACK
10
197.25
20
-75.85
40
1.6
0
LINE
8
BLACK
6
CONTINUOUS
10
195.65
20
-96.25
11
198.85
21
-99.45
0
LINE
8
BLACK
6
CONTINUOUS
10
198.85
20
-96.25
11
195.65
21
-99.45
0
CIRCLE
8
BLACK
10
197.25
20
-97.85
40
1.6
0
LINE
8
BLACK
6
CONTINUOUS
10
126.451
20
-126.96
11
126.451
21
-124.96
0
LINE
8
BLACK
6
CONTINUOUS
10
126.451
20
-124.96
11
126.927
21
-124.96
0
LINE
8
BLACK
6
CONTINUOUS
10
126.927
20
-124.96
11
127.213
21
-125.055
0
LINE
8
BLACK
6
CONTINUOUS
10
127.213
20
-125.055
11
127.404
21
-125.245
0
LINE
8
BLACK
6
CONTINUOUS
10
127.404
20
-125.245
11
127.499
21
-125.436
0
LINE
8
BLACK
6
CONTINUOUS
10
127.499
20
-125.436
11
127.594
21
-125.817
0
LINE
8
BLACK
6
CONTINUOUS
10
127.594
20
-125.817
11
127.594
21
-126.103
0
LINE
8
BLACK
6
CONTINUOUS
10
127.594
20
-126.103
11
127.499
21
-126.484
0
LINE
8
BLACK
6
CONTINUOUS
10
127.499
20
-126.484
11
127.404
21
-126.674
0
LINE
8
BLACK
6
CONTINUOUS
10
127.404
20
-126.674
11
127.213
21
-126.865
0
LINE
8
BLACK
6
CONTINUOUS
10
127.213
20
-126.865
11
126.927
21
-126.96
0
LINE
8
BLACK
6
CONTINUOUS
10
126.927
20
-126.96
11
126.451
21
-126.96
0
LINE
8
BLACK
6
CONTINUOUS
10
128.451
20
-126.96
11
128.451
21
-125.626
0
LINE
8
BLACK
6
CONTINUOUS
10
128.451
20
-126.007
11
128.546
21
-125.817
0
LINE
8
BLACK
6
CONTINUOUS
10
128.546
20
-125.817
11
128.642
21
-125.722
0
LINE
8
BLACK
6
CONTINUOUS
10
128.642
20
-125.722
11
128.832
21
-125.626
0
LINE
8
BLACK
6
CONTINUOUS
10
128.832
20
-125.626
11
129.023
21
-125.626
0
LINE
8
BLACK
6
CONTINUOUS
10
129.689
20
-126.96
11
129.689
21
-125.626
0
LINE
8
BLACK
6
CONTINUOUS
10
129.689
20
-124.96
11
129.594
21
-125.055
0
LINE
8
BLACK
6
CONTINUOUS
10
129.594
20
-125.055
11
129.689
21
-125.15
0
LINE
8
BLACK
6
CONTINUOUS
10
129.689
20
-125.15
11
129.785
21
-125.055
0
LINE
8
BLACK
6
CONTINUOUS
10
129.785
20
-125.055
11
129.689
21
-124.96
0
LINE
8
BLACK
6
CONTINUOUS
10
129.689
20
-124.96
11
129.689
21
-125.15
0
LINE
8
BLACK
6
CONTINUOUS
10
130.927
20
-126.96
11
130.737
21
-126.865
0
LINE
8
BLACK
6
CONTINUOUS
10
130.737
20
-126.865
11
130.642
21
-126.674
0
LINE
8
BLACK
6
CONTINUOUS
10
130.642
20
-126.674
11
130.642
21
-124.96
0
LINE
8
BLACK
6
CONTINUOUS
10
131.975
20
-126.96
11
131.785
21
-126.865
0
LINE
8
BLACK
6
CONTINUOUS
10
131.785
20
-126.865
11
131.689
21
-126.674
0
LINE
8
BLACK
6
CONTINUOUS
10
131.689
20
-126.674
11
131.689
21
-124.96
0
LINE
8
BLACK
6
CONTINUOUS
10
133.937
20
-126.96
11
133.937
21
-124.96
0
LINE
8
BLACK
6
CONTINUOUS
10
133.937
20
-124.96
11
134.604
21
-126.388
0
LINE
8
BLACK
6
CONTINUOUS
10
134.604
20
-126.388
11
135.27
21
-124.96
0
LINE
8
BLACK
6
CONTINUOUS
10
135.27
20
-124.96
11
135.27
21
-126.96
0
LINE
8
BLACK
6
CONTINUOUS
10
137.08
20
-126.96
11
137.08
21
-125.912
0
LINE
8
BLACK
6
CONTINUOUS
10
137.08
20
-125.912
11
136.985
21
-125.722
0
LINE
8
BLACK
6
CONTINUOUS
10
136.985
20
-125.722
11
136.794
21
-125.626
0
LINE
8
BLACK
6
CONTINUOUS
10
136.794
20
-125.626
11
136.413
21
-125.626
0
LINE
8
BLACK
6
CONTINUOUS
10
136.413
20
-125.626
11
136.223
21
-125.722
0
LINE
8
BLACK
6
CONTINUOUS
10
137.08
20
-126.865
11
136.889
21
-126.96
0
LINE
8
BLACK
6
CONTINUOUS
10
136.889
20
-126.96
11
136.413
21
-126.96
0
LINE
8
BLACK
6
CONTINUOUS
10
136.413
20
-126.96
11
136.223
21
-126.865
0
LINE
8
BLACK
6
CONTINUOUS
10
136.223
20
-126.865
11
136.127
21
-126.674
0
LINE
8
BLACK
6
CONTINUOUS
10
136.127
20
-126.674
11
136.127
21
-126.484
0
LINE
8
BLACK
6
CONTINUOUS
10
136.127
20
-126.484
11
136.223
21
-126.293
0
LINE
8
BLACK
6
CONTINUOUS
10
136.223
20
-126.293
11
136.413
21
-126.198
0
LINE
8
BLACK
6
CONTINUOUS
10
136.413
20
-126.198
11
136.889
21
-126.198
0
LINE
8
BLACK
6
CONTINUOUS
10
136.889
20
-126.198
11
137.08
21
-126.103
0
LINE
8
BLACK
6
CONTINUOUS
10
138.032
20
-125.626
11
138.032
21
-127.626
0
LINE
8
BLACK
6
CONTINUOUS
10
138.032
20
-125.722
11
138.223
21
-125.626
0
LINE
8
BLACK
6
CONTINUOUS
10
138.223
20
-125.626
11
138.604
21
-125.626
0
LINE
8
BLACK
6
CONTINUOUS
10
138.604
20
-125.626
11
138.794
21
-125.722
0
LINE
8
BLACK
6
CONTINUOUS
10
138.794
20
-125.722
11
138.889
21
-125.817
0
LINE
8
BLACK
6
CONTINUOUS
10
138.889
20
-125.817
11
138.985
21
-126.007
0
LINE
8
BLACK
6
CONTINUOUS
10
138.985
20
-126.007
11
138.985
21
-126.579
0
LINE
8
BLACK
6
CONTINUOUS
10
138.985
20
-126.579
11
138.889
21
-126.769
0
LINE
8
BLACK
6
CONTINUOUS
10
138.889
20
-126.769
11
138.794
21
-126.865
0
LINE
8
BLACK
6
CONTINUOUS
10
138.794
20
-126.865
11
138.604
21
-126.96
0
LINE
8
BLACK
6
CONTINUOUS
10
138.604
20
-126.96
11
138.223
21
-126.96
0
LINE
8
BLACK
6
CONTINUOUS
10
138.223
20
-126.96
11
138.032
21
-126.865
0
LINE
8
BLACK
6
CONTINUOUS
10
139.842
20
-126.769
11
139.937
21
-126.865
0
LINE
8
BLACK
6
CONTINUOUS
10
139.937
20
-126.865
11
139.842
21
-126.96
0
LINE
8
BLACK
6
CONTINUOUS
10
139.842
20
-126.96
11
139.746
21
-126.865
0
LINE
8
BLACK
6
CONTINUOUS
10
139.746
20
-126.865
11
139.842
21
-126.769
0
LINE
8
BLACK
6
CONTINUOUS
10
139.842
20
-126.769
11
139.842
21
-126.96
0
LINE
8
BLACK
6
CONTINUOUS
10
139.842
20
-125.722
11
139.937
21
-125.817
0
LINE
8
BLACK
6
CONTINUOUS
10
139.937
20
-125.817
11
139.842
21
-125.912
0
LINE
8
BLACK
6
CONTINUOUS
10
139.842
20
-125.912
11
139.746
21
-125.817
0
LINE
8
BLACK
6
CONTINUOUS
10
139.746
20
-125.817
11
139.842
21
-125.722
0
LINE
8
BLACK
6
CONTINUOUS
10
139.842
20
-125.722
11
139.842
21
-125.912
0
LINE
8
BLACK
6
CONTINUOUS
10
123.575
20
-130.225
11
123.975
21
-130.625
0
LINE
8
BLACK
6
CONTINUOUS
10
123.975
20
-130.225
11
123.575
21
-130.625
0
LINE
8
BLACK
6
CONTINUOUS
10
126.832
20
-129.16
11
127.023
21
-129.16
0
LINE
8
BLACK
6
CONTINUOUS
10
127.023
20
-129.16
11
127.213
21
-129.255
0
LINE
8
BLACK
6
CONTINUOUS
10
127.213
20
-129.255
11
127.308
21
-129.35
0
LINE
8
BLACK
6
CONTINUOUS
10
127.308
20
-129.35
11
127.404
21
-129.541
0
LINE
8
BLACK
6
CONTINUOUS
10
127.404
20
-129.541
11
127.499
21
-129.922
0
LINE
8
BLACK
6
CONTINUOUS
10
127.499
20
-129.922
11
127.499
21
-130.398
0
LINE
8
BLACK
6
CONTINUOUS
10
127.499
20
-130.398
11
127.404
21
-130.779
0
LINE
8
BLACK
6
CONTINUOUS
10
127.404
20
-130.779
11
127.308
21
-130.969
0
LINE
8
BLACK
6
CONTINUOUS
10
127.308
20
-130.969
11
127.213
21
-131.065
0
LINE
8
BLACK
6
CONTINUOUS
10
127.213
20
-131.065
11
127.023
21
-131.16
0
LINE
8
BLACK
6
CONTINUOUS
10
127.023
20
-131.16
11
126.832
21
-131.16
0
LINE
8
BLACK
6
CONTINUOUS
10
126.832
20
-131.16
11
126.642
21
-131.065
0
LINE
8
BLACK
6
CONTINUOUS
10
126.642
20
-131.065
11
126.546
21
-130.969
0
LINE
8
BLACK
6
CONTINUOUS
10
126.546
20
-130.969
11
126.451
21
-130.779
0
LINE
8
BLACK
6
CONTINUOUS
10
126.451
20
-130.779
11
126.356
21
-130.398
0
LINE
8
BLACK
6
CONTINUOUS
10
126.356
20
-130.398
11
126.356
21
-129.922
0
LINE
8
BLACK
6
CONTINUOUS
10
126.356
20
-129.922
11
126.451
21
-129.541
0
LINE
8
BLACK
6
CONTINUOUS
10
126.451
20
-129.541
11
126.546
21
-129.35
0
LINE
8
BLACK
6
CONTINUOUS
10
126.546
20
-129.35
11
126.642
21
-129.255
0
LINE
8
BLACK
6
CONTINUOUS
10
126.642
20
-129.255
11
126.832
21
-129.16
0
LINE
8
BLACK
6
CONTINUOUS
10
128.356
20
-130.969
11
128.451
21
-131.065
0
LINE
8
BLACK
6
CONTINUOUS
10
128.451
20
-131.065
11
128.356
21
-131.16
0
LINE
8
BLACK
6
CONTINUOUS
10
128.356
20
-131.16
11
128.261
21
-131.065
0
LINE
8
BLACK
6
CONTINUOUS
10
128.261
20
-131.065
11
128.356
21
-130.969
0
LINE
8
BLACK
6
CONTINUOUS
10
128.356
20
-130.969
11
128.356
21
-131.16
0
LINE
8
BLACK
6
CONTINUOUS
10
130.165
20
-129.826
11
130.165
21
-131.16
0
LINE
8
BLACK
6
CONTINUOUS
10
129.689
20
-129.065
11
129.213
21
-130.493
0
LINE
8
BLACK
6
CONTINUOUS
10
129.213
20
-130.493
11
130.451
21
-130.493
0
LINE
8
BLACK
6
CONTINUOUS
10
131.594
20
-129.16
11
131.785
21
-129.16
0
LINE
8
BLACK
6
CONTINUOUS
10
131.785
20
-129.16
11
131.975
21
-129.255
0
LINE
8
BLACK
6
CONTINUOUS
10
131.975
20
-129.255
11
132.07
21
-129.35
0
LINE
8
BLACK
6
CONTINUOUS
10
132.07
20
-129.35
11
132.165
21
-129.541
0
LINE
8
BLACK
6
CONTINUOUS
10
132.165
20
-129.541
11
132.261
21
-129.922
0
LINE
8
BLACK
6
CONTINUOUS
10
132.261
20
-129.922
11
132.261
21
-130.398
0
LINE
8
BLACK
6
CONTINUOUS
10
132.261
20
-130.398
11
132.165
21
-130.779
0
LINE
8
BLACK
6
CONTINUOUS
10
132.165
20
-130.779
11
132.07
21
-130.969
0
LINE
8
BLACK
6
CONTINUOUS
10
132.07
20
-130.969
11
131.975
21
-131.065
0
LINE
8
BLACK
6
CONTINUOUS
10
131.975
20
-131.065
11
131.785
21
-131.16
0
LINE
8
BLACK
6
CONTINUOUS
10
131.785
20
-131.16
11
131.594
21
-131.16
0
LINE
8
BLACK
6
CONTINUOUS
10
131.594
20
-131.16
11
131.404
21
-131.065
0
LINE
8
BLACK
6
CONTINUOUS
10
131.404
20
-131.065
11
131.308
21
-130.969
0
LINE
8
BLACK
6
CONTINUOUS
10
131.308
20
-130.969
11
131.213
21
-130.779
0
LINE
8
BLACK
6
CONTINUOUS
10
131.213
20
-130.779
11
131.118
21
-130.398
0
LINE
8
BLACK
6
CONTINUOUS
10
131.118
20
-130.398
11
131.118
21
-129.922
0
LINE
8
BLACK
6
CONTINUOUS
10
131.118
20
-129.922
11
131.213
21
-129.541
0
LINE
8
BLACK
6
CONTINUOUS
10
131.213
20
-129.541
11
131.308
21
-129.35
0
LINE
8
BLACK
6
CONTINUOUS
10
131.308
20
-129.35
11
131.404
21
-129.255
0
LINE
8
BLACK
6
CONTINUOUS
10
131.404
20
-129.255
11
131.594
21
-129.16
0
LINE
8
BLACK
6
CONTINUOUS
10
133.499
20
-129.16
11
133.689
21
-129.16
0
LINE
8
BLACK
6
CONTINUOUS
10
133.689
20
-129.16
11
133.88
21
-129.255
0
LINE
8
BLACK
6
CONTINUOUS
10
133.88
20
-129.255
11
133.975
21
-129.35
0
LINE
8
BLACK
6
CONTINUOUS
10
133.975
20
-129.35
11
134.07
21
-129.541
0
LINE
8
BLACK
6
CONTINUOUS
10
134.07
20
-129.541
11
134.165
21
-129.922
0
LINE
8
BLACK
6
CONTINUOUS
10
134.165
20
-129.922
11
134.165
21
-130.398
0
LINE
8
BLACK
6
CONTINUOUS
10
134.165
20
-130.398
11
134.07
21
-130.779
0
LINE
8
BLACK
6
CONTINUOUS
10
134.07
20
-130.779
11
133.975
21
-130.969
0
LINE
8
BLACK
6
CONTINUOUS
10
133.975
20
-130.969
11
133.88
21
-131.065
0
LINE
8
BLACK
6
CONTINUOUS
10
133.88
20
-131.065
11
133.689
21
-131.16
0
LINE
8
BLACK
6
CONTINUOUS
10
133.689
20
-131.16
11
133.499
21
-131.16
0
LINE
8
BLACK
6
CONTINUOUS
10
133.499
20
-131.16
11
133.308
21
-131.065
0
LINE
8
BLACK
6
CONTINUOUS
10
133.308
20
-131.065
11
133.213
21
-130.969
0
LINE
8
BLACK
6
CONTINUOUS
10
133.213
20
-130.969
11
133.118
21
-130.779
0
LINE
8
BLACK
6
CONTINUOUS
10
133.118
20
-130.779
11
133.023
21
-130.398
0
LINE
8
BLACK
6
CONTINUOUS
10
133.023
20
-130.398
11
133.023
21
-129.922
0
LINE
8
BLACK
6
CONTINUOUS
10
133.023
20
-129.922
11
133.118
21
-129.541
0
LINE
8
BLACK
6
CONTINUOUS
10
133.118
20
-129.541
11
133.213
21
-129.35
0
LINE
8
BLACK
6
CONTINUOUS
10
133.213
20
-129.35
11
133.308
21
-129.255
0
LINE
8
BLACK
6
CONTINUOUS
10
133.308
20
-129.255
11
133.499
21
-129.16
0
LINE
8
BLACK
6
CONTINUOUS
10
135.023
20
-131.16
11
135.023
21
-129.826
0
LINE
8
BLACK
6
CONTINUOUS
10
135.023
20
-130.017
11
135.118
21
-129.922
0
LINE
8
BLACK
6
CONTINUOUS
10
135.118
20
-129.922
11
135.308
21
-129.826
0
LINE
8
BLACK
6
CONTINUOUS
10
135.308
20
-129.826
11
135.594
21
-129.826
0
LINE
8
BLACK
6
CONTINUOUS
10
135.594
20
-129.826
11
135.785
21
-129.922
0
LINE
8
BLACK
6
CONTINUOUS
10
135.785
20
-129.922
11
135.88
21
-130.112
0
LINE
8
BLACK
6
CONTINUOUS
10
135.88
20
-130.112
11
135.88
21
-131.16
0
LINE
8
BLACK
6
CONTINUOUS
10
135.88
20
-130.112
11
135.975
21
-129.922
0
LINE
8
BLACK
6
CONTINUOUS
10
135.975
20
-129.922
11
136.165
21
-129.826
0
LINE
8
BLACK
6
CONTINUOUS
10
136.165
20
-129.826
11
136.451
21
-129.826
0
LINE
8
BLACK
6
CONTINUOUS
10
136.451
20
-129.826
11
136.642
21
-129.922
0
LINE
8
BLACK
6
CONTINUOUS
10
136.642
20
-129.922
11
136.737
21
-130.112
0
LINE
8
BLACK
6
CONTINUOUS
10
136.737
20
-130.112
11
136.737
21
-131.16
0
LINE
8
BLACK
6
CONTINUOUS
10
137.689
20
-131.16
11
137.689
21
-129.826
0
LINE
8
BLACK
6
CONTINUOUS
10
137.689
20
-130.017
11
137.785
21
-129.922
0
LINE
8
BLACK
6
CONTINUOUS
10
137.785
20
-129.922
11
137.975
21
-129.826
0
LINE
8
BLACK
6
CONTINUOUS
10
137.975
20
-129.826
11
138.261
21
-129.826
0
LINE
8
BLACK
6
CONTINUOUS
10
138.261
20
-129.826
11
138.451
21
-129.922
0
LINE
8
BLACK
6
CONTINUOUS
10
138.451
20
-129.922
11
138.546
21
-130.112
0
LINE
8
BLACK
6
CONTINUOUS
10
138.546
20
-130.112
11
138.546
21
-131.16
0
LINE
8
BLACK
6
CONTINUOUS
10
138.546
20
-130.112
11
138.642
21
-129.922
0
LINE
8
BLACK
6
CONTINUOUS
10
138.642
20
-129.922
11
138.832
21
-129.826
0
LINE
8
BLACK
6
CONTINUOUS
10
138.832
20
-129.826
11
139.118
21
-129.826
0
LINE
8
BLACK
6
CONTINUOUS
10
139.118
20
-129.826
11
139.308
21
-129.922
0
LINE
8
BLACK
6
CONTINUOUS
10
139.308
20
-129.922
11
139.404
21
-130.112
0
LINE
8
BLACK
6
CONTINUOUS
10
139.404
20
-130.112
11
139.404
21
-131.16
0
LINE
8
BLACK
6
CONTINUOUS
10
142.985
20
-129.065
11
141.27
21
-131.636
0
LINE
8
BLACK
6
CONTINUOUS
10
145.232
20
-129.16
11
145.423
21
-129.16
0
LINE
8
BLACK
6
CONTINUOUS
10
145.423
20
-129.16
11
145.613
21
-129.255
0
LINE
8
BLACK
6
CONTINUOUS
10
145.613
20
-129.255
11
145.708
21
-129.35
0
LINE
8
BLACK
6
CONTINUOUS
10
145.708
20
-129.35
11
145.804
21
-129.541
0
LINE
8
BLACK
6
CONTINUOUS
10
145.804
20
-129.541
11
145.899
21
-129.922
0
LINE
8
BLACK
6
CONTINUOUS
10
145.899
20
-129.922
11
145.899
21
-130.398
0
LINE
8
BLACK
6
CONTINUOUS
10
145.899
20
-130.398
11
145.804
21
-130.779
0
LINE
8
BLACK
6
CONTINUOUS
10
145.804
20
-130.779
11
145.708
21
-130.969
0
LINE
8
BLACK
6
CONTINUOUS
10
145.708
20
-130.969
11
145.613
21
-131.065
0
LINE
8
BLACK
6
CONTINUOUS
10
145.613
20
-131.065
11
145.423
21
-131.16
0
LINE
8
BLACK
6
CONTINUOUS
10
145.423
20
-131.16
11
145.232
21
-131.16
0
LINE
8
BLACK
6
CONTINUOUS
10
145.232
20
-131.16
11
145.042
21
-131.065
0
LINE
8
BLACK
6
CONTINUOUS
10
145.042
20
-131.065
11
144.946
21
-130.969
0
LINE
8
BLACK
6
CONTINUOUS
10
144.946
20
-130.969
11
144.851
21
-130.779
0
LINE
8
BLACK
6
CONTINUOUS
10
144.851
20
-130.779
11
144.756
21
-130.398
0
LINE
8
BLACK
6
CONTINUOUS
10
144.756
20
-130.398
11
144.756
21
-129.922
0
LINE
8
BLACK
6
CONTINUOUS
10
144.756
20
-129.922
11
144.851
21
-129.541
0
LINE
8
BLACK
6
CONTINUOUS
10
144.851
20
-129.541
11
144.946
21
-129.35
0
LINE
8
BLACK
6
CONTINUOUS
10
144.946
20
-129.35
11
145.042
21
-129.255
0
LINE
8
BLACK
6
CONTINUOUS
10
145.042
20
-129.255
11
145.232
21
-129.16
0
LINE
8
BLACK
6
CONTINUOUS
10
146.756
20
-130.969
11
146.851
21
-131.065
0
LINE
8
BLACK
6
CONTINUOUS
10
146.851
20
-131.065
11
146.756
21
-131.16
0
LINE
8
BLACK
6
CONTINUOUS
10
146.756
20
-131.16
11
146.661
21
-131.065
0
LINE
8
BLACK
6
CONTINUOUS
10
146.661
20
-131.065
11
146.756
21
-130.969
0
LINE
8
BLACK
6
CONTINUOUS
10
146.756
20
-130.969
11
146.756
21
-131.16
0
LINE
8
BLACK
6
CONTINUOUS
10
148.089
20
-129.16
11
148.28
21
-129.16
0
LINE
8
BLACK
6
CONTINUOUS
10
148.28
20
-129.16
11
148.47
21
-129.255
0
LINE
8
BLACK
6
CONTINUOUS
10
148.47
20
-129.255
11
148.565
21
-129.35
0
LINE
8
BLACK
6
CONTINUOUS
10
148.565
20
-129.35
11
148.661
21
-129.541
0
LINE
8
BLACK
6
CONTINUOUS
10
148.661
20
-129.541
11
148.756
21
-129.922
0
LINE
8
BLACK
6
CONTINUOUS
10
148.756
20
-129.922
11
148.756
21
-130.398
0
LINE
8
BLACK
6
CONTINUOUS
10
148.756
20
-130.398
11
148.661
21
-130.779
0
LINE
8
BLACK
6
CONTINUOUS
10
148.661
20
-130.779
11
148.565
21
-130.969
0
LINE
8
BLACK
6
CONTINUOUS
10
148.565
20
-130.969
11
148.47
21
-131.065
0
LINE
8
BLACK
6
CONTINUOUS
10
148.47
20
-131.065
11
148.28
21
-131.16
0
LINE
8
BLACK
6
CONTINUOUS
10
148.28
20
-131.16
11
148.089
21
-131.16
0
LINE
8
BLACK
6
CONTINUOUS
10
148.089
20
-131.16
11
147.899
21
-131.065
0
LINE
8
BLACK
6
CONTINUOUS
10
147.899
20
-131.065
11
147.804
21
-130.969
0
LINE
8
BLACK
6
CONTINUOUS
10
147.804
20
-130.969
11
147.708
21
-130.779
0
LINE
8
BLACK
6
CONTINUOUS
10
147.708
20
-130.779
11
147.613
21
-130.398
0
LINE
8
BLACK
6
CONTINUOUS
10
147.613
20
-130.398
11
147.613
21
-129.922
0
LINE
8
BLACK
6
CONTINUOUS
10
147.613
20
-129.922
11
147.708
21
-129.541
0
LINE
8
BLACK
6
CONTINUOUS
10
147.708
20
-129.541
11
147.804
21
-129.35
0
LINE
8
BLACK
6
CONTINUOUS
10
147.804
20
-129.35
11
147.899
21
-129.255
0
LINE
8
BLACK
6
CONTINUOUS
10
147.899
20
-129.255
11
148.089
21
-129.16
0
LINE
8
BLACK
6
CONTINUOUS
10
150.661
20
-131.16
11
149.518
21
-131.16
0
LINE
8
BLACK
6
CONTINUOUS
10
150.089
20
-131.16
11
150.089
21
-129.16
0
LINE
8
BLACK
6
CONTINUOUS
10
150.089
20
-129.16
11
149.899
21
-129.445
0
LINE
8
BLACK
6
CONTINUOUS
10
149.899
20
-129.445
11
149.708
21
-129.636
0
LINE
8
BLACK
6
CONTINUOUS
10
149.708
20
-129.636
11
149.518
21
-129.731
0
LINE
8
BLACK
6
CONTINUOUS
10
152.47
20
-129.16
11
151.518
21
-129.16
0
LINE
8
BLACK
6
CONTINUOUS
10
151.518
20
-129.16
11
151.423
21
-130.112
0
LINE
8
BLACK
6
CONTINUOUS
10
151.423
20
-130.112
11
151.518
21
-130.017
0
LINE
8
BLACK
6
CONTINUOUS
10
151.518
20
-130.017
11
151.708
21
-129.922
0
LINE
8
BLACK
6
CONTINUOUS
10
151.708
20
-129.922
11
152.185
21
-129.922
0
LINE
8
BLACK
6
CONTINUOUS
10
152.185
20
-129.922
11
152.375
21
-130.017
0
LINE
8
BLACK
6
CONTINUOUS
10
152.375
20
-130.017
11
152.47
21
-130.112
0
LINE
8
BLACK
6
CONTINUOUS
10
152.47
20
-130.112
11
152.565
21
-130.303
0
LINE
8
BLACK
6
CONTINUOUS
10
152.565
20
-130.303
11
152.565
21
-130.779
0
LINE
8
BLACK
6
CONTINUOUS
10
152.565
20
-130.779
11
152.47
21
-130.969
0
LINE
8
BLACK
6
CONTINUOUS
10
152.47
20
-130.969
11
152.375
21
-131.065
0
LINE
8
BLACK
6
CONTINUOUS
10
152.375
20
-131.065
11
152.185
21
-131.16
0
LINE
8
BLACK
6
CONTINUOUS
10
152.185
20
-131.16
11
151.708
21
-131.16
0
LINE
8
BLACK
6
CONTINUOUS
10
151.708
20
-131.16
11
151.518
21
-131.065
0
LINE
8
BLACK
6
CONTINUOUS
10
151.518
20
-131.065
11
151.423
21
-130.969
0
LINE
8
BLACK
6
CONTINUOUS
10
153.232
20
-129.16
11
154.565
21
-129.16
0
LINE
8
BLACK
6
CONTINUOUS
10
154.565
20
-129.16
11
153.708
21
-131.16
0
LINE
8
BLACK
6
CONTINUOUS
10
155.232
20
-129.16
11
155.232
21
-129.541
0
LINE
8
BLACK
6
CONTINUOUS
10
155.994
20
-129.16
11
155.994
21
-129.541
0
LINE
8
BLACK
6
CONTINUOUS
10
158.623
20
-131.922
11
158.527
21
-131.826
0
LINE
8
BLACK
6
CONTINUOUS
10
158.527
20
-131.826
11
158.337
21
-131.541
0
LINE
8
BLACK
6
CONTINUOUS
10
158.337
20
-131.541
11
158.242
21
-131.35
0
LINE
8
BLACK
6
CONTINUOUS
10
158.242
20
-131.35
11
158.146
21
-131.065
0
LINE
8
BLACK
6
CONTINUOUS
10
158.146
20
-131.065
11
158.051
21
-130.588
0
LINE
8
BLACK
6
CONTINUOUS
10
158.051
20
-130.588
11
158.051
21
-130.207
0
LINE
8
BLACK
6
CONTINUOUS
10
158.051
20
-130.207
11
158.146
21
-129.731
0
LINE
8
BLACK
6
CONTINUOUS
10
158.146
20
-129.731
11
158.242
21
-129.445
0
LINE
8
BLACK
6
CONTINUOUS
10
158.242
20
-129.445
11
158.337
21
-129.255
0
LINE
8
BLACK
6
CONTINUOUS
10
158.337
20
-129.255
11
158.527
21
-128.969
0
LINE
8
BLACK
6
CONTINUOUS
10
158.527
20
-128.969
11
158.623
21
-128.874
0
LINE
8
BLACK
6
CONTINUOUS
10
160.337
20
-129.16
11
159.385
21
-129.16
0
LINE
8
BLACK
6
CONTINUOUS
10
159.385
20
-129.16
11
159.289
21
-130.112
0
LINE
8
BLACK
6
CONTINUOUS
10
159.289
20
-130.112
11
159.385
21
-130.017
0
LINE
8
BLACK
6
CONTINUOUS
10
159.385
20
-130.017
11
159.575
21
-129.922
0
LINE
8
BLACK
6
CONTINUOUS
10
159.575
20
-129.922
11
160.051
21
-129.922
0
LINE
8
BLACK
6
CONTINUOUS
10
160.051
20
-129.922
11
160.242
21
-130.017
0
LINE
8
BLACK
6
CONTINUOUS
10
160.242
20
-130.017
11
160.337
21
-130.112
0
LINE
8
BLACK
6
CONTINUOUS
10
160.337
20
-130.112
11
160.432
21
-130.303
0
LINE
8
BLACK
6
CONTINUOUS
10
160.432
20
-130.303
11
160.432
21
-130.779
0
LINE
8
BLACK
6
CONTINUOUS
10
160.432
20
-130.779
11
160.337
21
-130.969
0
LINE
8
BLACK
6
CONTINUOUS
10
160.337
20
-130.969
11
160.242
21
-131.065
0
LINE
8
BLACK
6
CONTINUOUS
10
160.242
20
-131.065
11
160.051
21
-131.16
0
LINE
8
BLACK
6
CONTINUOUS
10
160.051
20
-131.16
11
159.575
21
-131.16
0
LINE
8
BLACK
6
CONTINUOUS
10
159.575
20
-131.16
11
159.385
21
-131.065
0
LINE
8
BLACK
6
CONTINUOUS
10
159.385
20
-131.065
11
159.289
21
-130.969
0
LINE
8
BLACK
6
CONTINUOUS
10
162.489
20
-131.16
11
162.489
21
-129.16
0
LINE
8
BLACK
6
CONTINUOUS
10
163.346
20
-131.16
11
163.346
21
-130.112
0
LINE
8
BLACK
6
CONTINUOUS
10
163.346
20
-130.112
11
163.251
21
-129.922
0
LINE
8
BLACK
6
CONTINUOUS
10
163.251
20
-129.922
11
163.061
21
-129.826
0
LINE
8
BLACK
6
CONTINUOUS
10
163.061
20
-129.826
11
162.775
21
-129.826
0
LINE
8
BLACK
6
CONTINUOUS
10
162.775
20
-129.826
11
162.585
21
-129.922
0
LINE
8
BLACK
6
CONTINUOUS
10
162.585
20
-129.922
11
162.489
21
-130.017
0
LINE
8
BLACK
6
CONTINUOUS
10
164.585
20
-131.16
11
164.394
21
-131.065
0
LINE
8
BLACK
6
CONTINUOUS
10
164.394
20
-131.065
11
164.299
21
-130.969
0
LINE
8
BLACK
6
CONTINUOUS
10
164.299
20
-130.969
11
164.204
21
-130.779
0
LINE
8
BLACK
6
CONTINUOUS
10
164.204
20
-130.779
11
164.204
21
-130.207
0
LINE
8
BLACK
6
CONTINUOUS
10
164.204
20
-130.207
11
164.299
21
-130.017
0
LINE
8
BLACK
6
CONTINUOUS
10
164.299
20
-130.017
11
164.394
21
-129.922
0
LINE
8
BLACK
6
CONTINUOUS
10
164.394
20
-129.922
11
164.585
21
-129.826
0
LINE
8
BLACK
6
CONTINUOUS
10
164.585
20
-129.826
11
164.87
21
-129.826
0
LINE
8
BLACK
6
CONTINUOUS
10
164.87
20
-129.826
11
165.061
21
-129.922
0
LINE
8
BLACK
6
CONTINUOUS
10
165.061
20
-129.922
11
165.156
21
-130.017
0
LINE
8
BLACK
6
CONTINUOUS
10
165.156
20
-130.017
11
165.251
21
-130.207
0
LINE
8
BLACK
6
CONTINUOUS
10
165.251
20
-130.207
11
165.251
21
-130.779
0
LINE
8
BLACK
6
CONTINUOUS
10
165.251
20
-130.779
11
165.156
21
-130.969
0
LINE
8
BLACK
6
CONTINUOUS
10
165.156
20
-130.969
11
165.061
21
-131.065
0
LINE
8
BLACK
6
CONTINUOUS
10
165.061
20
-131.065
11
164.87
21
-131.16
0
LINE
8
BLACK
6
CONTINUOUS
10
164.87
20
-131.16
11
164.585
21
-131.16
0
LINE
8
BLACK
6
CONTINUOUS
10
166.394
20
-131.16
11
166.204
21
-131.065
0
LINE
8
BLACK
6
CONTINUOUS
10
166.204
20
-131.065
11
166.108
21
-130.874
0
LINE
8
BLACK
6
CONTINUOUS
10
166.108
20
-130.874
11
166.108
21
-129.16
0
LINE
8
BLACK
6
CONTINUOUS
10
167.918
20
-131.065
11
167.727
21
-131.16
0
LINE
8
BLACK
6
CONTINUOUS
10
167.727
20
-131.16
11
167.346
21
-131.16
0
LINE
8
BLACK
6
CONTINUOUS
10
167.346
20
-131.16
11
167.156
21
-131.065
0
LINE
8
BLACK
6
CONTINUOUS
10
167.156
20
-131.065
11
167.061
21
-130.874
0
LINE
8
BLACK
6
CONTINUOUS
10
167.061
20
-130.874
11
167.061
21
-130.112
0
LINE
8
BLACK
6
CONTINUOUS
10
167.061
20
-130.112
11
167.156
21
-129.922
0
LINE
8
BLACK
6
CONTINUOUS
10
167.156
20
-129.922
11
167.346
21
-129.826
0
LINE
8
BLACK
6
CONTINUOUS
10
167.346
20
-129.826
11
167.727
21
-129.826
0
LINE
8
BLACK
6
CONTINUOUS
10
167.727
20
-129.826
11
167.918
21
-129.922
0
LINE
8
BLACK
6
CONTINUOUS
10
167.918
20
-129.922
11
168.013
21
-130.112
0
LINE
8
BLACK
6
CONTINUOUS
10
168.013
20
-130.112
11
168.013
21
-130.303
0
LINE
8
BLACK
6
CONTINUOUS
10
168.013
20
-130.303
11
167.061
21
-130.493
0
LINE
8
BLACK
6
CONTINUOUS
10
168.775
20
-131.065
11
168.965
21
-131.16
0
LINE
8
BLACK
6
CONTINUOUS
10
168.965
20
-131.16
11
169.346
21
-131.16
0
LINE
8
BLACK
6
CONTINUOUS
10
169.346
20
-131.16
11
169.537
21
-131.065
0
LINE
8
BLACK
6
CONTINUOUS
10
169.537
20
-131.065
11
169.632
21
-130.874
0
LINE
8
BLACK
6
CONTINUOUS
10
169.632
20
-130.874
11
169.632
21
-130.779
0
LINE
8
BLACK
6
CONTINUOUS
10
169.632
20
-130.779
11
169.537
21
-130.588
0
LINE
8
BLACK
6
CONTINUOUS
10
169.537
20
-130.588
11
169.346
21
-130.493
0
LINE
8
BLACK
6
CONTINUOUS
10
169.346
20
-130.493
11
169.061
21
-130.493
0
LINE
8
BLACK
6
CONTINUOUS
10
169.061
20
-130.493
11
168.87
21
-130.398
0
LINE
8
BLACK
6
CONTINUOUS
10
168.87
20
-130.398
11
168.775
21
-130.207
0
LINE
8
BLACK
6
CONTINUOUS
10
168.775
20
-130.207
11
168.775
21
-130.112
0
LINE
8
BLACK
6
CONTINUOUS
10
168.775
20
-130.112
11
168.87
21
-129.922
0
LINE
8
BLACK
6
CONTINUOUS
10
168.87
20
-129.922
11
169.061
21
-129.826
0
LINE
8
BLACK
6
CONTINUOUS
10
169.061
20
-129.826
11
169.346
21
-129.826
0
LINE
8
BLACK
6
CONTINUOUS
10
169.346
20
-129.826
11
169.537
21
-129.922
0
LINE
8
BLACK
6
CONTINUOUS
10
170.299
20
-131.922
11
170.394
21
-131.826
0
LINE
8
BLACK
6
CONTINUOUS
10
170.394
20
-131.826
11
170.585
21
-131.541
0
LINE
8
BLACK
6
CONTINUOUS
10
170.585
20
-131.541
11
170.68
21
-131.35
0
LINE
8
BLACK
6
CONTINUOUS
10
170.68
20
-131.35
11
170.775
21
-131.065
0
LINE
8
BLACK
6
CONTINUOUS
10
170.775
20
-131.065
11
170.87
21
-130.588
0
LINE
8
BLACK
6
CONTINUOUS
10
170.87
20
-130.588
11
170.87
21
-130.207
0
LINE
8
BLACK
6
CONTINUOUS
10
170.87
20
-130.207
11
170.775
21
-129.731
0
LINE
8
BLACK
6
CONTINUOUS
10
170.775
20
-129.731
11
170.68
21
-129.445
0
LINE
8
BLACK
6
CONTINUOUS
10
170.68
20
-129.445
11
170.585
21
-129.255
0
LINE
8
BLACK
6
CONTINUOUS
10
170.585
20
-129.255
11
170.394
21
-128.969
0
LINE
8
BLACK
6
CONTINUOUS
10
170.394
20
-128.969
11
170.299
21
-128.874
0
CIRCLE
8
BLACK
10
123.725
20
-133.065
40
0.25
0
LINE
8
BLACK
6
CONTINUOUS
10
126.832
20
-131.8
11
127.023
21
-131.8
0
LINE
8
BLACK
6
CONTINUOUS
10
127.023
20
-131.8
11
127.213
21
-131.895
0
LINE
8
BLACK
6
CONTINUOUS
10
127.213
20
-131.895
11
127.308
21
-131.99
0
LINE
8
BLACK
6
CONTINUOUS
10
127.308
20
-131.99
11
127.404
21
-132.181
0
LINE
8
BLACK
6
CONTINUOUS
10
127.404
20
-132.181
11
127.499
21
-132.562
0
LINE
8
BLACK
6
CONTINUOUS
10
127.499
20
-132.562
11
127.499
21
-133.038
0
LINE
8
BLACK
6
CONTINUOUS
10
127.499
20
-133.038
11
127.404
21
-133.419
0
LINE
8
BLACK
6
CONTINUOUS
10
127.404
20
-133.419
11
127.308
21
-133.609
0
LINE
8
BLACK
6
CONTINUOUS
10
127.308
20
-133.609
11
127.213
21
-133.705
0
LINE
8
BLACK
6
CONTINUOUS
10
127.213
20
-133.705
11
127.023
21
-133.8
0
LINE
8
BLACK
6
CONTINUOUS
10
127.023
20
-133.8
11
126.832
21
-133.8
0
LINE
8
BLACK
6
CONTINUOUS
10
126.832
20
-133.8
11
126.642
21
-133.705
0
LINE
8
BLACK
6
CONTINUOUS
10
126.642
20
-133.705
11
126.546
21
-133.609
0
LINE
8
BLACK
6
CONTINUOUS
10
126.546
20
-133.609
11
126.451
21
-133.419
0
LINE
8
BLACK
6
CONTINUOUS
10
126.451
20
-133.419
11
126.356
21
-133.038
0
LINE
8
BLACK
6
CONTINUOUS
10
126.356
20
-133.038
11
126.356
21
-132.562
0
LINE
8
BLACK
6
CONTINUOUS
10
126.356
20
-132.562
11
126.451
21
-132.181
0
LINE
8
BLACK
6
CONTINUOUS
10
126.451
20
-132.181
11
126.546
21
-131.99
0
LINE
8
BLACK
6
CONTINUOUS
10
126.546
20
-131.99
11
126.642
21
-131.895
0
LINE
8
BLACK
6
CONTINUOUS
10
126.642
20
-131.895
11
126.832
21
-131.8
0
LINE
8
BLACK
6
CONTINUOUS
10
128.356
20
-133.609
11
128.451
21
-133.705
0
LINE
8
BLACK
6
CONTINUOUS
10
128.451
20
-133.705
11
128.356
21
-133.8
0
LINE
8
BLACK
6
CONTINUOUS
10
128.356
20
-133.8
11
128.261
21
-133.705
0
LINE
8
BLACK
6
CONTINUOUS
10
128.261
20
-133.705
11
128.356
21
-133.609
0
LINE
8
BLACK
6
CONTINUOUS
10
128.356
20
-133.609
11
128.356
21
-133.8
0
LINE
8
BLACK
6
CONTINUOUS
10
130.261
20
-131.8
11
129.308
21
-131.8
0
LINE
8
BLACK
6
CONTINUOUS
10
129.308
20
-131.8
11
129.213
21
-132.752
0
LINE
8
BLACK
6
CONTINUOUS
10
129.213
20
-132.752
11
129.308
21
-132.657
0
LINE
8
BLACK
6
CONTINUOUS
10
129.308
20
-132.657
11
129.499
21
-132.562
0
LINE
8
BLACK
6
CONTINUOUS
10
129.499
20
-132.562
11
129.975
21
-132.562
0
LINE
8
BLACK
6
CONTINUOUS
10
129.975
20
-132.562
11
130.165
21
-132.657
0
LINE
8
BLACK
6
CONTINUOUS
10
130.165
20
-132.657
11
130.261
21
-132.752
0
LINE
8
BLACK
6
CONTINUOUS
10
130.261
20
-132.752
11
130.356
21
-132.943
0
LINE
8
BLACK
6
CONTINUOUS
10
130.356
20
-132.943
11
130.356
21
-133.419
0
LINE
8
BLACK
6
CONTINUOUS
10
130.356
20
-133.419
11
130.261
21
-133.609
0
LINE
8
BLACK
6
CONTINUOUS
10
130.261
20
-133.609
11
130.165
21
-133.705
0
LINE
8
BLACK
6
CONTINUOUS
10
130.165
20
-133.705
11
129.975
21
-133.8
0
LINE
8
BLACK
6
CONTINUOUS
10
129.975
20
-133.8
11
129.499
21
-133.8
0
LINE
8
BLACK
6
CONTINUOUS
10
129.499
20
-133.8
11
129.308
21
-133.705
0
LINE
8
BLACK
6
CONTINUOUS
10
129.308
20
-133.705
11
129.213
21
-133.609
0
LINE
8
BLACK
6
CONTINUOUS
10
131.594
20
-131.8
11
131.785
21
-131.8
0
LINE
8
BLACK
6
CONTINUOUS
10
131.785
20
-131.8
11
131.975
21
-131.895
0
LINE
8
BLACK
6
CONTINUOUS
10
131.975
20
-131.895
11
132.07
21
-131.99
0
LINE
8
BLACK
6
CONTINUOUS
10
132.07
20
-131.99
11
132.165
21
-132.181
0
LINE
8
BLACK
6
CONTINUOUS
10
132.165
20
-132.181
11
132.261
21
-132.562
0
LINE
8
BLACK
6
CONTINUOUS
10
132.261
20
-132.562
11
132.261
21
-133.038
0
LINE
8
BLACK
6
CONTINUOUS
10
132.261
20
-133.038
11
132.165
21
-133.419
0
LINE
8
BLACK
6
CONTINUOUS
10
132.165
20
-133.419
11
132.07
21
-133.609
0
LINE
8
BLACK
6
CONTINUOUS
10
132.07
20
-133.609
11
131.975
21
-133.705
0
LINE
8
BLACK
6
CONTINUOUS
10
131.975
20
-133.705
11
131.785
21
-133.8
0
LINE
8
BLACK
6
CONTINUOUS
10
131.785
20
-133.8
11
131.594
21
-133.8
0
LINE
8
BLACK
6
CONTINUOUS
10
131.594
20
-133.8
11
131.404
21
-133.705
0
LINE
8
BLACK
6
CONTINUOUS
10
131.404
20
-133.705
11
131.308
21
-133.609
0
LINE
8
BLACK
6
CONTINUOUS
10
131.308
20
-133.609
11
131.213
21
-133.419
0
LINE
8
BLACK
6
CONTINUOUS
10
131.213
20
-133.419
11
131.118
21
-133.038
0
LINE
8
BLACK
6
CONTINUOUS
10
131.118
20
-133.038
11
131.118
21
-132.562
0
LINE
8
BLACK
6
CONTINUOUS
10
131.118
20
-132.562
11
131.213
21
-132.181
0
LINE
8
BLACK
6
CONTINUOUS
10
131.213
20
-132.181
11
131.308
21
-131.99
0
LINE
8
BLACK
6
CONTINUOUS
10
131.308
20
-131.99
11
131.404
21
-131.895
0
LINE
8
BLACK
6
CONTINUOUS
10
131.404
20
-131.895
11
131.594
21
-131.8
0
LINE
8
BLACK
6
CONTINUOUS
10
133.499
20
-131.8
11
133.689
21
-131.8
0
LINE
8
BLACK
6
CONTINUOUS
10
133.689
20
-131.8
11
133.88
21
-131.895
0
LINE
8
BLACK
6
CONTINUOUS
10
133.88
20
-131.895
11
133.975
21
-131.99
0
LINE
8
BLACK
6
CONTINUOUS
10
133.975
20
-131.99
11
134.07
21
-132.181
0
LINE
8
BLACK
6
CONTINUOUS
10
134.07
20
-132.181
11
134.165
21
-132.562
0
LINE
8
BLACK
6
CONTINUOUS
10
134.165
20
-132.562
11
134.165
21
-133.038
0
LINE
8
BLACK
6
CONTINUOUS
10
134.165
20
-133.038
11
134.07
21
-133.419
0
LINE
8
BLACK
6
CONTINUOUS
10
134.07
20
-133.419
11
133.975
21
-133.609
0
LINE
8
BLACK
6
CONTINUOUS
10
133.975
20
-133.609
11
133.88
21
-133.705
0
LINE
8
BLACK
6
CONTINUOUS
10
133.88
20
-133.705
11
133.689
21
-133.8
0
LINE
8
BLACK
6
CONTINUOUS
10
133.689
20
-133.8
11
133.499
21
-133.8
0
LINE
8
BLACK
6
CONTINUOUS
10
133.499
20
-133.8
11
133.308
21
-133.705
0
LINE
8
BLACK
6
CONTINUOUS
10
133.308
20
-133.705
11
133.213
21
-133.609
0
LINE
8
BLACK
6
CONTINUOUS
10
133.213
20
-133.609
11
133.118
21
-133.419
0
LINE
8
BLACK
6
CONTINUOUS
10
133.118
20
-133.419
11
133.023
21
-133.038
0
LINE
8
BLACK
6
CONTINUOUS
10
133.023
20
-133.038
11
133.023
21
-132.562
0
LINE
8
BLACK
6
CONTINUOUS
10
133.023
20
-132.562
11
133.118
21
-132.181
0
LINE
8
BLACK
6
CONTINUOUS
10
133.118
20
-132.181
11
133.213
21
-131.99
0
LINE
8
BLACK
6
CONTINUOUS
10
133.213
20
-131.99
11
133.308
21
-131.895
0
LINE
8
BLACK
6
CONTINUOUS
10
133.308
20
-131.895
11
133.499
21
-131.8
0
LINE
8
BLACK
6
CONTINUOUS
10
135.023
20
-133.8
11
135.023
21
-132.466
0
LINE
8
BLACK
6
CONTINUOUS
10
135.023
20
-132.657
11
135.118
21
-132.562
0
LINE
8
BLACK
6
CONTINUOUS
10
135.118
20
-132.562
11
135.308
21
-132.466
0
LINE
8
BLACK
6
CONTINUOUS
10
135.308
20
-132.466
11
135.594
21
-132.466
0
LINE
8
BLACK
6
CONTINUOUS
10
135.594
20
-132.466
11
135.785
21
-132.562
0
LINE
8
BLACK
6
CONTINUOUS
10
135.785
20
-132.562
11
135.88
21
-132.752
0
LINE
8
BLACK
6
CONTINUOUS
10
135.88
20
-132.752
11
135.88
21
-133.8
0
LINE
8
BLACK
6
CONTINUOUS
10
135.88
20
-132.752
11
135.975
21
-132.562
0
LINE
8
BLACK
6
CONTINUOUS
10
135.975
20
-132.562
11
136.165
21
-132.466
0
LINE
8
BLACK
6
CONTINUOUS
10
136.165
20
-132.466
11
136.451
21
-132.466
0
LINE
8
BLACK
6
CONTINUOUS
10
136.451
20
-132.466
11
136.642
21
-132.562
0
LINE
8
BLACK
6
CONTINUOUS
10
136.642
20
-132.562
11
136.737
21
-132.752
0
LINE
8
BLACK
6
CONTINUOUS
10
136.737
20
-132.752
11
136.737
21
-133.8
0
LINE
8
BLACK
6
CONTINUOUS
10
137.689
20
-133.8
11
137.689
21
-132.466
0
LINE
8
BLACK
6
CONTINUOUS
10
137.689
20
-132.657
11
137.785
21
-132.562
0
LINE
8
BLACK
6
CONTINUOUS
10
137.785
20
-132.562
11
137.975
21
-132.466
0
LINE
8
BLACK
6
CONTINUOUS
10
137.975
20
-132.466
11
138.261
21
-132.466
0
LINE
8
BLACK
6
CONTINUOUS
10
138.261
20
-132.466
11
138.451
21
-132.562
0
LINE
8
BLACK
6
CONTINUOUS
10
138.451
20
-132.562
11
138.546
21
-132.752
0
LINE
8
BLACK
6
CONTINUOUS
10
138.546
20
-132.752
11
138.546
21
-133.8
0
LINE
8
BLACK
6
CONTINUOUS
10
138.546
20
-132.752
11
138.642
21
-132.562
0
LINE
8
BLACK
6
CONTINUOUS
10
138.642
20
-132.562
11
138.832
21
-132.466
0
LINE
8
BLACK
6
CONTINUOUS
10
138.832
20
-132.466
11
139.118
21
-132.466
0
LINE
8
BLACK
6
CONTINUOUS
10
139.118
20
-132.466
11
139.308
21
-132.562
0
LINE
8
BLACK
6
CONTINUOUS
10
139.308
20
-132.562
11
139.404
21
-132.752
0
LINE
8
BLACK
6
CONTINUOUS
10
139.404
20
-132.752
11
139.404
21
-133.8
0
LINE
8
BLACK
6
CONTINUOUS
10
142.985
20
-131.705
11
141.27
21
-134.276
0
LINE
8
BLACK
6
CONTINUOUS
10
145.232
20
-131.8
11
145.423
21
-131.8
0
LINE
8
BLACK
6
CONTINUOUS
10
145.423
20
-131.8
11
145.613
21
-131.895
0
LINE
8
BLACK
6
CONTINUOUS
10
145.613
20
-131.895
11
145.708
21
-131.99
0
LINE
8
BLACK
6
CONTINUOUS
10
145.708
20
-131.99
11
145.804
21
-132.181
0
LINE
8
BLACK
6
CONTINUOUS
10
145.804
20
-132.181
11
145.899
21
-132.562
0
LINE
8
BLACK
6
CONTINUOUS
10
145.899
20
-132.562
11
145.899
21
-133.038
0
LINE
8
BLACK
6
CONTINUOUS
10
145.899
20
-133.038
11
145.804
21
-133.419
0
LINE
8
BLACK
6
CONTINUOUS
10
145.804
20
-133.419
11
145.708
21
-133.609
0
LINE
8
BLACK
6
CONTINUOUS
10
145.708
20
-133.609
11
145.613
21
-133.705
0
LINE
8
BLACK
6
CONTINUOUS
10
145.613
20
-133.705
11
145.423
21
-133.8
0
LINE
8
BLACK
6
CONTINUOUS
10
145.423
20
-133.8
11
145.232
21
-133.8
0
LINE
8
BLACK
6
CONTINUOUS
10
145.232
20
-133.8
11
145.042
21
-133.705
0
LINE
8
BLACK
6
CONTINUOUS
10
145.042
20
-133.705
11
144.946
21
-133.609
0
LINE
8
BLACK
6
CONTINUOUS
10
144.946
20
-133.609
11
144.851
21
-133.419
0
LINE
8
BLACK
6
CONTINUOUS
10
144.851
20
-133.419
11
144.756
21
-133.038
0
LINE
8
BLACK
6
CONTINUOUS
10
144.756
20
-133.038
11
144.756
21
-132.562
0
LINE
8
BLACK
6
CONTINUOUS
10
144.756
20
-132.562
11
144.851
21
-132.181
0
LINE
8
BLACK
6
CONTINUOUS
10
144.851
20
-132.181
11
144.946
21
-131.99
0
LINE
8
BLACK
6
CONTINUOUS
10
144.946
20
-131.99
11
145.042
21
-131.895
0
LINE
8
BLACK
6
CONTINUOUS
10
145.042
20
-131.895
11
145.232
21
-131.8
0
LINE
8
BLACK
6
CONTINUOUS
10
146.756
20
-133.609
11
146.851
21
-133.705
0
LINE
8
BLACK
6
CONTINUOUS
10
146.851
20
-133.705
11
146.756
21
-133.8
0
LINE
8
BLACK
6
CONTINUOUS
10
146.756
20
-133.8
11
146.661
21
-133.705
0
LINE
8
BLACK
6
CONTINUOUS
10
146.661
20
-133.705
11
146.756
21
-133.609
0
LINE
8
BLACK
6
CONTINUOUS
10
146.756
20
-133.609
11
146.756
21
-133.8
0
LINE
8
BLACK
6
CONTINUOUS
10
148.089
20
-131.8
11
148.28
21
-131.8
0
LINE
8
BLACK
6
CONTINUOUS
10
148.28
20
-131.8
11
148.47
21
-131.895
0
LINE
8
BLACK
6
CONTINUOUS
10
148.47
20
-131.895
11
148.565
21
-131.99
0
LINE
8
BLACK
6
CONTINUOUS
10
148.565
20
-131.99
11
148.661
21
-132.181
0
LINE
8
BLACK
6
CONTINUOUS
10
148.661
20
-132.181
11
148.756
21
-132.562
0
LINE
8
BLACK
6
CONTINUOUS
10
148.756
20
-132.562
11
148.756
21
-133.038
0
LINE
8
BLACK
6
CONTINUOUS
10
148.756
20
-133.038
11
148.661
21
-133.419
0
LINE
8
BLACK
6
CONTINUOUS
10
148.661
20
-133.419
11
148.565
21
-133.609
0
LINE
8
BLACK
6
CONTINUOUS
10
148.565
20
-133.609
11
148.47
21
-133.705
0
LINE
8
BLACK
6
CONTINUOUS
10
148.47
20
-133.705
11
148.28
21
-133.8
0
LINE
8
BLACK
6
CONTINUOUS
10
148.28
20
-133.8
11
148.089
21
-133.8
0
LINE
8
BLACK
6
CONTINUOUS
10
148.089
20
-133.8
11
147.899
21
-133.705
0
LINE
8
BLACK
6
CONTINUOUS
10
147.899
20
-133.705
11
147.804
21
-133.609
0
LINE
8
BLACK
6
CONTINUOUS
10
147.804
20
-133.609
11
147.708
21
-133.419
0
LINE
8
BLACK
6
CONTINUOUS
10
147.708
20
-133.419
11
147.613
21
-133.038
0
LINE
8
BLACK
6
CONTINUOUS
10
147.613
20
-133.038
11
147.613
21
-132.562
0
LINE
8
BLACK
6
CONTINUOUS
10
147.613
20
-132.562
11
147.708
21
-132.181
0
LINE
8
BLACK
6
CONTINUOUS
10
147.708
20
-132.181
11
147.804
21
-131.99
0
LINE
8
BLACK
6
CONTINUOUS
10
147.804
20
-131.99
11
147.899
21
-131.895
0
LINE
8
BLACK
6
CONTINUOUS
10
147.899
20
-131.895
11
148.089
21
-131.8
0
LINE
8
BLACK
6
CONTINUOUS
10
150.661
20
-133.8
11
149.518
21
-133.8
0
LINE
8
BLACK
6
CONTINUOUS
10
150.089
20
-133.8
11
150.089
21
-131.8
0
LINE
8
BLACK
6
CONTINUOUS
10
150.089
20
-131.8
11
149.899
21
-132.085
0
LINE
8
BLACK
6
CONTINUOUS
10
149.899
20
-132.085
11
149.708
21
-132.276
0
LINE
8
BLACK
6
CONTINUOUS
10
149.708
20
-132.276
11
149.518
21
-132.371
0
LINE
8
BLACK
6
CONTINUOUS
10
151.613
20
-133.8
11
151.994
21
-133.8
0
LINE
8
BLACK
6
CONTINUOUS
10
151.994
20
-133.8
11
152.185
21
-133.705
0
LINE
8
BLACK
6
CONTINUOUS
10
152.185
20
-133.705
11
152.28
21
-133.609
0
LINE
8
BLACK
6
CONTINUOUS
10
152.28
20
-133.609
11
152.47
21
-133.324
0
LINE
8
BLACK
6
CONTINUOUS
10
152.47
20
-133.324
11
152.565
21
-132.943
0
LINE
8
BLACK
6
CONTINUOUS
10
152.565
20
-132.943
11
152.565
21
-132.181
0
LINE
8
BLACK
6
CONTINUOUS
10
152.565
20
-132.181
11
152.47
21
-131.99
0
LINE
8
BLACK
6
CONTINUOUS
10
152.47
20
-131.99
11
152.375
21
-131.895
0
LINE
8
BLACK
6
CONTINUOUS
10
152.375
20
-131.895
11
152.185
21
-131.8
0
LINE
8
BLACK
6
CONTINUOUS
10
152.185
20
-131.8
11
151.804
21
-131.8
0
LINE
8
BLACK
6
CONTINUOUS
10
151.804
20
-131.8
11
151.613
21
-131.895
0
LINE
8
BLACK
6
CONTINUOUS
10
151.613
20
-131.895
11
151.518
21
-131.99
0
LINE
8
BLACK
6
CONTINUOUS
10
151.518
20
-131.99
11
151.423
21
-132.181
0
LINE
8
BLACK
6
CONTINUOUS
10
151.423
20
-132.181
11
151.423
21
-132.657
0
LINE
8
BLACK
6
CONTINUOUS
10
151.423
20
-132.657
11
151.518
21
-132.847
0
LINE
8
BLACK
6
CONTINUOUS
10
151.518
20
-132.847
11
151.613
21
-132.943
0
LINE
8
BLACK
6
CONTINUOUS
10
151.613
20
-132.943
11
151.804
21
-133.038
0
LINE
8
BLACK
6
CONTINUOUS
10
151.804
20
-133.038
11
152.185
21
-133.038
0
LINE
8
BLACK
6
CONTINUOUS
10
152.185
20
-133.038
11
152.375
21
-132.943
0
LINE
8
BLACK
6
CONTINUOUS
10
152.375
20
-132.943
11
152.47
21
-132.847
0
LINE
8
BLACK
6
CONTINUOUS
10
152.47
20
-132.847
11
152.565
21
-132.657
0
LINE
8
BLACK
6
CONTINUOUS
10
153.232
20
-131.8
11
154.565
21
-131.8
0
LINE
8
BLACK
6
CONTINUOUS
10
154.565
20
-131.8
11
153.708
21
-133.8
0
LINE
8
BLACK
6
CONTINUOUS
10
155.232
20
-131.8
11
155.232
21
-132.181
0
LINE
8
BLACK
6
CONTINUOUS
10
155.994
20
-131.8
11
155.994
21
-132.181
0
LINE
8
BLACK
6
CONTINUOUS
10
158.623
20
-134.562
11
158.527
21
-134.466
0
LINE
8
BLACK
6
CONTINUOUS
10
158.527
20
-134.466
11
158.337
21
-134.181
0
LINE
8
BLACK
6
CONTINUOUS
10
158.337
20
-134.181
11
158.242
21
-133.99
0
LINE
8
BLACK
6
CONTINUOUS
10
158.242
20
-133.99
11
158.146
21
-133.705
0
LINE
8
BLACK
6
CONTINUOUS
10
158.146
20
-133.705
11
158.051
21
-133.228
0
LINE
8
BLACK
6
CONTINUOUS
10
158.051
20
-133.228
11
158.051
21
-132.847
0
LINE
8
BLACK
6
CONTINUOUS
10
158.051
20
-132.847
11
158.146
21
-132.371
0
LINE
8
BLACK
6
CONTINUOUS
10
158.146
20
-132.371
11
158.242
21
-132.085
0
LINE
8
BLACK
6
CONTINUOUS
10
158.242
20
-132.085
11
158.337
21
-131.895
0
LINE
8
BLACK
6
CONTINUOUS
10
158.337
20
-131.895
11
158.527
21
-131.609
0
LINE
8
BLACK
6
CONTINUOUS
10
158.527
20
-131.609
11
158.623
21
-131.514
0
LINE
8
BLACK
6
CONTINUOUS
10
159.194
20
-131.8
11
160.432
21
-131.8
0
LINE
8
BLACK
6
CONTINUOUS
10
160.432
20
-131.8
11
159.765
21
-132.562
0
LINE
8
BLACK
6
CONTINUOUS
10
159.765
20
-132.562
11
160.051
21
-132.562
0
LINE
8
BLACK
6
CONTINUOUS
10
160.051
20
-132.562
11
160.242
21
-132.657
0
LINE
8
BLACK
6
CONTINUOUS
10
160.242
20
-132.657
11
160.337
21
-132.752
0
LINE
8
BLACK
6
CONTINUOUS
10
160.337
20
-132.752
11
160.432
21
-132.943
0
LINE
8
BLACK
6
CONTINUOUS
10
160.432
20
-132.943
11
160.432
21
-133.419
0
LINE
8
BLACK
6
CONTINUOUS
10
160.432
20
-133.419
11
160.337
21
-133.609
0
LINE
8
BLACK
6
CONTINUOUS
10
160.337
20
-133.609
11
160.242
21
-133.705
0
LINE
8
BLACK
6
CONTINUOUS
10
160.242
20
-133.705
11
160.051
21
-133.8
0
LINE
8
BLACK
6
CONTINUOUS
10
160.051
20
-133.8
11
159.48
21
-133.8
0
LINE
8
BLACK
6
CONTINUOUS
10
159.48
20
-133.8
11
159.289
21
-133.705
0
LINE
8
BLACK
6
CONTINUOUS
10
159.289
20
-133.705
11
159.194
21
-133.609
0
LINE
8
BLACK
6
CONTINUOUS
10
161.194
20
-131.99
11
161.289
21
-131.895
0
LINE
8
BLACK
6
CONTINUOUS
10
161.289
20
-131.895
11
161.48
21
-131.8
0
LINE
8
BLACK
6
CONTINUOUS
10
161.48
20
-131.8
11
161.956
21
-131.8
0
LINE
8
BLACK
6
CONTINUOUS
10
161.956
20
-131.8
11
162.146
21
-131.895
0
LINE
8
BLACK
6
CONTINUOUS
10
162.146
20
-131.895
11
162.242
21
-131.99
0
LINE
8
BLACK
6
CONTINUOUS
10
162.242
20
-131.99
11
162.337
21
-132.181
0
LINE
8
BLACK
6
CONTINUOUS
10
162.337
20
-132.181
11
162.337
21
-132.371
0
LINE
8
BLACK
6
CONTINUOUS
10
162.337
20
-132.371
11
162.242
21
-132.657
0
LINE
8
BLACK
6
CONTINUOUS
10
162.242
20
-132.657
11
161.099
21
-133.8
0
LINE
8
BLACK
6
CONTINUOUS
10
161.099
20
-133.8
11
162.337
21
-133.8
0
LINE
8
BLACK
6
CONTINUOUS
10
164.394
20
-133.8
11
164.394
21
-131.8
0
LINE
8
BLACK
6
CONTINUOUS
10
165.251
20
-133.8
11
165.251
21
-132.752
0
LINE
8
BLACK
6
CONTINUOUS
10
165.251
20
-132.752
11
165.156
21
-132.562
0
LINE
8
BLACK
6
CONTINUOUS
10
165.156
20
-132.562
11
164.965
21
-132.466
0
LINE
8
BLACK
6
CONTINUOUS
10
164.965
20
-132.466
11
164.68
21
-132.466
0
LINE
8
BLACK
6
CONTINUOUS
10
164.68
20
-132.466
11
164.489
21
-132.562
0
LINE
8
BLACK
6
CONTINUOUS
10
164.489
20
-132.562
11
164.394
21
-132.657
0
LINE
8
BLACK
6
CONTINUOUS
10
166.489
20
-133.8
11
166.299
21
-133.705
0
LINE
8
BLACK
6
CONTINUOUS
10
166.299
20
-133.705
11
166.204
21
-133.609
0
LINE
8
BLACK
6
CONTINUOUS
10
166.204
20
-133.609
11
166.108
21
-133.419
0
LINE
8
BLACK
6
CONTINUOUS
10
166.108
20
-133.419
11
166.108
21
-132.847
0
LINE
8
BLACK
6
CONTINUOUS
10
166.108
20
-132.847
11
166.204
21
-132.657
0
LINE
8
BLACK
6
CONTINUOUS
10
166.204
20
-132.657
11
166.299
21
-132.562
0
LINE
8
BLACK
6
CONTINUOUS
10
166.299
20
-132.562
11
166.489
21
-132.466
0
LINE
8
BLACK
6
CONTINUOUS
10
166.489
20
-132.466
11
166.775
21
-132.466
0
LINE
8
BLACK
6
CONTINUOUS
10
166.775
20
-132.466
11
166.965
21
-132.562
0
LINE
8
BLACK
6
CONTINUOUS
10
166.965
20
-132.562
11
167.061
21
-132.657
0
LINE
8
BLACK
6
CONTINUOUS
10
167.061
20
-132.657
11
167.156
21
-132.847
0
LINE
8
BLACK
6
CONTINUOUS
10
167.156
20
-132.847
11
167.156
21
-133.419
0
LINE
8
BLACK
6
CONTINUOUS
10
167.156
20
-133.419
11
167.061
21
-133.609
0
LINE
8
BLACK
6
CONTINUOUS
10
167.061
20
-133.609
11
166.965
21
-133.705
0
LINE
8
BLACK
6
CONTINUOUS
10
166.965
20
-133.705
11
166.775
21
-133.8
0
LINE
8
BLACK
6
CONTINUOUS
10
166.775
20
-133.8
11
166.489
21
-133.8
0
LINE
8
BLACK
6
CONTINUOUS
10
168.299
20
-133.8
11
168.108
21
-133.705
0
LINE
8
BLACK
6
CONTINUOUS
10
168.108
20
-133.705
11
168.013
21
-133.514
0
LINE
8
BLACK
6
CONTINUOUS
10
168.013
20
-133.514
11
168.013
21
-131.8
0
LINE
8
BLACK
6
CONTINUOUS
10
169.823
20
-133.705
11
169.632
21
-133.8
0
LINE
8
BLACK
6
CONTINUOUS
10
169.632
20
-133.8
11
169.251
21
-133.8
0
LINE
8
BLACK
6
CONTINUOUS
10
169.251
20
-133.8
11
169.061
21
-133.705
0
LINE
8
BLACK
6
CONTINUOUS
10
169.061
20
-133.705
11
168.965
21
-133.514
0
LINE
8
BLACK
6
CONTINUOUS
10
168.965
20
-133.514
11
168.965
21
-132.752
0
LINE
8
BLACK
6
CONTINUOUS
10
168.965
20
-132.752
11
169.061
21
-132.562
0
LINE
8
BLACK
6
CONTINUOUS
10
169.061
20
-132.562
11
169.251
21
-132.466
0
LINE
8
BLACK
6
CONTINUOUS
10
169.251
20
-132.466
11
169.632
21
-132.466
0
LINE
8
BLACK
6
CONTINUOUS
10
169.632
20
-132.466
11
169.823
21
-132.562
0
LINE
8
BLACK
6
CONTINUOUS
10
169.823
20
-132.562
11
169.918
21
-132.752
0
LINE
8
BLACK
6
CONTINUOUS
10
169.918
20
-132.752
11
169.918
21
-132.943
0
LINE
8
BLACK
6
CONTINUOUS
10
169.918
20
-132.943
11
168.965
21
-133.133
0
LINE
8
BLACK
6
CONTINUOUS
10
170.68
20
-133.705
11
170.87
21
-133.8
0
LINE
8
BLACK
6
CONTINUOUS
10
170.87
20
-133.8
11
171.251
21
-133.8
0
LINE
8
BLACK
6
CONTINUOUS
10
171.251
20
-133.8
11
171.442
21
-133.705
0
LINE
8
BLACK
6
CONTINUOUS
10
171.442
20
-133.705
11
171.537
21
-133.514
0
LINE
8
BLACK
6
CONTINUOUS
10
171.537
20
-133.514
11
171.537
21
-133.419
0
LINE
8
BLACK
6
CONTINUOUS
10
171.537
20
-133.419
11
171.442
21
-133.228
0
LINE
8
BLACK
6
CONTINUOUS
10
171.442
20
-133.228
11
171.251
21
-133.133
0
LINE
8
BLACK
6
CONTINUOUS
10
171.251
20
-133.133
11
170.965
21
-133.133
0
LINE
8
BLACK
6
CONTINUOUS
10
170.965
20
-133.133
11
170.775
21
-133.038
0
LINE
8
BLACK
6
CONTINUOUS
10
170.775
20
-133.038
11
170.68
21
-132.847
0
LINE
8
BLACK
6
CONTINUOUS
10
170.68
20
-132.847
11
170.68
21
-132.752
0
LINE
8
BLACK
6
CONTINUOUS
10
170.68
20
-132.752
11
170.775
21
-132.562
0
LINE
8
BLACK
6
CONTINUOUS
10
170.775
20
-132.562
11
170.965
21
-132.466
0
LINE
8
BLACK
6
CONTINUOUS
10
170.965
20
-132.466
11
171.251
21
-132.466
0
LINE
8
BLACK
6
CONTINUOUS
10
171.251
20
-132.466
11
171.442
21
-132.562
0
LINE
8
BLACK
6
CONTINUOUS
10
172.204
20
-134.562
11
172.299
21
-134.466
0
LINE
8
BLACK
6
CONTINUOUS
10
172.299
20
-134.466
11
172.489
21
-134.181
0
LINE
8
BLACK
6
CONTINUOUS
10
172.489
20
-134.181
11
172.585
21
-133.99
0
LINE
8
BLACK
6
CONTINUOUS
10
172.585
20
-133.99
11
172.68
21
-133.705
0
LINE
8
BLACK
6
CONTINUOUS
10
172.68
20
-133.705
11
172.775
21
-133.228
0
LINE
8
BLACK
6
CONTINUOUS
10
172.775
20
-133.228
11
172.775
21
-132.847
0
LINE
8
BLACK
6
CONTINUOUS
10
172.775
20
-132.847
11
172.68
21
-132.371
0
LINE
8
BLACK
6
CONTINUOUS
10
172.68
20
-132.371
11
172.585
21
-132.085
0
LINE
8
BLACK
6
CONTINUOUS
10
172.585
20
-132.085
11
172.489
21
-131.895
0
LINE
8
BLACK
6
CONTINUOUS
10
172.489
20
-131.895
11
172.299
21
-131.609
0
LINE
8
BLACK
6
CONTINUOUS
10
172.299
20
-131.609
11
172.204
21
-131.514
0
LINE
8
BLACK
6
CONTINUOUS
10
123.675
20
-135.405
11
123.675
21
-136.005
0
LINE
8
BLACK
6
CONTINUOUS
10
123.375
20
-135.705
11
123.975
21
-135.705
0
LINE
8
BLACK
6
CONTINUOUS
10
126.832
20
-134.44
11
127.023
21
-134.44
0
LINE
8
BLACK
6
CONTINUOUS
10
127.023
20
-134.44
11
127.213
21
-134.535
0
LINE
8
BLACK
6
CONTINUOUS
10
127.213
20
-134.535
11
127.308
21
-134.63
0
LINE
8
BLACK
6
CONTINUOUS
10
127.308
20
-134.63
11
127.404
21
-134.821
0
LINE
8
BLACK
6
CONTINUOUS
10
127.404
20
-134.821
11
127.499
21
-135.202
0
LINE
8
BLACK
6
CONTINUOUS
10
127.499
20
-135.202
11
127.499
21
-135.678
0
LINE
8
BLACK
6
CONTINUOUS
10
127.499
20
-135.678
11
127.404
21
-136.059
0
LINE
8
BLACK
6
CONTINUOUS
10
127.404
20
-136.059
11
127.308
21
-136.249
0
LINE
8
BLACK
6
CONTINUOUS
10
127.308
20
-136.249
11
127.213
21
-136.345
0
LINE
8
BLACK
6
CONTINUOUS
10
127.213
20
-136.345
11
127.023
21
-136.44
0
LINE
8
BLACK
6
CONTINUOUS
10
127.023
20
-136.44
11
126.832
21
-136.44
0
LINE
8
BLACK
6
CONTINUOUS
10
126.832
20
-136.44
11
126.642
21
-136.345
0
LINE
8
BLACK
6
CONTINUOUS
10
126.642
20
-136.345
11
126.546
21
-136.249
0
LINE
8
BLACK
6
CONTINUOUS
10
126.546
20
-136.249
11
126.451
21
-136.059
0
LINE
8
BLACK
6
CONTINUOUS
10
126.451
20
-136.059
11
126.356
21
-135.678
0
LINE
8
BLACK
6
CONTINUOUS
10
126.356
20
-135.678
11
126.356
21
-135.202
0
LINE
8
BLACK
6
CONTINUOUS
10
126.356
20
-135.202
11
126.451
21
-134.821
0
LINE
8
BLACK
6
CONTINUOUS
10
126.451
20
-134.821
11
126.546
21
-134.63
0
LINE
8
BLACK
6
CONTINUOUS
10
126.546
20
-134.63
11
126.642
21
-134.535
0
LINE
8
BLACK
6
CONTINUOUS
10
126.642
20
-134.535
11
126.832
21
-134.44
0
LINE
8
BLACK
6
CONTINUOUS
10
128.356
20
-136.249
11
128.451
21
-136.345
0
LINE
8
BLACK
6
CONTINUOUS
10
128.451
20
-136.345
11
128.356
21
-136.44
0
LINE
8
BLACK
6
CONTINUOUS
10
128.356
20
-136.44
11
128.261
21
-136.345
0
LINE
8
BLACK
6
CONTINUOUS
10
128.261
20
-136.345
11
128.356
21
-136.249
0
LINE
8
BLACK
6
CONTINUOUS
10
128.356
20
-136.249
11
128.356
21
-136.44
0
LINE
8
BLACK
6
CONTINUOUS
10
130.165
20
-134.44
11
129.785
21
-134.44
0
LINE
8
BLACK
6
CONTINUOUS
10
129.785
20
-134.44
11
129.594
21
-134.535
0
LINE
8
BLACK
6
CONTINUOUS
10
129.594
20
-134.535
11
129.499
21
-134.63
0
LINE
8
BLACK
6
CONTINUOUS
10
129.499
20
-134.63
11
129.308
21
-134.916
0
LINE
8
BLACK
6
CONTINUOUS
10
129.308
20
-134.916
11
129.213
21
-135.297
0
LINE
8
BLACK
6
CONTINUOUS
10
129.213
20
-135.297
11
129.213
21
-136.059
0
LINE
8
BLACK
6
CONTINUOUS
10
129.213
20
-136.059
11
129.308
21
-136.249
0
LINE
8
BLACK
6
CONTINUOUS
10
129.308
20
-136.249
11
129.404
21
-136.345
0
LINE
8
BLACK
6
CONTINUOUS
10
129.404
20
-136.345
11
129.594
21
-136.44
0
LINE
8
BLACK
6
CONTINUOUS
10
129.594
20
-136.44
11
129.975
21
-136.44
0
LINE
8
BLACK
6
CONTINUOUS
10
129.975
20
-136.44
11
130.165
21
-136.345
0
LINE
8
BLACK
6
CONTINUOUS
10
130.165
20
-136.345
11
130.261
21
-136.249
0
LINE
8
BLACK
6
CONTINUOUS
10
130.261
20
-136.249
11
130.356
21
-136.059
0
LINE
8
BLACK
6
CONTINUOUS
10
130.356
20
-136.059
11
130.356
21
-135.583
0
LINE
8
BLACK
6
CONTINUOUS
10
130.356
20
-135.583
11
130.261
21
-135.392
0
LINE
8
BLACK
6
CONTINUOUS
10
130.261
20
-135.392
11
130.165
21
-135.297
0
LINE
8
BLACK
6
CONTINUOUS
10
130.165
20
-135.297
11
129.975
21
-135.202
0
LINE
8
BLACK
6
CONTINUOUS
10
129.975
20
-135.202
11
129.594
21
-135.202
0
LINE
8
BLACK
6
CONTINUOUS
10
129.594
20
-135.202
11
129.404
21
-135.297
0
LINE
8
BLACK
6
CONTINUOUS
10
129.404
20
-135.297
11
129.308
21
-135.392
0
LINE
8
BLACK
6
CONTINUOUS
10
129.308
20
-135.392
11
129.213
21
-135.583
0
LINE
8
BLACK
6
CONTINUOUS
10
131.594
20
-134.44
11
131.785
21
-134.44
0
LINE
8
BLACK
6
CONTINUOUS
10
131.785
20
-134.44
11
131.975
21
-134.535
0
LINE
8
BLACK
6
CONTINUOUS
10
131.975
20
-134.535
11
132.07
21
-134.63
0
LINE
8
BLACK
6
CONTINUOUS
10
132.07
20
-134.63
11
132.165
21
-134.821
0
LINE
8
BLACK
6
CONTINUOUS
10
132.165
20
-134.821
11
132.261
21
-135.202
0
LINE
8
BLACK
6
CONTINUOUS
10
132.261
20
-135.202
11
132.261
21
-135.678
0
LINE
8
BLACK
6
CONTINUOUS
10
132.261
20
-135.678
11
132.165
21
-136.059
0
LINE
8
BLACK
6
CONTINUOUS
10
132.165
20
-136.059
11
132.07
21
-136.249
0
LINE
8
BLACK
6
CONTINUOUS
10
132.07
20
-136.249
11
131.975
21
-136.345
0
LINE
8
BLACK
6
CONTINUOUS
10
131.975
20
-136.345
11
131.785
21
-136.44
0
LINE
8
BLACK
6
CONTINUOUS
10
131.785
20
-136.44
11
131.594
21
-136.44
0
LINE
8
BLACK
6
CONTINUOUS
10
131.594
20
-136.44
11
131.404
21
-136.345
0
LINE
8
BLACK
6
CONTINUOUS
10
131.404
20
-136.345
11
131.308
21
-136.249
0
LINE
8
BLACK
6
CONTINUOUS
10
131.308
20
-136.249
11
131.213
21
-136.059
0
LINE
8
BLACK
6
CONTINUOUS
10
131.213
20
-136.059
11
131.118
21
-135.678
0
LINE
8
BLACK
6
CONTINUOUS
10
131.118
20
-135.678
11
131.118
21
-135.202
0
LINE
8
BLACK
6
CONTINUOUS
10
131.118
20
-135.202
11
131.213
21
-134.821
0
LINE
8
BLACK
6
CONTINUOUS
10
131.213
20
-134.821
11
131.308
21
-134.63
0
LINE
8
BLACK
6
CONTINUOUS
10
131.308
20
-134.63
11
131.404
21
-134.535
0
LINE
8
BLACK
6
CONTINUOUS
10
131.404
20
-134.535
11
131.594
21
-134.44
0
LINE
8
BLACK
6
CONTINUOUS
10
133.499
20
-134.44
11
133.689
21
-134.44
0
LINE
8
BLACK
6
CONTINUOUS
10
133.689
20
-134.44
11
133.88
21
-134.535
0
LINE
8
BLACK
6
CONTINUOUS
10
133.88
20
-134.535
11
133.975
21
-134.63
0
LINE
8
BLACK
6
CONTINUOUS
10
133.975
20
-134.63
11
134.07
21
-134.821
0
LINE
8
BLACK
6
CONTINUOUS
10
134.07
20
-134.821
11
134.165
21
-135.202
0
LINE
8
BLACK
6
CONTINUOUS
10
134.165
20
-135.202
11
134.165
21
-135.678
0
LINE
8
BLACK
6
CONTINUOUS
10
134.165
20
-135.678
11
134.07
21
-136.059
0
LINE
8
BLACK
6
CONTINUOUS
10
134.07
20
-136.059
11
133.975
21
-136.249
0
LINE
8
BLACK
6
CONTINUOUS
10
133.975
20
-136.249
11
133.88
21
-136.345
0
LINE
8
BLACK
6
CONTINUOUS
10
133.88
20
-136.345
11
133.689
21
-136.44
0
LINE
8
BLACK
6
CONTINUOUS
10
133.689
20
-136.44
11
133.499
21
-136.44
0
LINE
8
BLACK
6
CONTINUOUS
10
133.499
20
-136.44
11
133.308
21
-136.345
0
LINE
8
BLACK
6
CONTINUOUS
10
133.308
20
-136.345
11
133.213
21
-136.249
0
LINE
8
BLACK
6
CONTINUOUS
10
133.213
20
-136.249
11
133.118
21
-136.059
0
LINE
8
BLACK
6
CONTINUOUS
10
133.118
20
-136.059
11
133.023
21
-135.678
0
LINE
8
BLACK
6
CONTINUOUS
10
133.023
20
-135.678
11
133.023
21
-135.202
0
LINE
8
BLACK
6
CONTINUOUS
10
133.023
20
-135.202
11
133.118
21
-134.821
0
LINE
8
BLACK
6
CONTINUOUS
10
133.118
20
-134.821
11
133.213
21
-134.63
0
LINE
8
BLACK
6
CONTINUOUS
10
133.213
20
-134.63
11
133.308
21
-134.535
0
LINE
8
BLACK
6
CONTINUOUS
10
133.308
20
-134.535
11
133.499
21
-134.44
0
LINE
8
BLACK
6
CONTINUOUS
10
135.023
20
-136.44
11
135.023
21
-135.106
0
LINE
8
BLACK
6
CONTINUOUS
10
135.023
20
-135.297
11
135.118
21
-135.202
0
LINE
8
BLACK
6
CONTINUOUS
10
135.118
20
-135.202
11
135.308
21
-135.106
0
LINE
8
BLACK
6
CONTINUOUS
10
135.308
20
-135.106
11
135.594
21
-135.106
0
LINE
8
BLACK
6
CONTINUOUS
10
135.594
20
-135.106
11
135.785
21
-135.202
0
LINE
8
BLACK
6
CONTINUOUS
10
135.785
20
-135.202
11
135.88
21
-135.392
0
LINE
8
BLACK
6
CONTINUOUS
10
135.88
20
-135.392
11
135.88
21
-136.44
0
LINE
8
BLACK
6
CONTINUOUS
10
135.88
20
-135.392
11
135.975
21
-135.202
0
LINE
8
BLACK
6
CONTINUOUS
10
135.975
20
-135.202
11
136.165
21
-135.106
0
LINE
8
BLACK
6
CONTINUOUS
10
136.165
20
-135.106
11
136.451
21
-135.106
0
LINE
8
BLACK
6
CONTINUOUS
10
136.451
20
-135.106
11
136.642
21
-135.202
0
LINE
8
BLACK
6
CONTINUOUS
10
136.642
20
-135.202
11
136.737
21
-135.392
0
LINE
8
BLACK
6
CONTINUOUS
10
136.737
20
-135.392
11
136.737
21
-136.44
0
LINE
8
BLACK
6
CONTINUOUS
10
137.689
20
-136.44
11
137.689
21
-135.106
0
LINE
8
BLACK
6
CONTINUOUS
10
137.689
20
-135.297
11
137.785
21
-135.202
0
LINE
8
BLACK
6
CONTINUOUS
10
137.785
20
-135.202
11
137.975
21
-135.106
0
LINE
8
BLACK
6
CONTINUOUS
10
137.975
20
-135.106
11
138.261
21
-135.106
0
LINE
8
BLACK
6
CONTINUOUS
10
138.261
20
-135.106
11
138.451
21
-135.202
0
LINE
8
BLACK
6
CONTINUOUS
10
138.451
20
-135.202
11
138.546
21
-135.392
0
LINE
8
BLACK
6
CONTINUOUS
10
138.546
20
-135.392
11
138.546
21
-136.44
0
LINE
8
BLACK
6
CONTINUOUS
10
138.546
20
-135.392
11
138.642
21
-135.202
0
LINE
8
BLACK
6
CONTINUOUS
10
138.642
20
-135.202
11
138.832
21
-135.106
0
LINE
8
BLACK
6
CONTINUOUS
10
138.832
20
-135.106
11
139.118
21
-135.106
0
LINE
8
BLACK
6
CONTINUOUS
10
139.118
20
-135.106
11
139.308
21
-135.202
0
LINE
8
BLACK
6
CONTINUOUS
10
139.308
20
-135.202
11
139.404
21
-135.392
0
LINE
8
BLACK
6
CONTINUOUS
10
139.404
20
-135.392
11
139.404
21
-136.44
0
LINE
8
BLACK
6
CONTINUOUS
10
142.985
20
-134.345
11
141.27
21
-136.916
0
LINE
8
BLACK
6
CONTINUOUS
10
145.232
20
-134.44
11
145.423
21
-134.44
0
LINE
8
BLACK
6
CONTINUOUS
10
145.423
20
-134.44
11
145.613
21
-134.535
0
LINE
8
BLACK
6
CONTINUOUS
10
145.613
20
-134.535
11
145.708
21
-134.63
0
LINE
8
BLACK
6
CONTINUOUS
10
145.708
20
-134.63
11
145.804
21
-134.821
0
LINE
8
BLACK
6
CONTINUOUS
10
145.804
20
-134.821
11
145.899
21
-135.202
0
LINE
8
BLACK
6
CONTINUOUS
10
145.899
20
-135.202
11
145.899
21
-135.678
0
LINE
8
BLACK
6
CONTINUOUS
10
145.899
20
-135.678
11
145.804
21
-136.059
0
LINE
8
BLACK
6
CONTINUOUS
10
145.804
20
-136.059
11
145.708
21
-136.249
0
LINE
8
BLACK
6
CONTINUOUS
10
145.708
20
-136.249
11
145.613
21
-136.345
0
LINE
8
BLACK
6
CONTINUOUS
10
145.613
20
-136.345
11
145.423
21
-136.44
0
LINE
8
BLACK
6
CONTINUOUS
10
145.423
20
-136.44
11
145.232
21
-136.44
0
LINE
8
BLACK
6
CONTINUOUS
10
145.232
20
-136.44
11
145.042
21
-136.345
0
LINE
8
BLACK
6
CONTINUOUS
10
145.042
20
-136.345
11
144.946
21
-136.249
0
LINE
8
BLACK
6
CONTINUOUS
10
144.946
20
-136.249
11
144.851
21
-136.059
0
LINE
8
BLACK
6
CONTINUOUS
10
144.851
20
-136.059
11
144.756
21
-135.678
0
LINE
8
BLACK
6
CONTINUOUS
10
144.756
20
-135.678
11
144.756
21
-135.202
0
LINE
8
BLACK
6
CONTINUOUS
10
144.756
20
-135.202
11
144.851
21
-134.821
0
LINE
8
BLACK
6
CONTINUOUS
10
144.851
20
-134.821
11
144.946
21
-134.63
0
LINE
8
BLACK
6
CONTINUOUS
10
144.946
20
-134.63
11
145.042
21
-134.535
0
LINE
8
BLACK
6
CONTINUOUS
10
145.042
20
-134.535
11
145.232
21
-134.44
0
LINE
8
BLACK
6
CONTINUOUS
10
146.756
20
-136.249
11
146.851
21
-136.345
0
LINE
8
BLACK
6
CONTINUOUS
10
146.851
20
-136.345
11
146.756
21
-136.44
0
LINE
8
BLACK
6
CONTINUOUS
10
146.756
20
-136.44
11
146.661
21
-136.345
0
LINE
8
BLACK
6
CONTINUOUS
10
146.661
20
-136.345
11
146.756
21
-136.249
0
LINE
8
BLACK
6
CONTINUOUS
10
146.756
20
-136.249
11
146.756
21
-136.44
0
LINE
8
BLACK
6
CONTINUOUS
10
148.089
20
-134.44
11
148.28
21
-134.44
0
LINE
8
BLACK
6
CONTINUOUS
10
148.28
20
-134.44
11
148.47
21
-134.535
0
LINE
8
BLACK
6
CONTINUOUS
10
148.47
20
-134.535
11
148.565
21
-134.63
0
LINE
8
BLACK
6
CONTINUOUS
10
148.565
20
-134.63
11
148.661
21
-134.821
0
LINE
8
BLACK
6
CONTINUOUS
10
148.661
20
-134.821
11
148.756
21
-135.202
0
LINE
8
BLACK
6
CONTINUOUS
10
148.756
20
-135.202
11
148.756
21
-135.678
0
LINE
8
BLACK
6
CONTINUOUS
10
148.756
20
-135.678
11
148.661
21
-136.059
0
LINE
8
BLACK
6
CONTINUOUS
10
148.661
20
-136.059
11
148.565
21
-136.249
0
LINE
8
BLACK
6
CONTINUOUS
10
148.565
20
-136.249
11
148.47
21
-136.345
0
LINE
8
BLACK
6
CONTINUOUS
10
148.47
20
-136.345
11
148.28
21
-136.44
0
LINE
8
BLACK
6
CONTINUOUS
10
148.28
20
-136.44
11
148.089
21
-136.44
0
LINE
8
BLACK
6
CONTINUOUS
10
148.089
20
-136.44
11
147.899
21
-136.345
0
LINE
8
BLACK
6
CONTINUOUS
10
147.899
20
-136.345
11
147.804
21
-136.249
0
LINE
8
BLACK
6
CONTINUOUS
10
147.804
20
-136.249
11
147.708
21
-136.059
0
LINE
8
BLACK
6
CONTINUOUS
10
147.708
20
-136.059
11
147.613
21
-135.678
0
LINE
8
BLACK
6
CONTINUOUS
10
147.613
20
-135.678
11
147.613
21
-135.202
0
LINE
8
BLACK
6
CONTINUOUS
10
147.613
20
-135.202
11
147.708
21
-134.821
0
LINE
8
BLACK
6
CONTINUOUS
10
147.708
20
-134.821
11
147.804
21
-134.63
0
LINE
8
BLACK
6
CONTINUOUS
10
147.804
20
-134.63
11
147.899
21
-134.535
0
LINE
8
BLACK
6
CONTINUOUS
10
147.899
20
-134.535
11
148.089
21
-134.44
0
LINE
8
BLACK
6
CONTINUOUS
10
149.518
20
-134.63
11
149.613
21
-134.535
0
LINE
8
BLACK
6
CONTINUOUS
10
149.613
20
-134.535
11
149.804
21
-134.44
0
LINE
8
BLACK
6
CONTINUOUS
10
149.804
20
-134.44
11
150.28
21
-134.44
0
LINE
8
BLACK
6
CONTINUOUS
10
150.28
20
-134.44
11
150.47
21
-134.535
0
LINE
8
BLACK
6
CONTINUOUS
10
150.47
20
-134.535
11
150.565
21
-134.63
0
LINE
8
BLACK
6
CONTINUOUS
10
150.565
20
-134.63
11
150.661
21
-134.821
0
LINE
8
BLACK
6
CONTINUOUS
10
150.661
20
-134.821
11
150.661
21
-135.011
0
LINE
8
BLACK
6
CONTINUOUS
10
150.661
20
-135.011
11
150.565
21
-135.297
0
LINE
8
BLACK
6
CONTINUOUS
10
150.565
20
-135.297
11
149.423
21
-136.44
0
LINE
8
BLACK
6
CONTINUOUS
10
149.423
20
-136.44
11
150.661
21
-136.44
0
LINE
8
BLACK
6
CONTINUOUS
10
151.327
20
-134.44
11
152.565
21
-134.44
0
LINE
8
BLACK
6
CONTINUOUS
10
152.565
20
-134.44
11
151.899
21
-135.202
0
LINE
8
BLACK
6
CONTINUOUS
10
151.899
20
-135.202
11
152.185
21
-135.202
0
LINE
8
BLACK
6
CONTINUOUS
10
152.185
20
-135.202
11
152.375
21
-135.297
0
LINE
8
BLACK
6
CONTINUOUS
10
152.375
20
-135.297
11
152.47
21
-135.392
0
LINE
8
BLACK
6
CONTINUOUS
10
152.47
20
-135.392
11
152.565
21
-135.583
0
LINE
8
BLACK
6
CONTINUOUS
10
152.565
20
-135.583
11
152.565
21
-136.059
0
LINE
8
BLACK
6
CONTINUOUS
10
152.565
20
-136.059
11
152.47
21
-136.249
0
LINE
8
BLACK
6
CONTINUOUS
10
152.47
20
-136.249
11
152.375
21
-136.345
0
LINE
8
BLACK
6
CONTINUOUS
10
152.375
20
-136.345
11
152.185
21
-136.44
0
LINE
8
BLACK
6
CONTINUOUS
10
152.185
20
-136.44
11
151.613
21
-136.44
0
LINE
8
BLACK
6
CONTINUOUS
10
151.613
20
-136.44
11
151.423
21
-136.345
0
LINE
8
BLACK
6
CONTINUOUS
10
151.423
20
-136.345
11
151.327
21
-136.249
0
LINE
8
BLACK
6
CONTINUOUS
10
154.28
20
-134.44
11
153.899
21
-134.44
0
LINE
8
BLACK
6
CONTINUOUS
10
153.899
20
-134.44
11
153.708
21
-134.535
0
LINE
8
BLACK
6
CONTINUOUS
10
153.708
20
-134.535
11
153.613
21
-134.63
0
LINE
8
BLACK
6
CONTINUOUS
10
153.613
20
-134.63
11
153.423
21
-134.916
0
LINE
8
BLACK
6
CONTINUOUS
10
153.423
20
-134.916
11
153.327
21
-135.297
0
LINE
8
BLACK
6
CONTINUOUS
10
153.327
20
-135.297
11
153.327
21
-136.059
0
LINE
8
BLACK
6
CONTINUOUS
10
153.327
20
-136.059
11
153.423
21
-136.249
0
LINE
8
BLACK
6
CONTINUOUS
10
153.423
20
-136.249
11
153.518
21
-136.345
0
LINE
8
BLACK
6
CONTINUOUS
10
153.518
20
-136.345
11
153.708
21
-136.44
0
LINE
8
BLACK
6
CONTINUOUS
10
153.708
20
-136.44
11
154.089
21
-136.44
0
LINE
8
BLACK
6
CONTINUOUS
10
154.089
20
-136.44
11
154.28
21
-136.345
0
LINE
8
BLACK
6
CONTINUOUS
10
154.28
20
-136.345
11
154.375
21
-136.249
0
LINE
8
BLACK
6
CONTINUOUS
10
154.375
20
-136.249
11
154.47
21
-136.059
0
LINE
8
BLACK
6
CONTINUOUS
10
154.47
20
-136.059
11
154.47
21
-135.583
0
LINE
8
BLACK
6
CONTINUOUS
10
154.47
20
-135.583
11
154.375
21
-135.392
0
LINE
8
BLACK
6
CONTINUOUS
10
154.375
20
-135.392
11
154.28
21
-135.297
0
LINE
8
BLACK
6
CONTINUOUS
10
154.28
20
-135.297
11
154.089
21
-135.202
0
LINE
8
BLACK
6
CONTINUOUS
10
154.089
20
-135.202
11
153.708
21
-135.202
0
LINE
8
BLACK
6
CONTINUOUS
10
153.708
20
-135.202
11
153.518
21
-135.297
0
LINE
8
BLACK
6
CONTINUOUS
10
153.518
20
-135.297
11
153.423
21
-135.392
0
LINE
8
BLACK
6
CONTINUOUS
10
153.423
20
-135.392
11
153.327
21
-135.583
0
LINE
8
BLACK
6
CONTINUOUS
10
155.232
20
-134.44
11
155.232
21
-134.821
0
LINE
8
BLACK
6
CONTINUOUS
10
155.994
20
-134.44
11
155.994
21
-134.821
0
LINE
8
BLACK
6
CONTINUOUS
10
158.623
20
-137.202
11
158.527
21
-137.106
0
LINE
8
BLACK
6
CONTINUOUS
10
158.527
20
-137.106
11
158.337
21
-136.821
0
LINE
8
BLACK
6
CONTINUOUS
10
158.337
20
-136.821
11
158.242
21
-136.63
0
LINE
8
BLACK
6
CONTINUOUS
10
158.242
20
-136.63
11
158.146
21
-136.345
0
LINE
8
BLACK
6
CONTINUOUS
10
158.146
20
-136.345
11
158.051
21
-135.868
0
LINE
8
BLACK
6
CONTINUOUS
10
158.051
20
-135.868
11
158.051
21
-135.487
0
LINE
8
BLACK
6
CONTINUOUS
10
158.051
20
-135.487
11
158.146
21
-135.011
0
LINE
8
BLACK
6
CONTINUOUS
10
158.146
20
-135.011
11
158.242
21
-134.725
0
LINE
8
BLACK
6
CONTINUOUS
10
158.242
20
-134.725
11
158.337
21
-134.535
0
LINE
8
BLACK
6
CONTINUOUS
10
158.337
20
-134.535
11
158.527
21
-134.249
0
LINE
8
BLACK
6
CONTINUOUS
10
158.527
20
-134.249
11
158.623
21
-134.154
0
LINE
8
BLACK
6
CONTINUOUS
10
159.289
20
-134.63
11
159.385
21
-134.535
0
LINE
8
BLACK
6
CONTINUOUS
10
159.385
20
-134.535
11
159.575
21
-134.44
0
LINE
8
BLACK
6
CONTINUOUS
10
159.575
20
-134.44
11
160.051
21
-134.44
0
LINE
8
BLACK
6
CONTINUOUS
10
160.051
20
-134.44
11
160.242
21
-134.535
0
LINE
8
BLACK
6
CONTINUOUS
10
160.242
20
-134.535
11
160.337
21
-134.63
0
LINE
8
BLACK
6
CONTINUOUS
10
160.337
20
-134.63
11
160.432
21
-134.821
0
LINE
8
BLACK
6
CONTINUOUS
10
160.432
20
-134.821
11
160.432
21
-135.011
0
LINE
8
BLACK
6
CONTINUOUS
10
160.432
20
-135.011
11
160.337
21
-135.297
0
LINE
8
BLACK
6
CONTINUOUS
10
160.337
20
-135.297
11
159.194
21
-136.44
0
LINE
8
BLACK
6
CONTINUOUS
10
159.194
20
-136.44
11
160.432
21
-136.44
0
LINE
8
BLACK
6
CONTINUOUS
10
162.489
20
-136.44
11
162.489
21
-134.44
0
LINE
8
BLACK
6
CONTINUOUS
10
163.346
20
-136.44
11
163.346
21
-135.392
0
LINE
8
BLACK
6
CONTINUOUS
10
163.346
20
-135.392
11
163.251
21
-135.202
0
LINE
8
BLACK
6
CONTINUOUS
10
163.251
20
-135.202
11
163.061
21
-135.106
0
LINE
8
BLACK
6
CONTINUOUS
10
163.061
20
-135.106
11
162.775
21
-135.106
0
LINE
8
BLACK
6
CONTINUOUS
10
162.775
20
-135.106
11
162.585
21
-135.202
0
LINE
8
BLACK
6
CONTINUOUS
10
162.585
20
-135.202
11
162.489
21
-135.297
0
LINE
8
BLACK
6
CONTINUOUS
10
164.585
20
-136.44
11
164.394
21
-136.345
0
LINE
8
BLACK
6
CONTINUOUS
10
164.394
20
-136.345
11
164.299
21
-136.249
0
LINE
8
BLACK
6
CONTINUOUS
10
164.299
20
-136.249
11
164.204
21
-136.059
0
LINE
8
BLACK
6
CONTINUOUS
10
164.204
20
-136.059
11
164.204
21
-135.487
0
LINE
8
BLACK
6
CONTINUOUS
10
164.204
20
-135.487
11
164.299
21
-135.297
0
LINE
8
BLACK
6
CONTINUOUS
10
164.299
20
-135.297
11
164.394
21
-135.202
0
LINE
8
BLACK
6
CONTINUOUS
10
164.394
20
-135.202
11
164.585
21
-135.106
0
LINE
8
BLACK
6
CONTINUOUS
10
164.585
20
-135.106
11
164.87
21
-135.106
0
LINE
8
BLACK
6
CONTINUOUS
10
164.87
20
-135.106
11
165.061
21
-135.202
0
LINE
8
BLACK
6
CONTINUOUS
10
165.061
20
-135.202
11
165.156
21
-135.297
0
LINE
8
BLACK
6
CONTINUOUS
10
165.156
20
-135.297
11
165.251
21
-135.487
0
LINE
8
BLACK
6
CONTINUOUS
10
165.251
20
-135.487
11
165.251
21
-136.059
0
LINE
8
BLACK
6
CONTINUOUS
10
165.251
20
-136.059
11
165.156
21
-136.249
0
LINE
8
BLACK
6
CONTINUOUS
10
165.156
20
-136.249
11
165.061
21
-136.345
0
LINE
8
BLACK
6
CONTINUOUS
10
165.061
20
-136.345
11
164.87
21
-136.44
0
LINE
8
BLACK
6
CONTINUOUS
10
164.87
20
-136.44
11
164.585
21
-136.44
0
LINE
8
BLACK
6
CONTINUOUS
10
166.394
20
-136.44
11
166.204
21
-136.345
0
LINE
8
BLACK
6
CONTINUOUS
10
166.204
20
-136.345
11
166.108
21
-136.154
0
LINE
8
BLACK
6
CONTINUOUS
10
166.108
20
-136.154
11
166.108
21
-134.44
0
LINE
8
BLACK
6
CONTINUOUS
10
167.918
20
-136.345
11
167.727
21
-136.44
0
LINE
8
BLACK
6
CONTINUOUS
10
167.727
20
-136.44
11
167.346
21
-136.44
0
LINE
8
BLACK
6
CONTINUOUS
10
167.346
20
-136.44
11
167.156
21
-136.345
0
LINE
8
BLACK
6
CONTINUOUS
10
167.156
20
-136.345
11
167.061
21
-136.154
0
LINE
8
BLACK
6
CONTINUOUS
10
167.061
20
-136.154
11
167.061
21
-135.392
0
LINE
8
BLACK
6
CONTINUOUS
10
167.061
20
-135.392
11
167.156
21
-135.202
0
LINE
8
BLACK
6
CONTINUOUS
10
167.156
20
-135.202
11
167.346
21
-135.106
0
LINE
8
BLACK
6
CONTINUOUS
10
167.346
20
-135.106
11
167.727
21
-135.106
0
LINE
8
BLACK
6
CONTINUOUS
10
167.727
20
-135.106
11
167.918
21
-135.202
0
LINE
8
BLACK
6
CONTINUOUS
10
167.918
20
-135.202
11
168.013
21
-135.392
0
LINE
8
BLACK
6
CONTINUOUS
10
168.013
20
-135.392
11
168.013
21
-135.583
0
LINE
8
BLACK
6
CONTINUOUS
10
168.013
20
-135.583
11
167.061
21
-135.773
0
LINE
8
BLACK
6
CONTINUOUS
10
168.775
20
-136.345
11
168.965
21
-136.44
0
LINE
8
BLACK
6
CONTINUOUS
10
168.965
20
-136.44
11
169.346
21
-136.44
0
LINE
8
BLACK
6
CONTINUOUS
10
169.346
20
-136.44
11
169.537
21
-136.345
0
LINE
8
BLACK
6
CONTINUOUS
10
169.537
20
-136.345
11
169.632
21
-136.154
0
LINE
8
BLACK
6
CONTINUOUS
10
169.632
20
-136.154
11
169.632
21
-136.059
0
LINE
8
BLACK
6
CONTINUOUS
10
169.632
20
-136.059
11
169.537
21
-135.868
0
LINE
8
BLACK
6
CONTINUOUS
10
169.537
20
-135.868
11
169.346
21
-135.773
0
LINE
8
BLACK
6
CONTINUOUS
10
169.346
20
-135.773
11
169.061
21
-135.773
0
LINE
8
BLACK
6
CONTINUOUS
10
169.061
20
-135.773
11
168.87
21
-135.678
0
LINE
8
BLACK
6
CONTINUOUS
10
168.87
20
-135.678
11
168.775
21
-135.487
0
LINE
8
BLACK
6
CONTINUOUS
10
168.775
20
-135.487
11
168.775
21
-135.392
0
LINE
8
BLACK
6
CONTINUOUS
10
168.775
20
-135.392
11
168.87
21
-135.202
0
LINE
8
BLACK
6
CONTINUOUS
10
168.87
20
-135.202
11
169.061
21
-135.106
0
LINE
8
BLACK
6
CONTINUOUS
10
169.061
20
-135.106
11
169.346
21
-135.106
0
LINE
8
BLACK
6
CONTINUOUS
10
169.346
20
-135.106
11
169.537
21
-135.202
0
LINE
8
BLACK
6
CONTINUOUS
10
170.299
20
-137.202
11
170.394
21
-137.106
0
LINE
8
BLACK
6
CONTINUOUS
10
170.394
20
-137.106
11
170.585
21
-136.821
0
LINE
8
BLACK
6
CONTINUOUS
10
170.585
20
-136.821
11
170.68
21
-136.63
0
LINE
8
BLACK
6
CONTINUOUS
10
170.68
20
-136.63
11
170.775
21
-136.345
0
LINE
8
BLACK
6
CONTINUOUS
10
170.775
20
-136.345
11
170.87
21
-135.868
0
LINE
8
BLACK
6
CONTINUOUS
10
170.87
20
-135.868
11
170.87
21
-135.487
0
LINE
8
BLACK
6
CONTINUOUS
10
170.87
20
-135.487
11
170.775
21
-135.011
0
LINE
8
BLACK
6
CONTINUOUS
10
170.775
20
-135.011
11
170.68
21
-134.725
0
LINE
8
BLACK
6
CONTINUOUS
10
170.68
20
-134.725
11
170.585
21
-134.535
0
LINE
8
BLACK
6
CONTINUOUS
10
170.585
20
-134.535
11
170.394
21
-134.249
0
LINE
8
BLACK
6
CONTINUOUS
10
170.394
20
-134.249
11
170.299
21
-134.154
0
LINE
8
BLACK
6
CONTINUOUS
10
123.858
20
-138.628
11
123.858
21
-138.062
0
LINE
8
BLACK
6
CONTINUOUS
10
123.858
20
-138.062
11
123.292
21
-138.062
0
LINE
8
BLACK
6
CONTINUOUS
10
123.292
20
-138.062
11
123.292
21
-138.628
0
LINE
8
BLACK
6
CONTINUOUS
10
123.292
20
-138.628
11
123.858
21
-138.628
0
LINE
8
BLACK
6
CONTINUOUS
10
126.832
20
-137.08
11
127.023
21
-137.08
0
LINE
8
BLACK
6
CONTINUOUS
10
127.023
20
-137.08
11
127.213
21
-137.175
0
LINE
8
BLACK
6
CONTINUOUS
10
127.213
20
-137.175
11
127.308
21
-137.27
0
LINE
8
BLACK
6
CONTINUOUS
10
127.308
20
-137.27
11
127.404
21
-137.461
0
LINE
8
BLACK
6
CONTINUOUS
10
127.404
20
-137.461
11
127.499
21
-137.842
0
LINE
8
BLACK
6
CONTINUOUS
10
127.499
20
-137.842
11
127.499
21
-138.318
0
LINE
8
BLACK
6
CONTINUOUS
10
127.499
20
-138.318
11
127.404
21
-138.699
0
LINE
8
BLACK
6
CONTINUOUS
10
127.404
20
-138.699
11
127.308
21
-138.889
0
LINE
8
BLACK
6
CONTINUOUS
10
127.308
20
-138.889
11
127.213
21
-138.985
0
LINE
8
BLACK
6
CONTINUOUS
10
127.213
20
-138.985
11
127.023
21
-139.08
0
LINE
8
BLACK
6
CONTINUOUS
10
127.023
20
-139.08
11
126.832
21
-139.08
0
LINE
8
BLACK
6
CONTINUOUS
10
126.832
20
-139.08
11
126.642
21
-138.985
0
LINE
8
BLACK
6
CONTINUOUS
10
126.642
20
-138.985
11
126.546
21
-138.889
0
LINE
8
BLACK
6
CONTINUOUS
10
126.546
20
-138.889
11
126.451
21
-138.699
0
LINE
8
BLACK
6
CONTINUOUS
10
126.451
20
-138.699
11
126.356
21
-138.318
0
LINE
8
BLACK
6
CONTINUOUS
10
126.356
20
-138.318
11
126.356
21
-137.842
0
LINE
8
BLACK
6
CONTINUOUS
10
126.356
20
-137.842
11
126.451
21
-137.461
0
LINE
8
BLACK
6
CONTINUOUS
10
126.451
20
-137.461
11
126.546
21
-137.27
0
LINE
8
BLACK
6
CONTINUOUS
10
126.546
20
-137.27
11
126.642
21
-137.175
0
LINE
8
BLACK
6
CONTINUOUS
10
126.642
20
-137.175
11
126.832
21
-137.08
0
LINE
8
BLACK
6
CONTINUOUS
10
128.356
20
-138.889
11
128.451
21
-138.985
0
LINE
8
BLACK
6
CONTINUOUS
10
128.451
20
-138.985
11
128.356
21
-139.08
0
LINE
8
BLACK
6
CONTINUOUS
10
128.356
20
-139.08
11
128.261
21
-138.985
0
LINE
8
BLACK
6
CONTINUOUS
10
128.261
20
-138.985
11
128.356
21
-138.889
0
LINE
8
BLACK
6
CONTINUOUS
10
128.356
20
-138.889
11
128.356
21
-139.08
0
LINE
8
BLACK
6
CONTINUOUS
10
129.594
20
-137.937
11
129.404
21
-137.842
0
LINE
8
BLACK
6
CONTINUOUS
10
129.404
20
-137.842
11
129.308
21
-137.746
0
LINE
8
BLACK
6
CONTINUOUS
10
129.308
20
-137.746
11
129.213
21
-137.556
0
LINE
8
BLACK
6
CONTINUOUS
10
129.213
20
-137.556
11
129.213
21
-137.461
0
LINE
8
BLACK
6
CONTINUOUS
10
129.213
20
-137.461
11
129.308
21
-137.27
0
LINE
8
BLACK
6
CONTINUOUS
10
129.308
20
-137.27
11
129.404
21
-137.175
0
LINE
8
BLACK
6
CONTINUOUS
10
129.404
20
-137.175
11
129.594
21
-137.08
0
LINE
8
BLACK
6
CONTINUOUS
10
129.594
20
-137.08
11
129.975
21
-137.08
0
LINE
8
BLACK
6
CONTINUOUS
10
129.975
20
-137.08
11
130.165
21
-137.175
0
LINE
8
BLACK
6
CONTINUOUS
10
130.165
20
-137.175
11
130.261
21
-137.27
0
LINE
8
BLACK
6
CONTINUOUS
10
130.261
20
-137.27
11
130.356
21
-137.461
0
LINE
8
BLACK
6
CONTINUOUS
10
130.356
20
-137.461
11
130.356
21
-137.556
0
LINE
8
BLACK
6
CONTINUOUS
10
130.356
20
-137.556
11
130.261
21
-137.746
0
LINE
8
BLACK
6
CONTINUOUS
10
130.261
20
-137.746
11
130.165
21
-137.842
0
LINE
8
BLACK
6
CONTINUOUS
10
130.165
20
-137.842
11
129.975
21
-137.937
0
LINE
8
BLACK
6
CONTINUOUS
10
129.975
20
-137.937
11
129.594
21
-137.937
0
LINE
8
BLACK
6
CONTINUOUS
10
129.594
20
-137.937
11
129.404
21
-138.032
0
LINE
8
BLACK
6
CONTINUOUS
10
129.404
20
-138.032
11
129.308
21
-138.127
0
LINE
8
BLACK
6
CONTINUOUS
10
129.308
20
-138.127
11
129.213
21
-138.318
0
LINE
8
BLACK
6
CONTINUOUS
10
129.213
20
-138.318
11
129.213
21
-138.699
0
LINE
8
BLACK
6
CONTINUOUS
10
129.213
20
-138.699
11
129.308
21
-138.889
0
LINE
8
BLACK
6
CONTINUOUS
10
129.308
20
-138.889
11
129.404
21
-138.985
0
LINE
8
BLACK
6
CONTINUOUS
10
129.404
20
-138.985
11
129.594
21
-139.08
0
LINE
8
BLACK
6
CONTINUOUS
10
129.594
20
-139.08
11
129.975
21
-139.08
0
LINE
8
BLACK
6
CONTINUOUS
10
129.975
20
-139.08
11
130.165
21
-138.985
0
LINE
8
BLACK
6
CONTINUOUS
10
130.165
20
-138.985
11
130.261
21
-138.889
0
LINE
8
BLACK
6
CONTINUOUS
10
130.261
20
-138.889
11
130.356
21
-138.699
0
LINE
8
BLACK
6
CONTINUOUS
10
130.356
20
-138.699
11
130.356
21
-138.318
0
LINE
8
BLACK
6
CONTINUOUS
10
130.356
20
-138.318
11
130.261
21
-138.127
0
LINE
8
BLACK
6
CONTINUOUS
10
130.261
20
-138.127
11
130.165
21
-138.032
0
LINE
8
BLACK
6
CONTINUOUS
10
130.165
20
-138.032
11
129.975
21
-137.937
0
LINE
8
BLACK
6
CONTINUOUS
10
131.594
20
-137.08
11
131.785
21
-137.08
0
LINE
8
BLACK
6
CONTINUOUS
10
131.785
20
-137.08
11
131.975
21
-137.175
0
LINE
8
BLACK
6
CONTINUOUS
10
131.975
20
-137.175
11
132.07
21
-137.27
0
LINE
8
BLACK
6
CONTINUOUS
10
132.07
20
-137.27
11
132.165
21
-137.461
0
LINE
8
BLACK
6
CONTINUOUS
10
132.165
20
-137.461
11
132.261
21
-137.842
0
LINE
8
BLACK
6
CONTINUOUS
10
132.261
20
-137.842
11
132.261
21
-138.318
0
LINE
8
BLACK
6
CONTINUOUS
10
132.261
20
-138.318
11
132.165
21
-138.699
0
LINE
8
BLACK
6
CONTINUOUS
10
132.165
20
-138.699
11
132.07
21
-138.889
0
LINE
8
BLACK
6
CONTINUOUS
10
132.07
20
-138.889
11
131.975
21
-138.985
0
LINE
8
BLACK
6
CONTINUOUS
10
131.975
20
-138.985
11
131.785
21
-139.08
0
LINE
8
BLACK
6
CONTINUOUS
10
131.785
20
-139.08
11
131.594
21
-139.08
0
LINE
8
BLACK
6
CONTINUOUS
10
131.594
20
-139.08
11
131.404
21
-138.985
0
LINE
8
BLACK
6
CONTINUOUS
10
131.404
20
-138.985
11
131.308
21
-138.889
0
LINE
8
BLACK
6
CONTINUOUS
10
131.308
20
-138.889
11
131.213
21
-138.699
0
LINE
8
BLACK
6
CONTINUOUS
10
131.213
20
-138.699
11
131.118
21
-138.318
0
LINE
8
BLACK
6
CONTINUOUS
10
131.118
20
-138.318
11
131.118
21
-137.842
0
LINE
8
BLACK
6
CONTINUOUS
10
131.118
20
-137.842
11
131.213
21
-137.461
0
LINE
8
BLACK
6
CONTINUOUS
10
131.213
20
-137.461
11
131.308
21
-137.27
0
LINE
8
BLACK
6
CONTINUOUS
10
131.308
20
-137.27
11
131.404
21
-137.175
0
LINE
8
BLACK
6
CONTINUOUS
10
131.404
20
-137.175
11
131.594
21
-137.08
0
LINE
8
BLACK
6
CONTINUOUS
10
133.499
20
-137.08
11
133.689
21
-137.08
0
LINE
8
BLACK
6
CONTINUOUS
10
133.689
20
-137.08
11
133.88
21
-137.175
0
LINE
8
BLACK
6
CONTINUOUS
10
133.88
20
-137.175
11
133.975
21
-137.27
0
LINE
8
BLACK
6
CONTINUOUS
10
133.975
20
-137.27
11
134.07
21
-137.461
0
LINE
8
BLACK
6
CONTINUOUS
10
134.07
20
-137.461
11
134.165
21
-137.842
0
LINE
8
BLACK
6
CONTINUOUS
10
134.165
20
-137.842
11
134.165
21
-138.318
0
LINE
8
BLACK
6
CONTINUOUS
10
134.165
20
-138.318
11
134.07
21
-138.699
0
LINE
8
BLACK
6
CONTINUOUS
10
134.07
20
-138.699
11
133.975
21
-138.889
0
LINE
8
BLACK
6
CONTINUOUS
10
133.975
20
-138.889
11
133.88
21
-138.985
0
LINE
8
BLACK
6
CONTINUOUS
10
133.88
20
-138.985
11
133.689
21
-139.08
0
LINE
8
BLACK
6
CONTINUOUS
10
133.689
20
-139.08
11
133.499
21
-139.08
0
LINE
8
BLACK
6
CONTINUOUS
10
133.499
20
-139.08
11
133.308
21
-138.985
0
LINE
8
BLACK
6
CONTINUOUS
10
133.308
20
-138.985
11
133.213
21
-138.889
0
LINE
8
BLACK
6
CONTINUOUS
10
133.213
20
-138.889
11
133.118
21
-138.699
0
LINE
8
BLACK
6
CONTINUOUS
10
133.118
20
-138.699
11
133.023
21
-138.318
0
LINE
8
BLACK
6
CONTINUOUS
10
133.023
20
-138.318
11
133.023
21
-137.842
0
LINE
8
BLACK
6
CONTINUOUS
10
133.023
20
-137.842
11
133.118
21
-137.461
0
LINE
8
BLACK
6
CONTINUOUS
10
133.118
20
-137.461
11
133.213
21
-137.27
0
LINE
8
BLACK
6
CONTINUOUS
10
133.213
20
-137.27
11
133.308
21
-137.175
0
LINE
8
BLACK
6
CONTINUOUS
10
133.308
20
-137.175
11
133.499
21
-137.08
0
LINE
8
BLACK
6
CONTINUOUS
10
135.023
20
-139.08
11
135.023
21
-137.746
0
LINE
8
BLACK
6
CONTINUOUS
10
135.023
20
-137.937
11
135.118
21
-137.842
0
LINE
8
BLACK
6
CONTINUOUS
10
135.118
20
-137.842
11
135.308
21
-137.746
0
LINE
8
BLACK
6
CONTINUOUS
10
135.308
20
-137.746
11
135.594
21
-137.746
0
LINE
8
BLACK
6
CONTINUOUS
10
135.594
20
-137.746
11
135.785
21
-137.842
0
LINE
8
BLACK
6
CONTINUOUS
10
135.785
20
-137.842
11
135.88
21
-138.032
0
LINE
8
BLACK
6
CONTINUOUS
10
135.88
20
-138.032
11
135.88
21
-139.08
0
LINE
8
BLACK
6
CONTINUOUS
10
135.88
20
-138.032
11
135.975
21
-137.842
0
LINE
8
BLACK
6
CONTINUOUS
10
135.975
20
-137.842
11
136.165
21
-137.746
0
LINE
8
BLACK
6
CONTINUOUS
10
136.165
20
-137.746
11
136.451
21
-137.746
0
LINE
8
BLACK
6
CONTINUOUS
10
136.451
20
-137.746
11
136.642
21
-137.842
0
LINE
8
BLACK
6
CONTINUOUS
10
136.642
20
-137.842
11
136.737
21
-138.032
0
LINE
8
BLACK
6
CONTINUOUS
10
136.737
20
-138.032
11
136.737
21
-139.08
0
LINE
8
BLACK
6
CONTINUOUS
10
137.689
20
-139.08
11
137.689
21
-137.746
0
LINE
8
BLACK
6
CONTINUOUS
10
137.689
20
-137.937
11
137.785
21
-137.842
0
LINE
8
BLACK
6
CONTINUOUS
10
137.785
20
-137.842
11
137.975
21
-137.746
0
LINE
8
BLACK
6
CONTINUOUS
10
137.975
20
-137.746
11
138.261
21
-137.746
0
LINE
8
BLACK
6
CONTINUOUS
10
138.261
20
-137.746
11
138.451
21
-137.842
0
LINE
8
BLACK
6
CONTINUOUS
10
138.451
20
-137.842
11
138.546
21
-138.032
0
LINE
8
BLACK
6
CONTINUOUS
10
138.546
20
-138.032
11
138.546
21
-139.08
0
LINE
8
BLACK
6
CONTINUOUS
10
138.546
20
-138.032
11
138.642
21
-137.842
0
LINE
8
BLACK
6
CONTINUOUS
10
138.642
20
-137.842
11
138.832
21
-137.746
0
LINE
8
BLACK
6
CONTINUOUS
10
138.832
20
-137.746
11
139.118
21
-137.746
0
LINE
8
BLACK
6
CONTINUOUS
10
139.118
20
-137.746
11
139.308
21
-137.842
0
LINE
8
BLACK
6
CONTINUOUS
10
139.308
20
-137.842
11
139.404
21
-138.032
0
LINE
8
BLACK
6
CONTINUOUS
10
139.404
20
-138.032
11
139.404
21
-139.08
0
LINE
8
BLACK
6
CONTINUOUS
10
142.985
20
-136.985
11
141.27
21
-139.556
0
LINE
8
BLACK
6
CONTINUOUS
10
145.232
20
-137.08
11
145.423
21
-137.08
0
LINE
8
BLACK
6
CONTINUOUS
10
145.423
20
-137.08
11
145.613
21
-137.175
0
LINE
8
BLACK
6
CONTINUOUS
10
145.613
20
-137.175
11
145.708
21
-137.27
0
LINE
8
BLACK
6
CONTINUOUS
10
145.708
20
-137.27
11
145.804
21
-137.461
0
LINE
8
BLACK
6
CONTINUOUS
10
145.804
20
-137.461
11
145.899
21
-137.842
0
LINE
8
BLACK
6
CONTINUOUS
10
145.899
20
-137.842
11
145.899
21
-138.318
0
LINE
8
BLACK
6
CONTINUOUS
10
145.899
20
-138.318
11
145.804
21
-138.699
0
LINE
8
BLACK
6
CONTINUOUS
10
145.804
20
-138.699
11
145.708
21
-138.889
0
LINE
8
BLACK
6
CONTINUOUS
10
145.708
20
-138.889
11
145.613
21
-138.985
0
LINE
8
BLACK
6
CONTINUOUS
10
145.613
20
-138.985
11
145.423
21
-139.08
0
LINE
8
BLACK
6
CONTINUOUS
10
145.423
20
-139.08
11
145.232
21
-139.08
0
LINE
8
BLACK
6
CONTINUOUS
10
145.232
20
-139.08
11
145.042
21
-138.985
0
LINE
8
BLACK
6
CONTINUOUS
10
145.042
20
-138.985
11
144.946
21
-138.889
0
LINE
8
BLACK
6
CONTINUOUS
10
144.946
20
-138.889
11
144.851
21
-138.699
0
LINE
8
BLACK
6
CONTINUOUS
10
144.851
20
-138.699
11
144.756
21
-138.318
0
LINE
8
BLACK
6
CONTINUOUS
10
144.756
20
-138.318
11
144.756
21
-137.842
0
LINE
8
BLACK
6
CONTINUOUS
10
144.756
20
-137.842
11
144.851
21
-137.461
0
LINE
8
BLACK
6
CONTINUOUS
10
144.851
20
-137.461
11
144.946
21
-137.27
0
LINE
8
BLACK
6
CONTINUOUS
10
144.946
20
-137.27
11
145.042
21
-137.175
0
LINE
8
BLACK
6
CONTINUOUS
10
145.042
20
-137.175
11
145.232
21
-137.08
0
LINE
8
BLACK
6
CONTINUOUS
10
146.756
20
-138.889
11
146.851
21
-138.985
0
LINE
8
BLACK
6
CONTINUOUS
10
146.851
20
-138.985
11
146.756
21
-139.08
0
LINE
8
BLACK
6
CONTINUOUS
10
146.756
20
-139.08
11
146.661
21
-138.985
0
LINE
8
BLACK
6
CONTINUOUS
10
146.661
20
-138.985
11
146.756
21
-138.889
0
LINE
8
BLACK
6
CONTINUOUS
10
146.756
20
-138.889
11
146.756
21
-139.08
0
LINE
8
BLACK
6
CONTINUOUS
10
148.089
20
-137.08
11
148.28
21
-137.08
0
LINE
8
BLACK
6
CONTINUOUS
10
148.28
20
-137.08
11
148.47
21
-137.175
0
LINE
8
BLACK
6
CONTINUOUS
10
148.47
20
-137.175
11
148.565
21
-137.27
0
LINE
8
BLACK
6
CONTINUOUS
10
148.565
20
-137.27
11
148.661
21
-137.461
0
LINE
8
BLACK
6
CONTINUOUS
10
148.661
20
-137.461
11
148.756
21
-137.842
0
LINE
8
BLACK
6
CONTINUOUS
10
148.756
20
-137.842
11
148.756
21
-138.318
0
LINE
8
BLACK
6
CONTINUOUS
10
148.756
20
-138.318
11
148.661
21
-138.699
0
LINE
8
BLACK
6
CONTINUOUS
10
148.661
20
-138.699
11
148.565
21
-138.889
0
LINE
8
BLACK
6
CONTINUOUS
10
148.565
20
-138.889
11
148.47
21
-138.985
0
LINE
8
BLACK
6
CONTINUOUS
10
148.47
20
-138.985
11
148.28
21
-139.08
0
LINE
8
BLACK
6
CONTINUOUS
10
148.28
20
-139.08
11
148.089
21
-139.08
0
LINE
8
BLACK
6
CONTINUOUS
10
148.089
20
-139.08
11
147.899
21
-138.985
0
LINE
8
BLACK
6
CONTINUOUS
10
147.899
20
-138.985
11
147.804
21
-138.889
0
LINE
8
BLACK
6
CONTINUOUS
10
147.804
20
-138.889
11
147.708
21
-138.699
0
LINE
8
BLACK
6
CONTINUOUS
10
147.708
20
-138.699
11
147.613
21
-138.318
0
LINE
8
BLACK
6
CONTINUOUS
10
147.613
20
-138.318
11
147.613
21
-137.842
0
LINE
8
BLACK
6
CONTINUOUS
10
147.613
20
-137.842
11
147.708
21
-137.461
0
LINE
8
BLACK
6
CONTINUOUS
10
147.708
20
-137.461
11
147.804
21
-137.27
0
LINE
8
BLACK
6
CONTINUOUS
10
147.804
20
-137.27
11
147.899
21
-137.175
0
LINE
8
BLACK
6
CONTINUOUS
10
147.899
20
-137.175
11
148.089
21
-137.08
0
LINE
8
BLACK
6
CONTINUOUS
10
149.423
20
-137.08
11
150.661
21
-137.08
0
LINE
8
BLACK
6
CONTINUOUS
10
150.661
20
-137.08
11
149.994
21
-137.842
0
LINE
8
BLACK
6
CONTINUOUS
10
149.994
20
-137.842
11
150.28
21
-137.842
0
LINE
8
BLACK
6
CONTINUOUS
10
150.28
20
-137.842
11
150.47
21
-137.937
0
LINE
8
BLACK
6
CONTINUOUS
10
150.47
20
-137.937
11
150.565
21
-138.032
0
LINE
8
BLACK
6
CONTINUOUS
10
150.565
20
-138.032
11
150.661
21
-138.223
0
LINE
8
BLACK
6
CONTINUOUS
10
150.661
20
-138.223
11
150.661
21
-138.699
0
LINE
8
BLACK
6
CONTINUOUS
10
150.661
20
-138.699
11
150.565
21
-138.889
0
LINE
8
BLACK
6
CONTINUOUS
10
150.565
20
-138.889
11
150.47
21
-138.985
0
LINE
8
BLACK
6
CONTINUOUS
10
150.47
20
-138.985
11
150.28
21
-139.08
0
LINE
8
BLACK
6
CONTINUOUS
10
150.28
20
-139.08
11
149.708
21
-139.08
0
LINE
8
BLACK
6
CONTINUOUS
10
149.708
20
-139.08
11
149.518
21
-138.985
0
LINE
8
BLACK
6
CONTINUOUS
10
149.518
20
-138.985
11
149.423
21
-138.889
0
LINE
8
BLACK
6
CONTINUOUS
10
152.565
20
-139.08
11
151.423
21
-139.08
0
LINE
8
BLACK
6
CONTINUOUS
10
151.994
20
-139.08
11
151.994
21
-137.08
0
LINE
8
BLACK
6
CONTINUOUS
10
151.994
20
-137.08
11
151.804
21
-137.365
0
LINE
8
BLACK
6
CONTINUOUS
10
151.804
20
-137.365
11
151.613
21
-137.556
0
LINE
8
BLACK
6
CONTINUOUS
10
151.613
20
-137.556
11
151.423
21
-137.651
0
LINE
8
BLACK
6
CONTINUOUS
10
154.375
20
-137.08
11
153.423
21
-137.08
0
LINE
8
BLACK
6
CONTINUOUS
10
153.423
20
-137.08
11
153.327
21
-138.032
0
LINE
8
BLACK
6
CONTINUOUS
10
153.327
20
-138.032
11
153.423
21
-137.937
0
LINE
8
BLACK
6
CONTINUOUS
10
153.423
20
-137.937
11
153.613
21
-137.842
0
LINE
8
BLACK
6
CONTINUOUS
10
153.613
20
-137.842
11
154.089
21
-137.842
0
LINE
8
BLACK
6
CONTINUOUS
10
154.089
20
-137.842
11
154.28
21
-137.937
0
LINE
8
BLACK
6
CONTINUOUS
10
154.28
20
-137.937
11
154.375
21
-138.032
0
LINE
8
BLACK
6
CONTINUOUS
10
154.375
20
-138.032
11
154.47
21
-138.223
0
LINE
8
BLACK
6
CONTINUOUS
10
154.47
20
-138.223
11
154.47
21
-138.699
0
LINE
8
BLACK
6
CONTINUOUS
10
154.47
20
-138.699
11
154.375
21
-138.889
0
LINE
8
BLACK
6
CONTINUOUS
10
154.375
20
-138.889
11
154.28
21
-138.985
0
LINE
8
BLACK
6
CONTINUOUS
10
154.28
20
-138.985
11
154.089
21
-139.08
0
LINE
8
BLACK
6
CONTINUOUS
10
154.089
20
-139.08
11
153.613
21
-139.08
0
LINE
8
BLACK
6
CONTINUOUS
10
153.613
20
-139.08
11
153.423
21
-138.985
0
LINE
8
BLACK
6
CONTINUOUS
10
153.423
20
-138.985
11
153.327
21
-138.889
0
LINE
8
BLACK
6
CONTINUOUS
10
155.232
20
-137.08
11
155.232
21
-137.461
0
LINE
8
BLACK
6
CONTINUOUS
10
155.994
20
-137.08
11
155.994
21
-137.461
0
LINE
8
BLACK
6
CONTINUOUS
10
158.623
20
-139.842
11
158.527
21
-139.746
0
LINE
8
BLACK
6
CONTINUOUS
10
158.527
20
-139.746
11
158.337
21
-139.461
0
LINE
8
BLACK
6
CONTINUOUS
10
158.337
20
-139.461
11
158.242
21
-139.27
0
LINE
8
BLACK
6
CONTINUOUS
10
158.242
20
-139.27
11
158.146
21
-138.985
0
LINE
8
BLACK
6
CONTINUOUS
10
158.146
20
-138.985
11
158.051
21
-138.508
0
LINE
8
BLACK
6
CONTINUOUS
10
158.051
20
-138.508
11
158.051
21
-138.127
0
LINE
8
BLACK
6
CONTINUOUS
10
158.051
20
-138.127
11
158.146
21
-137.651
0
LINE
8
BLACK
6
CONTINUOUS
10
158.146
20
-137.651
11
158.242
21
-137.365
0
LINE
8
BLACK
6
CONTINUOUS
10
158.242
20
-137.365
11
158.337
21
-137.175
0
LINE
8
BLACK
6
CONTINUOUS
10
158.337
20
-137.175
11
158.527
21
-136.889
0
LINE
8
BLACK
6
CONTINUOUS
10
158.527
20
-136.889
11
158.623
21
-136.794
0
LINE
8
BLACK
6
CONTINUOUS
10
159.289
20
-137.27
11
159.385
21
-137.175
0
LINE
8
BLACK
6
CONTINUOUS
10
159.385
20
-137.175
11
159.575
21
-137.08
0
LINE
8
BLACK
6
CONTINUOUS
10
159.575
20
-137.08
11
160.051
21
-137.08
0
LINE
8
BLACK
6
CONTINUOUS
10
160.051
20
-137.08
11
160.242
21
-137.175
0
LINE
8
BLACK
6
CONTINUOUS
10
160.242
20
-137.175
11
160.337
21
-137.27
0
LINE
8
BLACK
6
CONTINUOUS
10
160.337
20
-137.27
11
160.432
21
-137.461
0
LINE
8
BLACK
6
CONTINUOUS
10
160.432
20
-137.461
11
160.432
21
-137.651
0
LINE
8
BLACK
6
CONTINUOUS
10
160.432
20
-137.651
11
160.337
21
-137.937
0
LINE
8
BLACK
6
CONTINUOUS
10
160.337
20
-137.937
11
159.194
21
-139.08
0
LINE
8
BLACK
6
CONTINUOUS
10
159.194
20
-139.08
11
160.432
21
-139.08
0
LINE
8
BLACK
6
CONTINUOUS
10
162.489
20
-139.08
11
162.489
21
-137.08
0
LINE
8
BLACK
6
CONTINUOUS
10
163.346
20
-139.08
11
163.346
21
-138.032
0
LINE
8
BLACK
6
CONTINUOUS
10
163.346
20
-138.032
11
163.251
21
-137.842
0
LINE
8
BLACK
6
CONTINUOUS
10
163.251
20
-137.842
11
163.061
21
-137.746
0
LINE
8
BLACK
6
CONTINUOUS
10
163.061
20
-137.746
11
162.775
21
-137.746
0
LINE
8
BLACK
6
CONTINUOUS
10
162.775
20
-137.746
11
162.585
21
-137.842
0
LINE
8
BLACK
6
CONTINUOUS
10
162.585
20
-137.842
11
162.489
21
-137.937
0
LINE
8
BLACK
6
CONTINUOUS
10
164.585
20
-139.08
11
164.394
21
-138.985
0
LINE
8
BLACK
6
CONTINUOUS
10
164.394
20
-138.985
11
164.299
21
-138.889
0
LINE
8
BLACK
6
CONTINUOUS
10
164.299
20
-138.889
11
164.204
21
-138.699
0
LINE
8
BLACK
6
CONTINUOUS
10
164.204
20
-138.699
11
164.204
21
-138.127
0
LINE
8
BLACK
6
CONTINUOUS
10
164.204
20
-138.127
11
164.299
21
-137.937
0
LINE
8
BLACK
6
CONTINUOUS
10
164.299
20
-137.937
11
164.394
21
-137.842
0
LINE
8
BLACK
6
CONTINUOUS
10
164.394
20
-137.842
11
164.585
21
-137.746
0
LINE
8
BLACK
6
CONTINUOUS
10
164.585
20
-137.746
11
164.87
21
-137.746
0
LINE
8
BLACK
6
CONTINUOUS
10
164.87
20
-137.746
11
165.061
21
-137.842
0
LINE
8
BLACK
6
CONTINUOUS
10
165.061
20
-137.842
11
165.156
21
-137.937
0
LINE
8
BLACK
6
CONTINUOUS
10
165.156
20
-137.937
11
165.251
21
-138.127
0
LINE
8
BLACK
6
CONTINUOUS
10
165.251
20
-138.127
11
165.251
21
-138.699
0
LINE
8
BLACK
6
CONTINUOUS
10
165.251
20
-138.699
11
165.156
21
-138.889
0
LINE
8
BLACK
6
CONTINUOUS
10
165.156
20
-138.889
11
165.061
21
-138.985
0
LINE
8
BLACK
6
CONTINUOUS
10
165.061
20
-138.985
11
164.87
21
-139.08
0
LINE
8
BLACK
6
CONTINUOUS
10
164.87
20
-139.08
11
164.585
21
-139.08
0
LINE
8
BLACK
6
CONTINUOUS
10
166.394
20
-139.08
11
166.204
21
-138.985
0
LINE
8
BLACK
6
CONTINUOUS
10
166.204
20
-138.985
11
166.108
21
-138.794
0
LINE
8
BLACK
6
CONTINUOUS
10
166.108
20
-138.794
11
166.108
21
-137.08
0
LINE
8
BLACK
6
CONTINUOUS
10
167.918
20
-138.985
11
167.727
21
-139.08
0
LINE
8
BLACK
6
CONTINUOUS
10
167.727
20
-139.08
11
167.346
21
-139.08
0
LINE
8
BLACK
6
CONTINUOUS
10
167.346
20
-139.08
11
167.156
21
-138.985
0
LINE
8
BLACK
6
CONTINUOUS
10
167.156
20
-138.985
11
167.061
21
-138.794
0
LINE
8
BLACK
6
CONTINUOUS
10
167.061
20
-138.794
11
167.061
21
-138.032
0
LINE
8
BLACK
6
CONTINUOUS
10
167.061
20
-138.032
11
167.156
21
-137.842
0
LINE
8
BLACK
6
CONTINUOUS
10
167.156
20
-137.842
11
167.346
21
-137.746
0
LINE
8
BLACK
6
CONTINUOUS
10
167.346
20
-137.746
11
167.727
21
-137.746
0
LINE
8
BLACK
6
CONTINUOUS
10
167.727
20
-137.746
11
167.918
21
-137.842
0
LINE
8
BLACK
6
CONTINUOUS
10
167.918
20
-137.842
11
168.013
21
-138.032
0
LINE
8
BLACK
6
CONTINUOUS
10
168.013
20
-138.032
11
168.013
21
-138.223
0
LINE
8
BLACK
6
CONTINUOUS
10
168.013
20
-138.223
11
167.061
21
-138.413
0
LINE
8
BLACK
6
CONTINUOUS
10
168.775
20
-138.985
11
168.965
21
-139.08
0
LINE
8
BLACK
6
CONTINUOUS
10
168.965
20
-139.08
11
169.346
21
-139.08
0
LINE
8
BLACK
6
CONTINUOUS
10
169.346
20
-139.08
11
169.537
21
-138.985
0
LINE
8
BLACK
6
CONTINUOUS
10
169.537
20
-138.985
11
169.632
21
-138.794
0
LINE
8
BLACK
6
CONTINUOUS
10
169.632
20
-138.794
11
169.632
21
-138.699
0
LINE
8
BLACK
6
CONTINUOUS
10
169.632
20
-138.699
11
169.537
21
-138.508
0
LINE
8
BLACK
6
CONTINUOUS
10
169.537
20
-138.508
11
169.346
21
-138.413
0
LINE
8
BLACK
6
CONTINUOUS
10
169.346
20
-138.413
11
169.061
21
-138.413
0
LINE
8
BLACK
6
CONTINUOUS
10
169.061
20
-138.413
11
168.87
21
-138.318
0
LINE
8
BLACK
6
CONTINUOUS
10
168.87
20
-138.318
11
168.775
21
-138.127
0
LINE
8
BLACK
6
CONTINUOUS
10
168.775
20
-138.127
11
168.775
21
-138.032
0
LINE
8
BLACK
6
CONTINUOUS
10
168.775
20
-138.032
11
168.87
21
-137.842
0
LINE
8
BLACK
6
CONTINUOUS
10
168.87
20
-137.842
11
169.061
21
-137.746
0
LINE
8
BLACK
6
CONTINUOUS
10
169.061
20
-137.746
11
169.346
21
-137.746
0
LINE
8
BLACK
6
CONTINUOUS
10
169.346
20
-137.746
11
169.537
21
-137.842
0
LINE
8
BLACK
6
CONTINUOUS
10
170.299
20
-139.842
11
170.394
21
-139.746
0
LINE
8
BLACK
6
CONTINUOUS
10
170.394
20
-139.746
11
170.585
21
-139.461
0
LINE
8
BLACK
6
CONTINUOUS
10
170.585
20
-139.461
11
170.68
21
-139.27
0
LINE
8
BLACK
6
CONTINUOUS
10
170.68
20
-139.27
11
170.775
21
-138.985
0
LINE
8
BLACK
6
CONTINUOUS
10
170.775
20
-138.985
11
170.87
21
-138.508
0
LINE
8
BLACK
6
CONTINUOUS
10
170.87
20
-138.508
11
170.87
21
-138.127
0
LINE
8
BLACK
6
CONTINUOUS
10
170.87
20
-138.127
11
170.775
21
-137.651
0
LINE
8
BLACK
6
CONTINUOUS
10
170.775
20
-137.651
11
170.68
21
-137.365
0
LINE
8
BLACK
6
CONTINUOUS
10
170.68
20
-137.365
11
170.585
21
-137.175
0
LINE
8
BLACK
6
CONTINUOUS
10
170.585
20
-137.175
11
170.394
21
-136.889
0
LINE
8
BLACK
6
CONTINUOUS
10
170.394
20
-136.889
11
170.299
21
-136.794
0
LINE
8
BLACK
6
CONTINUOUS
10
123.475
20
-141.485
11
123.975
21
-140.985
0
LINE
8
BLACK
6
CONTINUOUS
10
123.975
20
-140.985
11
123.475
21
-140.485
0
LINE
8
BLACK
6
CONTINUOUS
10
123.475
20
-140.485
11
122.975
21
-140.985
0
LINE
8
BLACK
6
CONTINUOUS
10
122.975
20
-140.985
11
123.475
21
-141.485
0
LINE
8
BLACK
6
CONTINUOUS
10
127.499
20
-141.72
11
126.356
21
-141.72
0
LINE
8
BLACK
6
CONTINUOUS
10
126.927
20
-141.72
11
126.927
21
-139.72
0
LINE
8
BLACK
6
CONTINUOUS
10
126.927
20
-139.72
11
126.737
21
-140.005
0
LINE
8
BLACK
6
CONTINUOUS
10
126.737
20
-140.005
11
126.546
21
-140.196
0
LINE
8
BLACK
6
CONTINUOUS
10
126.546
20
-140.196
11
126.356
21
-140.291
0
LINE
8
BLACK
6
CONTINUOUS
10
128.356
20
-141.529
11
128.451
21
-141.625
0
LINE
8
BLACK
6
CONTINUOUS
10
128.451
20
-141.625
11
128.356
21
-141.72
0
LINE
8
BLACK
6
CONTINUOUS
10
128.356
20
-141.72
11
128.261
21
-141.625
0
LINE
8
BLACK
6
CONTINUOUS
10
128.261
20
-141.625
11
128.356
21
-141.529
0
LINE
8
BLACK
6
CONTINUOUS
10
128.356
20
-141.529
11
128.356
21
-141.72
0
LINE
8
BLACK
6
CONTINUOUS
10
129.689
20
-139.72
11
129.88
21
-139.72
0
LINE
8
BLACK
6
CONTINUOUS
10
129.88
20
-139.72
11
130.07
21
-139.815
0
LINE
8
BLACK
6
CONTINUOUS
10
130.07
20
-139.815
11
130.165
21
-139.91
0
LINE
8
BLACK
6
CONTINUOUS
10
130.165
20
-139.91
11
130.261
21
-140.101
0
LINE
8
BLACK
6
CONTINUOUS
10
130.261
20
-140.101
11
130.356
21
-140.482
0
LINE
8
BLACK
6
CONTINUOUS
10
130.356
20
-140.482
11
130.356
21
-140.958
0
LINE
8
BLACK
6
CONTINUOUS
10
130.356
20
-140.958
11
130.261
21
-141.339
0
LINE
8
BLACK
6
CONTINUOUS
10
130.261
20
-141.339
11
130.165
21
-141.529
0
LINE
8
BLACK
6
CONTINUOUS
10
130.165
20
-141.529
11
130.07
21
-141.625
0
LINE
8
BLACK
6
CONTINUOUS
10
130.07
20
-141.625
11
129.88
21
-141.72
0
LINE
8
BLACK
6
CONTINUOUS
10
129.88
20
-141.72
11
129.689
21
-141.72
0
LINE
8
BLACK
6
CONTINUOUS
10
129.689
20
-141.72
11
129.499
21
-141.625
0
LINE
8
BLACK
6
CONTINUOUS
10
129.499
20
-141.625
11
129.404
21
-141.529
0
LINE
8
BLACK
6
CONTINUOUS
10
129.404
20
-141.529
11
129.308
21
-141.339
0
LINE
8
BLACK
6
CONTINUOUS
10
129.308
20
-141.339
11
129.213
21
-140.958
0
LINE
8
BLACK
6
CONTINUOUS
10
129.213
20
-140.958
11
129.213
21
-140.482
0
LINE
8
BLACK
6
CONTINUOUS
10
129.213
20
-140.482
11
129.308
21
-140.101
0
LINE
8
BLACK
6
CONTINUOUS
10
129.308
20
-140.101
11
129.404
21
-139.91
0
LINE
8
BLACK
6
CONTINUOUS
10
129.404
20
-139.91
11
129.499
21
-139.815
0
LINE
8
BLACK
6
CONTINUOUS
10
129.499
20
-139.815
11
129.689
21
-139.72
0
LINE
8
BLACK
6
CONTINUOUS
10
131.594
20
-139.72
11
131.785
21
-139.72
0
LINE
8
BLACK
6
CONTINUOUS
10
131.785
20
-139.72
11
131.975
21
-139.815
0
LINE
8
BLACK
6
CONTINUOUS
10
131.975
20
-139.815
11
132.07
21
-139.91
0
LINE
8
BLACK
6
CONTINUOUS
10
132.07
20
-139.91
11
132.165
21
-140.101
0
LINE
8
BLACK
6
CONTINUOUS
10
132.165
20
-140.101
11
132.261
21
-140.482
0
LINE
8
BLACK
6
CONTINUOUS
10
132.261
20
-140.482
11
132.261
21
-140.958
0
LINE
8
BLACK
6
CONTINUOUS
10
132.261
20
-140.958
11
132.165
21
-141.339
0
LINE
8
BLACK
6
CONTINUOUS
10
132.165
20
-141.339
11
132.07
21
-141.529
0
LINE
8
BLACK
6
CONTINUOUS
10
132.07
20
-141.529
11
131.975
21
-141.625
0
LINE
8
BLACK
6
CONTINUOUS
10
131.975
20
-141.625
11
131.785
21
-141.72
0
LINE
8
BLACK
6
CONTINUOUS
10
131.785
20
-141.72
11
131.594
21
-141.72
0
LINE
8
BLACK
6
CONTINUOUS
10
131.594
20
-141.72
11
131.404
21
-141.625
0
LINE
8
BLACK
6
CONTINUOUS
10
131.404
20
-141.625
11
131.308
21
-141.529
0
LINE
8
BLACK
6
CONTINUOUS
10
131.308
20
-141.529
11
131.213
21
-141.339
0
LINE
8
BLACK
6
CONTINUOUS
10
131.213
20
-141.339
11
131.118
21
-140.958
0
LINE
8
BLACK
6
CONTINUOUS
10
131.118
20
-140.958
11
131.118
21
-140.482
0
LINE
8
BLACK
6
CONTINUOUS
10
131.118
20
-140.482
11
131.213
21
-140.101
0
LINE
8
BLACK
6
CONTINUOUS
10
131.213
20
-140.101
11
131.308
21
-139.91
0
LINE
8
BLACK
6
CONTINUOUS
10
131.308
20
-139.91
11
131.404
21
-139.815
0
LINE
8
BLACK
6
CONTINUOUS
10
131.404
20
-139.815
11
131.594
21
-139.72
0
LINE
8
BLACK
6
CONTINUOUS
10
133.499
20
-139.72
11
133.689
21
-139.72
0
LINE
8
BLACK
6
CONTINUOUS
10
133.689
20
-139.72
11
133.88
21
-139.815
0
LINE
8
BLACK
6
CONTINUOUS
10
133.88
20
-139.815
11
133.975
21
-139.91
0
LINE
8
BLACK
6
CONTINUOUS
10
133.975
20
-139.91
11
134.07
21
-140.101
0
LINE
8
BLACK
6
CONTINUOUS
10
134.07
20
-140.101
11
134.165
21
-140.482
0
LINE
8
BLACK
6
CONTINUOUS
10
134.165
20
-140.482
11
134.165
21
-140.958
0
LINE
8
BLACK
6
CONTINUOUS
10
134.165
20
-140.958
11
134.07
21
-141.339
0
LINE
8
BLACK
6
CONTINUOUS
10
134.07
20
-141.339
11
133.975
21
-141.529
0
LINE
8
BLACK
6
CONTINUOUS
10
133.975
20
-141.529
11
133.88
21
-141.625
0
LINE
8
BLACK
6
CONTINUOUS
10
133.88
20
-141.625
11
133.689
21
-141.72
0
LINE
8
BLACK
6
CONTINUOUS
10
133.689
20
-141.72
11
133.499
21
-141.72
0
LINE
8
BLACK
6
CONTINUOUS
10
133.499
20
-141.72
11
133.308
21
-141.625
0
LINE
8
BLACK
6
CONTINUOUS
10
133.308
20
-141.625
11
133.213
21
-141.529
0
LINE
8
BLACK
6
CONTINUOUS
10
133.213
20
-141.529
11
133.118
21
-141.339
0
LINE
8
BLACK
6
CONTINUOUS
10
133.118
20
-141.339
11
133.023
21
-140.958
0
LINE
8
BLACK
6
CONTINUOUS
10
133.023
20
-140.958
11
133.023
21
-140.482
0
LINE
8
BLACK
6
CONTINUOUS
10
133.023
20
-140.482
11
133.118
21
-140.101
0
LINE
8
BLACK
6
CONTINUOUS
10
133.118
20
-140.101
11
133.213
21
-139.91
0
LINE
8
BLACK
6
CONTINUOUS
10
133.213
20
-139.91
11
133.308
21
-139.815
0
LINE
8
BLACK
6
CONTINUOUS
10
133.308
20
-139.815
11
133.499
21
-139.72
0
LINE
8
BLACK
6
CONTINUOUS
10
135.023
20
-141.72
11
135.023
21
-140.386
0
LINE
8
BLACK
6
CONTINUOUS
10
135.023
20
-140.577
11
135.118
21
-140.482
0
LINE
8
BLACK
6
CONTINUOUS
10
135.118
20
-140.482
11
135.308
21
-140.386
0
LINE
8
BLACK
6
CONTINUOUS
10
135.308
20
-140.386
11
135.594
21
-140.386
0
LINE
8
BLACK
6
CONTINUOUS
10
135.594
20
-140.386
11
135.785
21
-140.482
0
LINE
8
BLACK
6
CONTINUOUS
10
135.785
20
-140.482
11
135.88
21
-140.672
0
LINE
8
BLACK
6
CONTINUOUS
10
135.88
20
-140.672
11
135.88
21
-141.72
0
LINE
8
BLACK
6
CONTINUOUS
10
135.88
20
-140.672
11
135.975
21
-140.482
0
LINE
8
BLACK
6
CONTINUOUS
10
135.975
20
-140.482
11
136.165
21
-140.386
0
LINE
8
BLACK
6
CONTINUOUS
10
136.165
20
-140.386
11
136.451
21
-140.386
0
LINE
8
BLACK
6
CONTINUOUS
10
136.451
20
-140.386
11
136.642
21
-140.482
0
LINE
8
BLACK
6
CONTINUOUS
10
136.642
20
-140.482
11
136.737
21
-140.672
0
LINE
8
BLACK
6
CONTINUOUS
10
136.737
20
-140.672
11
136.737
21
-141.72
0
LINE
8
BLACK
6
CONTINUOUS
10
137.689
20
-141.72
11
137.689
21
-140.386
0
LINE
8
BLACK
6
CONTINUOUS
10
137.689
20
-140.577
11
137.785
21
-140.482
0
LINE
8
BLACK
6
CONTINUOUS
10
137.785
20
-140.482
11
137.975
21
-140.386
0
LINE
8
BLACK
6
CONTINUOUS
10
137.975
20
-140.386
11
138.261
21
-140.386
0
LINE
8
BLACK
6
CONTINUOUS
10
138.261
20
-140.386
11
138.451
21
-140.482
0
LINE
8
BLACK
6
CONTINUOUS
10
138.451
20
-140.482
11
138.546
21
-140.672
0
LINE
8
BLACK
6
CONTINUOUS
10
138.546
20
-140.672
11
138.546
21
-141.72
0
LINE
8
BLACK
6
CONTINUOUS
10
138.546
20
-140.672
11
138.642
21
-140.482
0
LINE
8
BLACK
6
CONTINUOUS
10
138.642
20
-140.482
11
138.832
21
-140.386
0
LINE
8
BLACK
6
CONTINUOUS
10
138.832
20
-140.386
11
139.118
21
-140.386
0
LINE
8
BLACK
6
CONTINUOUS
10
139.118
20
-140.386
11
139.308
21
-140.482
0
LINE
8
BLACK
6
CONTINUOUS
10
139.308
20
-140.482
11
139.404
21
-140.672
0
LINE
8
BLACK
6
CONTINUOUS
10
139.404
20
-140.672
11
139.404
21
-141.72
0
LINE
8
BLACK
6
CONTINUOUS
10
142.985
20
-139.625
11
141.27
21
-142.196
0
LINE
8
BLACK
6
CONTINUOUS
10
145.232
20
-139.72
11
145.423
21
-139.72
0
LINE
8
BLACK
6
CONTINUOUS
10
145.423
20
-139.72
11
145.613
21
-139.815
0
LINE
8
BLACK
6
CONTINUOUS
10
145.613
20
-139.815
11
145.708
21
-139.91
0
LINE
8
BLACK
6
CONTINUOUS
10
145.708
20
-139.91
11
145.804
21
-140.101
0
LINE
8
BLACK
6
CONTINUOUS
10
145.804
20
-140.101
11
145.899
21
-140.482
0
LINE
8
BLACK
6
CONTINUOUS
10
145.899
20
-140.482
11
145.899
21
-140.958
0
LINE
8
BLACK
6
CONTINUOUS
10
145.899
20
-140.958
11
145.804
21
-141.339
0
LINE
8
BLACK
6
CONTINUOUS
10
145.804
20
-141.339
11
145.708
21
-141.529
0
LINE
8
BLACK
6
CONTINUOUS
10
145.708
20
-141.529
11
145.613
21
-141.625
0
LINE
8
BLACK
6
CONTINUOUS
10
145.613
20
-141.625
11
145.423
21
-141.72
0
LINE
8
BLACK
6
CONTINUOUS
10
145.423
20
-141.72
11
145.232
21
-141.72
0
LINE
8
BLACK
6
CONTINUOUS
10
145.232
20
-141.72
11
145.042
21
-141.625
0
LINE
8
BLACK
6
CONTINUOUS
10
145.042
20
-141.625
11
144.946
21
-141.529
0
LINE
8
BLACK
6
CONTINUOUS
10
144.946
20
-141.529
11
144.851
21
-141.339
0
LINE
8
BLACK
6
CONTINUOUS
10
144.851
20
-141.339
11
144.756
21
-140.958
0
LINE
8
BLACK
6
CONTINUOUS
10
144.756
20
-140.958
11
144.756
21
-140.482
0
LINE
8
BLACK
6
CONTINUOUS
10
144.756
20
-140.482
11
144.851
21
-140.101
0
LINE
8
BLACK
6
CONTINUOUS
10
144.851
20
-140.101
11
144.946
21
-139.91
0
LINE
8
BLACK
6
CONTINUOUS
10
144.946
20
-139.91
11
145.042
21
-139.815
0
LINE
8
BLACK
6
CONTINUOUS
10
145.042
20
-139.815
11
145.232
21
-139.72
0
LINE
8
BLACK
6
CONTINUOUS
10
146.756
20
-141.529
11
146.851
21
-141.625
0
LINE
8
BLACK
6
CONTINUOUS
10
146.851
20
-141.625
11
146.756
21
-141.72
0
LINE
8
BLACK
6
CONTINUOUS
10
146.756
20
-141.72
11
146.661
21
-141.625
0
LINE
8
BLACK
6
CONTINUOUS
10
146.661
20
-141.625
11
146.756
21
-141.529
0
LINE
8
BLACK
6
CONTINUOUS
10
146.756
20
-141.529
11
146.756
21
-141.72
0
LINE
8
BLACK
6
CONTINUOUS
10
148.089
20
-139.72
11
148.28
21
-139.72
0
LINE
8
BLACK
6
CONTINUOUS
10
148.28
20
-139.72
11
148.47
21
-139.815
0
LINE
8
BLACK
6
CONTINUOUS
10
148.47
20
-139.815
11
148.565
21
-139.91
0
LINE
8
BLACK
6
CONTINUOUS
10
148.565
20
-139.91
11
148.661
21
-140.101
0
LINE
8
BLACK
6
CONTINUOUS
10
148.661
20
-140.101
11
148.756
21
-140.482
0
LINE
8
BLACK
6
CONTINUOUS
10
148.756
20
-140.482
11
148.756
21
-140.958
0
LINE
8
BLACK
6
CONTINUOUS
10
148.756
20
-140.958
11
148.661
21
-141.339
0
LINE
8
BLACK
6
CONTINUOUS
10
148.661
20
-141.339
11
148.565
21
-141.529
0
LINE
8
BLACK
6
CONTINUOUS
10
148.565
20
-141.529
11
148.47
21
-141.625
0
LINE
8
BLACK
6
CONTINUOUS
10
148.47
20
-141.625
11
148.28
21
-141.72
0
LINE
8
BLACK
6
CONTINUOUS
10
148.28
20
-141.72
11
148.089
21
-141.72
0
LINE
8
BLACK
6
CONTINUOUS
10
148.089
20
-141.72
11
147.899
21
-141.625
0
LINE
8
BLACK
6
CONTINUOUS
10
147.899
20
-141.625
11
147.804
21
-141.529
0
LINE
8
BLACK
6
CONTINUOUS
10
147.804
20
-141.529
11
147.708
21
-141.339
0
LINE
8
BLACK
6
CONTINUOUS
10
147.708
20
-141.339
11
147.613
21
-140.958
0
LINE
8
BLACK
6
CONTINUOUS
10
147.613
20
-140.958
11
147.613
21
-140.482
0
LINE
8
BLACK
6
CONTINUOUS
10
147.613
20
-140.482
11
147.708
21
-140.101
0
LINE
8
BLACK
6
CONTINUOUS
10
147.708
20
-140.101
11
147.804
21
-139.91
0
LINE
8
BLACK
6
CONTINUOUS
10
147.804
20
-139.91
11
147.899
21
-139.815
0
LINE
8
BLACK
6
CONTINUOUS
10
147.899
20
-139.815
11
148.089
21
-139.72
0
LINE
8
BLACK
6
CONTINUOUS
10
149.423
20
-139.72
11
150.661
21
-139.72
0
LINE
8
BLACK
6
CONTINUOUS
10
150.661
20
-139.72
11
149.994
21
-140.482
0
LINE
8
BLACK
6
CONTINUOUS
10
149.994
20
-140.482
11
150.28
21
-140.482
0
LINE
8
BLACK
6
CONTINUOUS
10
150.28
20
-140.482
11
150.47
21
-140.577
0
LINE
8
BLACK
6
CONTINUOUS
10
150.47
20
-140.577
11
150.565
21
-140.672
0
LINE
8
BLACK
6
CONTINUOUS
10
150.565
20
-140.672
11
150.661
21
-140.863
0
LINE
8
BLACK
6
CONTINUOUS
10
150.661
20
-140.863
11
150.661
21
-141.339
0
LINE
8
BLACK
6
CONTINUOUS
10
150.661
20
-141.339
11
150.565
21
-141.529
0
LINE
8
BLACK
6
CONTINUOUS
10
150.565
20
-141.529
11
150.47
21
-141.625
0
LINE
8
BLACK
6
CONTINUOUS
10
150.47
20
-141.625
11
150.28
21
-141.72
0
LINE
8
BLACK
6
CONTINUOUS
10
150.28
20
-141.72
11
149.708
21
-141.72
0
LINE
8
BLACK
6
CONTINUOUS
10
149.708
20
-141.72
11
149.518
21
-141.625
0
LINE
8
BLACK
6
CONTINUOUS
10
149.518
20
-141.625
11
149.423
21
-141.529
0
LINE
8
BLACK
6
CONTINUOUS
10
151.613
20
-141.72
11
151.994
21
-141.72
0
LINE
8
BLACK
6
CONTINUOUS
10
151.994
20
-141.72
11
152.185
21
-141.625
0
LINE
8
BLACK
6
CONTINUOUS
10
152.185
20
-141.625
11
152.28
21
-141.529
0
LINE
8
BLACK
6
CONTINUOUS
10
152.28
20
-141.529
11
152.47
21
-141.244
0
LINE
8
BLACK
6
CONTINUOUS
10
152.47
20
-141.244
11
152.565
21
-140.863
0
LINE
8
BLACK
6
CONTINUOUS
10
152.565
20
-140.863
11
152.565
21
-140.101
0
LINE
8
BLACK
6
CONTINUOUS
10
152.565
20
-140.101
11
152.47
21
-139.91
0
LINE
8
BLACK
6
CONTINUOUS
10
152.47
20
-139.91
11
152.375
21
-139.815
0
LINE
8
BLACK
6
CONTINUOUS
10
152.375
20
-139.815
11
152.185
21
-139.72
0
LINE
8
BLACK
6
CONTINUOUS
10
152.185
20
-139.72
11
151.804
21
-139.72
0
LINE
8
BLACK
6
CONTINUOUS
10
151.804
20
-139.72
11
151.613
21
-139.815
0
LINE
8
BLACK
6
CONTINUOUS
10
151.613
20
-139.815
11
151.518
21
-139.91
0
LINE
8
BLACK
6
CONTINUOUS
10
151.518
20
-139.91
11
151.423
21
-140.101
0
LINE
8
BLACK
6
CONTINUOUS
10
151.423
20
-140.101
11
151.423
21
-140.577
0
LINE
8
BLACK
6
CONTINUOUS
10
151.423
20
-140.577
11
151.518
21
-140.767
0
LINE
8
BLACK
6
CONTINUOUS
10
151.518
20
-140.767
11
151.613
21
-140.863
0
LINE
8
BLACK
6
CONTINUOUS
10
151.613
20
-140.863
11
151.804
21
-140.958
0
LINE
8
BLACK
6
CONTINUOUS
10
151.804
20
-140.958
11
152.185
21
-140.958
0
LINE
8
BLACK
6
CONTINUOUS
10
152.185
20
-140.958
11
152.375
21
-140.863
0
LINE
8
BLACK
6
CONTINUOUS
10
152.375
20
-140.863
11
152.47
21
-140.767
0
LINE
8
BLACK
6
CONTINUOUS
10
152.47
20
-140.767
11
152.565
21
-140.577
0
LINE
8
BLACK
6
CONTINUOUS
10
154.28
20
-140.386
11
154.28
21
-141.72
0
LINE
8
BLACK
6
CONTINUOUS
10
153.804
20
-139.625
11
153.327
21
-141.053
0
LINE
8
BLACK
6
CONTINUOUS
10
153.327
20
-141.053
11
154.565
21
-141.053
0
LINE
8
BLACK
6
CONTINUOUS
10
155.232
20
-139.72
11
155.232
21
-140.101
0
LINE
8
BLACK
6
CONTINUOUS
10
155.994
20
-139.72
11
155.994
21
-140.101
0
LINE
8
BLACK
6
CONTINUOUS
10
158.623
20
-142.482
11
158.527
21
-142.386
0
LINE
8
BLACK
6
CONTINUOUS
10
158.527
20
-142.386
11
158.337
21
-142.101
0
LINE
8
BLACK
6
CONTINUOUS
10
158.337
20
-142.101
11
158.242
21
-141.91
0
LINE
8
BLACK
6
CONTINUOUS
10
158.242
20
-141.91
11
158.146
21
-141.625
0
LINE
8
BLACK
6
CONTINUOUS
10
158.146
20
-141.625
11
158.051
21
-141.148
0
LINE
8
BLACK
6
CONTINUOUS
10
158.051
20
-141.148
11
158.051
21
-140.767
0
LINE
8
BLACK
6
CONTINUOUS
10
158.051
20
-140.767
11
158.146
21
-140.291
0
LINE
8
BLACK
6
CONTINUOUS
10
158.146
20
-140.291
11
158.242
21
-140.005
0
LINE
8
BLACK
6
CONTINUOUS
10
158.242
20
-140.005
11
158.337
21
-139.815
0
LINE
8
BLACK
6
CONTINUOUS
10
158.337
20
-139.815
11
158.527
21
-139.529
0
LINE
8
BLACK
6
CONTINUOUS
10
158.527
20
-139.529
11
158.623
21
-139.434
0
LINE
8
BLACK
6
CONTINUOUS
10
159.48
20
-141.72
11
159.861
21
-141.72
0
LINE
8
BLACK
6
CONTINUOUS
10
159.861
20
-141.72
11
160.051
21
-141.625
0
LINE
8
BLACK
6
CONTINUOUS
10
160.051
20
-141.625
11
160.146
21
-141.529
0
LINE
8
BLACK
6
CONTINUOUS
10
160.146
20
-141.529
11
160.337
21
-141.244
0
LINE
8
BLACK
6
CONTINUOUS
10
160.337
20
-141.244
11
160.432
21
-140.863
0
LINE
8
BLACK
6
CONTINUOUS
10
160.432
20
-140.863
11
160.432
21
-140.101
0
LINE
8
BLACK
6
CONTINUOUS
10
160.432
20
-140.101
11
160.337
21
-139.91
0
LINE
8
BLACK
6
CONTINUOUS
10
160.337
20
-139.91
11
160.242
21
-139.815
0
LINE
8
BLACK
6
CONTINUOUS
10
160.242
20
-139.815
11
160.051
21
-139.72
0
LINE
8
BLACK
6
CONTINUOUS
10
160.051
20
-139.72
11
159.67
21
-139.72
0
LINE
8
BLACK
6
CONTINUOUS
10
159.67
20
-139.72
11
159.48
21
-139.815
0
LINE
8
BLACK
6
CONTINUOUS
10
159.48
20
-139.815
11
159.385
21
-139.91
0
LINE
8
BLACK
6
CONTINUOUS
10
159.385
20
-139.91
11
159.289
21
-140.101
0
LINE
8
BLACK
6
CONTINUOUS
10
159.289
20
-140.101
11
159.289
21
-140.577
0
LINE
8
BLACK
6
CONTINUOUS
10
159.289
20
-140.577
11
159.385
21
-140.767
0
LINE
8
BLACK
6
CONTINUOUS
10
159.385
20
-140.767
11
159.48
21
-140.863
0
LINE
8
BLACK
6
CONTINUOUS
10
159.48
20
-140.863
11
159.67
21
-140.958
0
LINE
8
BLACK
6
CONTINUOUS
10
159.67
20
-140.958
11
160.051
21
-140.958
0
LINE
8
BLACK
6
CONTINUOUS
10
160.051
20
-140.958
11
160.242
21
-140.863
0
LINE
8
BLACK
6
CONTINUOUS
10
160.242
20
-140.863
11
160.337
21
-140.767
0
LINE
8
BLACK
6
CONTINUOUS
10
160.337
20
-140.767
11
160.432
21
-140.577
0
LINE
8
BLACK
6
CONTINUOUS
10
161.67
20
-139.72
11
161.861
21
-139.72
0
LINE
8
BLACK
6
CONTINUOUS
10
161.861
20
-139.72
11
162.051
21
-139.815
0
LINE
8
BLACK
6
CONTINUOUS
10
162.051
20
-139.815
11
162.146
21
-139.91
0
LINE
8
BLACK
6
CONTINUOUS
10
162.146
20
-139.91
11
162.242
21
-140.101
0
LINE
8
BLACK
6
CONTINUOUS
10
162.242
20
-140.101
11
162.337
21
-140.482
0
LINE
8
BLACK
6
CONTINUOUS
10
162.337
20
-140.482
11
162.337
21
-140.958
0
LINE
8
BLACK
6
CONTINUOUS
10
162.337
20
-140.958
11
162.242
21
-141.339
0
LINE
8
BLACK
6
CONTINUOUS
10
162.242
20
-141.339
11
162.146
21
-141.529
0
LINE
8
BLACK
6
CONTINUOUS
10
162.146
20
-141.529
11
162.051
21
-141.625
0
LINE
8
BLACK
6
CONTINUOUS
10
162.051
20
-141.625
11
161.861
21
-141.72
0
LINE
8
BLACK
6
CONTINUOUS
10
161.861
20
-141.72
11
161.67
21
-141.72
0
LINE
8
BLACK
6
CONTINUOUS
10
161.67
20
-141.72
11
161.48
21
-141.625
0
LINE
8
BLACK
6
CONTINUOUS
10
161.48
20
-141.625
11
161.385
21
-141.529
0
LINE
8
BLACK
6
CONTINUOUS
10
161.385
20
-141.529
11
161.289
21
-141.339
0
LINE
8
BLACK
6
CONTINUOUS
10
161.289
20
-141.339
11
161.194
21
-140.958
0
LINE
8
BLACK
6
CONTINUOUS
10
161.194
20
-140.958
11
161.194
21
-140.482
0
LINE
8
BLACK
6
CONTINUOUS
10
161.194
20
-140.482
11
161.289
21
-140.101
0
LINE
8
BLACK
6
CONTINUOUS
10
161.289
20
-140.101
11
161.385
21
-139.91
0
LINE
8
BLACK
6
CONTINUOUS
10
161.385
20
-139.91
11
161.48
21
-139.815
0
LINE
8
BLACK
6
CONTINUOUS
10
161.48
20
-139.815
11
161.67
21
-139.72
0
LINE
8
BLACK
6
CONTINUOUS
10
164.394
20
-141.72
11
164.394
21
-139.72
0
LINE
8
BLACK
6
CONTINUOUS
10
165.251
20
-141.72
11
165.251
21
-140.672
0
LINE
8
BLACK
6
CONTINUOUS
10
165.251
20
-140.672
11
165.156
21
-140.482
0
LINE
8
BLACK
6
CONTINUOUS
10
165.156
20
-140.482
11
164.965
21
-140.386
0
LINE
8
BLACK
6
CONTINUOUS
10
164.965
20
-140.386
11
164.68
21
-140.386
0
LINE
8
BLACK
6
CONTINUOUS
10
164.68
20
-140.386
11
164.489
21
-140.482
0
LINE
8
BLACK
6
CONTINUOUS
10
164.489
20
-140.482
11
164.394
21
-140.577
0
LINE
8
BLACK
6
CONTINUOUS
10
166.489
20
-141.72
11
166.299
21
-141.625
0
LINE
8
BLACK
6
CONTINUOUS
10
166.299
20
-141.625
11
166.204
21
-141.529
0
LINE
8
BLACK
6
CONTINUOUS
10
166.204
20
-141.529
11
166.108
21
-141.339
0
LINE
8
BLACK
6
CONTINUOUS
10
166.108
20
-141.339
11
166.108
21
-140.767
0
LINE
8
BLACK
6
CONTINUOUS
10
166.108
20
-140.767
11
166.204
21
-140.577
0
LINE
8
BLACK
6
CONTINUOUS
10
166.204
20
-140.577
11
166.299
21
-140.482
0
LINE
8
BLACK
6
CONTINUOUS
10
166.299
20
-140.482
11
166.489
21
-140.386
0
LINE
8
BLACK
6
CONTINUOUS
10
166.489
20
-140.386
11
166.775
21
-140.386
0
LINE
8
BLACK
6
CONTINUOUS
10
166.775
20
-140.386
11
166.965
21
-140.482
0
LINE
8
BLACK
6
CONTINUOUS
10
166.965
20
-140.482
11
167.061
21
-140.577
0
LINE
8
BLACK
6
CONTINUOUS
10
167.061
20
-140.577
11
167.156
21
-140.767
0
LINE
8
BLACK
6
CONTINUOUS
10
167.156
20
-140.767
11
167.156
21
-141.339
0
LINE
8
BLACK
6
CONTINUOUS
10
167.156
20
-141.339
11
167.061
21
-141.529
0
LINE
8
BLACK
6
CONTINUOUS
10
167.061
20
-141.529
11
166.965
21
-141.625
0
LINE
8
BLACK
6
CONTINUOUS
10
166.965
20
-141.625
11
166.775
21
-141.72
0
LINE
8
BLACK
6
CONTINUOUS
10
166.775
20
-141.72
11
166.489
21
-141.72
0
LINE
8
BLACK
6
CONTINUOUS
10
168.299
20
-141.72
11
168.108
21
-141.625
0
LINE
8
BLACK
6
CONTINUOUS
10
168.108
20
-141.625
11
168.013
21
-141.434
0
LINE
8
BLACK
6
CONTINUOUS
10
168.013
20
-141.434
11
168.013
21
-139.72
0
LINE
8
BLACK
6
CONTINUOUS
10
169.823
20
-141.625
11
169.632
21
-141.72
0
LINE
8
BLACK
6
CONTINUOUS
10
169.632
20
-141.72
11
169.251
21
-141.72
0
LINE
8
BLACK
6
CONTINUOUS
10
169.251
20
-141.72
11
169.061
21
-141.625
0
LINE
8
BLACK
6
CONTINUOUS
10
169.061
20
-141.625
11
168.965
21
-141.434
0
LINE
8
BLACK
6
CONTINUOUS
10
168.965
20
-141.434
11
168.965
21
-140.672
0
LINE
8
BLACK
6
CONTINUOUS
10
168.965
20
-140.672
11
169.061
21
-140.482
0
LINE
8
BLACK
6
CONTINUOUS
10
169.061
20
-140.482
11
169.251
21
-140.386
0
LINE
8
BLACK
6
CONTINUOUS
10
169.251
20
-140.386
11
169.632
21
-140.386
0
LINE
8
BLACK
6
CONTINUOUS
10
169.632
20
-140.386
11
169.823
21
-140.482
0
LINE
8
BLACK
6
CONTINUOUS
10
169.823
20
-140.482
11
169.918
21
-140.672
0
LINE
8
BLACK
6
CONTINUOUS
10
169.918
20
-140.672
11
169.918
21
-140.863
0
LINE
8
BLACK
6
CONTINUOUS
10
169.918
20
-140.863
11
168.965
21
-141.053
0
LINE
8
BLACK
6
CONTINUOUS
10
170.68
20
-141.625
11
170.87
21
-141.72
0
LINE
8
BLACK
6
CONTINUOUS
10
170.87
20
-141.72
11
171.251
21
-141.72
0
LINE
8
BLACK
6
CONTINUOUS
10
171.251
20
-141.72
11
171.442
21
-141.625
0
LINE
8
BLACK
6
CONTINUOUS
10
171.442
20
-141.625
11
171.537
21
-141.434
0
LINE
8
BLACK
6
CONTINUOUS
10
171.537
20
-141.434
11
171.537
21
-141.339
0
LINE
8
BLACK
6
CONTINUOUS
10
171.537
20
-141.339
11
171.442
21
-141.148
0
LINE
8
BLACK
6
CONTINUOUS
10
171.442
20
-141.148
11
171.251
21
-141.053
0
LINE
8
BLACK
6
CONTINUOUS
10
171.251
20
-141.053
11
170.965
21
-141.053
0
LINE
8
BLACK
6
CONTINUOUS
10
170.965
20
-141.053
11
170.775
21
-140.958
0
LINE
8
BLACK
6
CONTINUOUS
10
170.775
20
-140.958
11
170.68
21
-140.767
0
LINE
8
BLACK
6
CONTINUOUS
10
170.68
20
-140.767
11
170.68
21
-140.672
0
LINE
8
BLACK
6
CONTINUOUS
10
170.68
20
-140.672
11
170.775
21
-140.482
0
LINE
8
BLACK
6
CONTINUOUS
10
170.775
20
-140.482
11
170.965
21
-140.386
0
LINE
8
BLACK
6
CONTINUOUS
10
170.965
20
-140.386
11
171.251
21
-140.386
0
LINE
8
BLACK
6
CONTINUOUS
10
171.251
20
-140.386
11
171.442
21
-140.482
0
LINE
8
BLACK
6
CONTINUOUS
10
172.204
20
-142.482
11
172.299
21
-142.386
0
LINE
8
BLACK
6
CONTINUOUS
10
172.299
20
-142.386
11
172.489
21
-142.101
0
LINE
8
BLACK
6
CONTINUOUS
10
172.489
20
-142.101
11
172.585
21
-141.91
0
LINE
8
BLACK
6
CONTINUOUS
10
172.585
20
-141.91
11
172.68
21
-141.625
0
LINE
8
BLACK
6
CONTINUOUS
10
172.68
20
-141.625
11
172.775
21
-141.148
0
LINE
8
BLACK
6
CONTINUOUS
10
172.775
20
-141.148
11
172.775
21
-140.767
0
LINE
8
BLACK
6
CONTINUOUS
10
172.775
20
-140.767
11
172.68
21
-140.291
0
LINE
8
BLACK
6
CONTINUOUS
10
172.68
20
-140.291
11
172.585
21
-140.005
0
LINE
8
BLACK
6
CONTINUOUS
10
172.585
20
-140.005
11
172.489
21
-139.815
0
LINE
8
BLACK
6
CONTINUOUS
10
172.489
20
-139.815
11
172.299
21
-139.529
0
LINE
8
BLACK
6
CONTINUOUS
10
172.299
20
-139.529
11
172.204
21
-139.434
0
LINE
8
BLACK
6
CONTINUOUS
10
121.975
20
-142.625
11
123.975
21
-144.625
0
LINE
8
BLACK
6
CONTINUOUS
10
123.975
20
-142.625
11
121.975
21
-144.625
0
CIRCLE
8
BLACK
10
122.975
20
-143.625
40
1
0
LINE
8
BLACK
6
CONTINUOUS
10
126.261
20
-142.36
11
127.499
21
-142.36
0
LINE
8
BLACK
6
CONTINUOUS
10
127.499
20
-142.36
11
126.832
21
-143.122
0
LINE
8
BLACK
6
CONTINUOUS
10
126.832
20
-143.122
11
127.118
21
-143.122
0
LINE
8
BLACK
6
CONTINUOUS
10
127.118
20
-143.122
11
127.308
21
-143.217
0
LINE
8
BLACK
6
CONTINUOUS
10
127.308
20
-143.217
11
127.404
21
-143.312
0
LINE
8
BLACK
6
CONTINUOUS
10
127.404
20
-143.312
11
127.499
21
-143.503
0
LINE
8
BLACK
6
CONTINUOUS
10
127.499
20
-143.503
11
127.499
21
-143.979
0
LINE
8
BLACK
6
CONTINUOUS
10
127.499
20
-143.979
11
127.404
21
-144.169
0
LINE
8
BLACK
6
CONTINUOUS
10
127.404
20
-144.169
11
127.308
21
-144.265
0
LINE
8
BLACK
6
CONTINUOUS
10
127.308
20
-144.265
11
127.118
21
-144.36
0
LINE
8
BLACK
6
CONTINUOUS
10
127.118
20
-144.36
11
126.546
21
-144.36
0
LINE
8
BLACK
6
CONTINUOUS
10
126.546
20
-144.36
11
126.356
21
-144.265
0
LINE
8
BLACK
6
CONTINUOUS
10
126.356
20
-144.265
11
126.261
21
-144.169
0
LINE
8
BLACK
6
CONTINUOUS
10
128.356
20
-144.169
11
128.451
21
-144.265
0
LINE
8
BLACK
6
CONTINUOUS
10
128.451
20
-144.265
11
128.356
21
-144.36
0
LINE
8
BLACK
6
CONTINUOUS
10
128.356
20
-144.36
11
128.261
21
-144.265
0
LINE
8
BLACK
6
CONTINUOUS
10
128.261
20
-144.265
11
128.356
21
-144.169
0
LINE
8
BLACK
6
CONTINUOUS
10
128.356
20
-144.169
11
128.356
21
-144.36
0
LINE
8
BLACK
6
CONTINUOUS
10
129.213
20
-142.55
11
129.308
21
-142.455
0
LINE
8
BLACK
6
CONTINUOUS
10
129.308
20
-142.455
11
129.499
21
-142.36
0
LINE
8
BLACK
6
CONTINUOUS
10
129.499
20
-142.36
11
129.975
21
-142.36
0
LINE
8
BLACK
6
CONTINUOUS
10
129.975
20
-142.36
11
130.165
21
-142.455
0
LINE
8
BLACK
6
CONTINUOUS
10
130.165
20
-142.455
11
130.261
21
-142.55
0
LINE
8
BLACK
6
CONTINUOUS
10
130.261
20
-142.55
11
130.356
21
-142.741
0
LINE
8
BLACK
6
CONTINUOUS
10
130.356
20
-142.741
11
130.356
21
-142.931
0
LINE
8
BLACK
6
CONTINUOUS
10
130.356
20
-142.931
11
130.261
21
-143.217
0
LINE
8
BLACK
6
CONTINUOUS
10
130.261
20
-143.217
11
129.118
21
-144.36
0
LINE
8
BLACK
6
CONTINUOUS
10
129.118
20
-144.36
11
130.356
21
-144.36
0
LINE
8
BLACK
6
CONTINUOUS
10
131.594
20
-142.36
11
131.785
21
-142.36
0
LINE
8
BLACK
6
CONTINUOUS
10
131.785
20
-142.36
11
131.975
21
-142.455
0
LINE
8
BLACK
6
CONTINUOUS
10
131.975
20
-142.455
11
132.07
21
-142.55
0
LINE
8
BLACK
6
CONTINUOUS
10
132.07
20
-142.55
11
132.165
21
-142.741
0
LINE
8
BLACK
6
CONTINUOUS
10
132.165
20
-142.741
11
132.261
21
-143.122
0
LINE
8
BLACK
6
CONTINUOUS
10
132.261
20
-143.122
11
132.261
21
-143.598
0
LINE
8
BLACK
6
CONTINUOUS
10
132.261
20
-143.598
11
132.165
21
-143.979
0
LINE
8
BLACK
6
CONTINUOUS
10
132.165
20
-143.979
11
132.07
21
-144.169
0
LINE
8
BLACK
6
CONTINUOUS
10
132.07
20
-144.169
11
131.975
21
-144.265
0
LINE
8
BLACK
6
CONTINUOUS
10
131.975
20
-144.265
11
131.785
21
-144.36
0
LINE
8
BLACK
6
CONTINUOUS
10
131.785
20
-144.36
11
131.594
21
-144.36
0
LINE
8
BLACK
6
CONTINUOUS
10
131.594
20
-144.36
11
131.404
21
-144.265
0
LINE
8
BLACK
6
CONTINUOUS
10
131.404
20
-144.265
11
131.308
21
-144.169
0
LINE
8
BLACK
6
CONTINUOUS
10
131.308
20
-144.169
11
131.213
21
-143.979
0
LINE
8
BLACK
6
CONTINUOUS
10
131.213
20
-143.979
11
131.118
21
-143.598
0
LINE
8
BLACK
6
CONTINUOUS
10
131.118
20
-143.598
11
131.118
21
-143.122
0
LINE
8
BLACK
6
CONTINUOUS
10
131.118
20
-143.122
11
131.213
21
-142.741
0
LINE
8
BLACK
6
CONTINUOUS
10
131.213
20
-142.741
11
131.308
21
-142.55
0
LINE
8
BLACK
6
CONTINUOUS
10
131.308
20
-142.55
11
131.404
21
-142.455
0
LINE
8
BLACK
6
CONTINUOUS
10
131.404
20
-142.455
11
131.594
21
-142.36
0
LINE
8
BLACK
6
CONTINUOUS
10
133.499
20
-142.36
11
133.689
21
-142.36
0
LINE
8
BLACK
6
CONTINUOUS
10
133.689
20
-142.36
11
133.88
21
-142.455
0
LINE
8
BLACK
6
CONTINUOUS
10
133.88
20
-142.455
11
133.975
21
-142.55
0
LINE
8
BLACK
6
CONTINUOUS
10
133.975
20
-142.55
11
134.07
21
-142.741
0
LINE
8
BLACK
6
CONTINUOUS
10
134.07
20
-142.741
11
134.165
21
-143.122
0
LINE
8
BLACK
6
CONTINUOUS
10
134.165
20
-143.122
11
134.165
21
-143.598
0
LINE
8
BLACK
6
CONTINUOUS
10
134.165
20
-143.598
11
134.07
21
-143.979
0
LINE
8
BLACK
6
CONTINUOUS
10
134.07
20
-143.979
11
133.975
21
-144.169
0
LINE
8
BLACK
6
CONTINUOUS
10
133.975
20
-144.169
11
133.88
21
-144.265
0
LINE
8
BLACK
6
CONTINUOUS
10
133.88
20
-144.265
11
133.689
21
-144.36
0
LINE
8
BLACK
6
CONTINUOUS
10
133.689
20
-144.36
11
133.499
21
-144.36
0
LINE
8
BLACK
6
CONTINUOUS
10
133.499
20
-144.36
11
133.308
21
-144.265
0
LINE
8
BLACK
6
CONTINUOUS
10
133.308
20
-144.265
11
133.213
21
-144.169
0
LINE
8
BLACK
6
CONTINUOUS
10
133.213
20
-144.169
11
133.118
21
-143.979
0
LINE
8
BLACK
6
CONTINUOUS
10
133.118
20
-143.979
11
133.023
21
-143.598
0
LINE
8
BLACK
6
CONTINUOUS
10
133.023
20
-143.598
11
133.023
21
-143.122
0
LINE
8
BLACK
6
CONTINUOUS
10
133.023
20
-143.122
11
133.118
21
-142.741
0
LINE
8
BLACK
6
CONTINUOUS
10
133.118
20
-142.741
11
133.213
21
-142.55
0
LINE
8
BLACK
6
CONTINUOUS
10
133.213
20
-142.55
11
133.308
21
-142.455
0
LINE
8
BLACK
6
CONTINUOUS
10
133.308
20
-142.455
11
133.499
21
-142.36
0
LINE
8
BLACK
6
CONTINUOUS
10
135.023
20
-144.36
11
135.023
21
-143.026
0
LINE
8
BLACK
6
CONTINUOUS
10
135.023
20
-143.217
11
135.118
21
-143.122
0
LINE
8
BLACK
6
CONTINUOUS
10
135.118
20
-143.122
11
135.308
21
-143.026
0
LINE
8
BLACK
6
CONTINUOUS
10
135.308
20
-143.026
11
135.594
21
-143.026
0
LINE
8
BLACK
6
CONTINUOUS
10
135.594
20
-143.026
11
135.785
21
-143.122
0
LINE
8
BLACK
6
CONTINUOUS
10
135.785
20
-143.122
11
135.88
21
-143.312
0
LINE
8
BLACK
6
CONTINUOUS
10
135.88
20
-143.312
11
135.88
21
-144.36
0
LINE
8
BLACK
6
CONTINUOUS
10
135.88
20
-143.312
11
135.975
21
-143.122
0
LINE
8
BLACK
6
CONTINUOUS
10
135.975
20
-143.122
11
136.165
21
-143.026
0
LINE
8
BLACK
6
CONTINUOUS
10
136.165
20
-143.026
11
136.451
21
-143.026
0
LINE
8
BLACK
6
CONTINUOUS
10
136.451
20
-143.026
11
136.642
21
-143.122
0
LINE
8
BLACK
6
CONTINUOUS
10
136.642
20
-143.122
11
136.737
21
-143.312
0
LINE
8
BLACK
6
CONTINUOUS
10
136.737
20
-143.312
11
136.737
21
-144.36
0
LINE
8
BLACK
6
CONTINUOUS
10
137.689
20
-144.36
11
137.689
21
-143.026
0
LINE
8
BLACK
6
CONTINUOUS
10
137.689
20
-143.217
11
137.785
21
-143.122
0
LINE
8
BLACK
6
CONTINUOUS
10
137.785
20
-143.122
11
137.975
21
-143.026
0
LINE
8
BLACK
6
CONTINUOUS
10
137.975
20
-143.026
11
138.261
21
-143.026
0
LINE
8
BLACK
6
CONTINUOUS
10
138.261
20
-143.026
11
138.451
21
-143.122
0
LINE
8
BLACK
6
CONTINUOUS
10
138.451
20
-143.122
11
138.546
21
-143.312
0
LINE
8
BLACK
6
CONTINUOUS
10
138.546
20
-143.312
11
138.546
21
-144.36
0
LINE
8
BLACK
6
CONTINUOUS
10
138.546
20
-143.312
11
138.642
21
-143.122
0
LINE
8
BLACK
6
CONTINUOUS
10
138.642
20
-143.122
11
138.832
21
-143.026
0
LINE
8
BLACK
6
CONTINUOUS
10
138.832
20
-143.026
11
139.118
21
-143.026
0
LINE
8
BLACK
6
CONTINUOUS
10
139.118
20
-143.026
11
139.308
21
-143.122
0
LINE
8
BLACK
6
CONTINUOUS
10
139.308
20
-143.122
11
139.404
21
-143.312
0
LINE
8
BLACK
6
CONTINUOUS
10
139.404
20
-143.312
11
139.404
21
-144.36
0
LINE
8
BLACK
6
CONTINUOUS
10
142.985
20
-142.265
11
141.27
21
-144.836
0
LINE
8
BLACK
6
CONTINUOUS
10
145.232
20
-142.36
11
145.423
21
-142.36
0
LINE
8
BLACK
6
CONTINUOUS
10
145.423
20
-142.36
11
145.613
21
-142.455
0
LINE
8
BLACK
6
CONTINUOUS
10
145.613
20
-142.455
11
145.708
21
-142.55
0
LINE
8
BLACK
6
CONTINUOUS
10
145.708
20
-142.55
11
145.804
21
-142.741
0
LINE
8
BLACK
6
CONTINUOUS
10
145.804
20
-142.741
11
145.899
21
-143.122
0
LINE
8
BLACK
6
CONTINUOUS
10
145.899
20
-143.122
11
145.899
21
-143.598
0
LINE
8
BLACK
6
CONTINUOUS
10
145.899
20
-143.598
11
145.804
21
-143.979
0
LINE
8
BLACK
6
CONTINUOUS
10
145.804
20
-143.979
11
145.708
21
-144.169
0
LINE
8
BLACK
6
CONTINUOUS
10
145.708
20
-144.169
11
145.613
21
-144.265
0
LINE
8
BLACK
6
CONTINUOUS
10
145.613
20
-144.265
11
145.423
21
-144.36
0
LINE
8
BLACK
6
CONTINUOUS
10
145.423
20
-144.36
11
145.232
21
-144.36
0
LINE
8
BLACK
6
CONTINUOUS
10
145.232
20
-144.36
11
145.042
21
-144.265
0
LINE
8
BLACK
6
CONTINUOUS
10
145.042
20
-144.265
11
144.946
21
-144.169
0
LINE
8
BLACK
6
CONTINUOUS
10
144.946
20
-144.169
11
144.851
21
-143.979
0
LINE
8
BLACK
6
CONTINUOUS
10
144.851
20
-143.979
11
144.756
21
-143.598
0
LINE
8
BLACK
6
CONTINUOUS
10
144.756
20
-143.598
11
144.756
21
-143.122
0
LINE
8
BLACK
6
CONTINUOUS
10
144.756
20
-143.122
11
144.851
21
-142.741
0
LINE
8
BLACK
6
CONTINUOUS
10
144.851
20
-142.741
11
144.946
21
-142.55
0
LINE
8
BLACK
6
CONTINUOUS
10
144.946
20
-142.55
11
145.042
21
-142.455
0
LINE
8
BLACK
6
CONTINUOUS
10
145.042
20
-142.455
11
145.232
21
-142.36
0
LINE
8
BLACK
6
CONTINUOUS
10
146.756
20
-144.169
11
146.851
21
-144.265
0
LINE
8
BLACK
6
CONTINUOUS
10
146.851
20
-144.265
11
146.756
21
-144.36
0
LINE
8
BLACK
6
CONTINUOUS
10
146.756
20
-144.36
11
146.661
21
-144.265
0
LINE
8
BLACK
6
CONTINUOUS
10
146.661
20
-144.265
11
146.756
21
-144.169
0
LINE
8
BLACK
6
CONTINUOUS
10
146.756
20
-144.169
11
146.756
21
-144.36
0
LINE
8
BLACK
6
CONTINUOUS
10
148.756
20
-144.36
11
147.613
21
-144.36
0
LINE
8
BLACK
6
CONTINUOUS
10
148.185
20
-144.36
11
148.185
21
-142.36
0
LINE
8
BLACK
6
CONTINUOUS
10
148.185
20
-142.36
11
147.994
21
-142.645
0
LINE
8
BLACK
6
CONTINUOUS
10
147.994
20
-142.645
11
147.804
21
-142.836
0
LINE
8
BLACK
6
CONTINUOUS
10
147.804
20
-142.836
11
147.613
21
-142.931
0
LINE
8
BLACK
6
CONTINUOUS
10
149.518
20
-142.55
11
149.613
21
-142.455
0
LINE
8
BLACK
6
CONTINUOUS
10
149.613
20
-142.455
11
149.804
21
-142.36
0
LINE
8
BLACK
6
CONTINUOUS
10
149.804
20
-142.36
11
150.28
21
-142.36
0
LINE
8
BLACK
6
CONTINUOUS
10
150.28
20
-142.36
11
150.47
21
-142.455
0
LINE
8
BLACK
6
CONTINUOUS
10
150.47
20
-142.455
11
150.565
21
-142.55
0
LINE
8
BLACK
6
CONTINUOUS
10
150.565
20
-142.55
11
150.661
21
-142.741
0
LINE
8
BLACK
6
CONTINUOUS
10
150.661
20
-142.741
11
150.661
21
-142.931
0
LINE
8
BLACK
6
CONTINUOUS
10
150.661
20
-142.931
11
150.565
21
-143.217
0
LINE
8
BLACK
6
CONTINUOUS
10
150.565
20
-143.217
11
149.423
21
-144.36
0
LINE
8
BLACK
6
CONTINUOUS
10
149.423
20
-144.36
11
150.661
21
-144.36
0
LINE
8
BLACK
6
CONTINUOUS
10
152.375
20
-142.36
11
151.994
21
-142.36
0
LINE
8
BLACK
6
CONTINUOUS
10
151.994
20
-142.36
11
151.804
21
-142.455
0
LINE
8
BLACK
6
CONTINUOUS
10
151.804
20
-142.455
11
151.708
21
-142.55
0
LINE
8
BLACK
6
CONTINUOUS
10
151.708
20
-142.55
11
151.518
21
-142.836
0
LINE
8
BLACK
6
CONTINUOUS
10
151.518
20
-142.836
11
151.423
21
-143.217
0
LINE
8
BLACK
6
CONTINUOUS
10
151.423
20
-143.217
11
151.423
21
-143.979
0
LINE
8
BLACK
6
CONTINUOUS
10
151.423
20
-143.979
11
151.518
21
-144.169
0
LINE
8
BLACK
6
CONTINUOUS
10
151.518
20
-144.169
11
151.613
21
-144.265
0
LINE
8
BLACK
6
CONTINUOUS
10
151.613
20
-144.265
11
151.804
21
-144.36
0
LINE
8
BLACK
6
CONTINUOUS
10
151.804
20
-144.36
11
152.185
21
-144.36
0
LINE
8
BLACK
6
CONTINUOUS
10
152.185
20
-144.36
11
152.375
21
-144.265
0
LINE
8
BLACK
6
CONTINUOUS
10
152.375
20
-144.265
11
152.47
21
-144.169
0
LINE
8
BLACK
6
CONTINUOUS
10
152.47
20
-144.169
11
152.565
21
-143.979
0
LINE
8
BLACK
6
CONTINUOUS
10
152.565
20
-143.979
11
152.565
21
-143.503
0
LINE
8
BLACK
6
CONTINUOUS
10
152.565
20
-143.503
11
152.47
21
-143.312
0
LINE
8
BLACK
6
CONTINUOUS
10
152.47
20
-143.312
11
152.375
21
-143.217
0
LINE
8
BLACK
6
CONTINUOUS
10
152.375
20
-143.217
11
152.185
21
-143.122
0
LINE
8
BLACK
6
CONTINUOUS
10
152.185
20
-143.122
11
151.804
21
-143.122
0
LINE
8
BLACK
6
CONTINUOUS
10
151.804
20
-143.122
11
151.613
21
-143.217
0
LINE
8
BLACK
6
CONTINUOUS
10
151.613
20
-143.217
11
151.518
21
-143.312
0
LINE
8
BLACK
6
CONTINUOUS
10
151.518
20
-143.312
11
151.423
21
-143.503
0
LINE
8
BLACK
6
CONTINUOUS
10
153.804
20
-142.36
11
153.994
21
-142.36
0
LINE
8
BLACK
6
CONTINUOUS
10
153.994
20
-142.36
11
154.185
21
-142.455
0
LINE
8
BLACK
6
CONTINUOUS
10
154.185
20
-142.455
11
154.28
21
-142.55
0
LINE
8
BLACK
6
CONTINUOUS
10
154.28
20
-142.55
11
154.375
21
-142.741
0
LINE
8
BLACK
6
CONTINUOUS
10
154.375
20
-142.741
11
154.47
21
-143.122
0
LINE
8
BLACK
6
CONTINUOUS
10
154.47
20
-143.122
11
154.47
21
-143.598
0
LINE
8
BLACK
6
CONTINUOUS
10
154.47
20
-143.598
11
154.375
21
-143.979
0
LINE
8
BLACK
6
CONTINUOUS
10
154.375
20
-143.979
11
154.28
21
-144.169
0
LINE
8
BLACK
6
CONTINUOUS
10
154.28
20
-144.169
11
154.185
21
-144.265
0
LINE
8
BLACK
6
CONTINUOUS
10
154.185
20
-144.265
11
153.994
21
-144.36
0
LINE
8
BLACK
6
CONTINUOUS
10
153.994
20
-144.36
11
153.804
21
-144.36
0
LINE
8
BLACK
6
CONTINUOUS
10
153.804
20
-144.36
11
153.613
21
-144.265
0
LINE
8
BLACK
6
CONTINUOUS
10
153.613
20
-144.265
11
153.518
21
-144.169
0
LINE
8
BLACK
6
CONTINUOUS
10
153.518
20
-144.169
11
153.423
21
-143.979
0
LINE
8
BLACK
6
CONTINUOUS
10
153.423
20
-143.979
11
153.327
21
-143.598
0
LINE
8
BLACK
6
CONTINUOUS
10
153.327
20
-143.598
11
153.327
21
-143.122
0
LINE
8
BLACK
6
CONTINUOUS
10
153.327
20
-143.122
11
153.423
21
-142.741
0
LINE
8
BLACK
6
CONTINUOUS
10
153.423
20
-142.741
11
153.518
21
-142.55
0
LINE
8
BLACK
6
CONTINUOUS
10
153.518
20
-142.55
11
153.613
21
-142.455
0
LINE
8
BLACK
6
CONTINUOUS
10
153.613
20
-142.455
11
153.804
21
-142.36
0
LINE
8
BLACK
6
CONTINUOUS
10
155.232
20
-142.36
11
155.232
21
-142.741
0
LINE
8
BLACK
6
CONTINUOUS
10
155.994
20
-142.36
11
155.994
21
-142.741
0
LINE
8
BLACK
6
CONTINUOUS
10
158.623
20
-145.122
11
158.527
21
-145.026
0
LINE
8
BLACK
6
CONTINUOUS
10
158.527
20
-145.026
11
158.337
21
-144.741
0
LINE
8
BLACK
6
CONTINUOUS
10
158.337
20
-144.741
11
158.242
21
-144.55
0
LINE
8
BLACK
6
CONTINUOUS
10
158.242
20
-144.55
11
158.146
21
-144.265
0
LINE
8
BLACK
6
CONTINUOUS
10
158.146
20
-144.265
11
158.051
21
-143.788
0
LINE
8
BLACK
6
CONTINUOUS
10
158.051
20
-143.788
11
158.051
21
-143.407
0
LINE
8
BLACK
6
CONTINUOUS
10
158.051
20
-143.407
11
158.146
21
-142.931
0
LINE
8
BLACK
6
CONTINUOUS
10
158.146
20
-142.931
11
158.242
21
-142.645
0
LINE
8
BLACK
6
CONTINUOUS
10
158.242
20
-142.645
11
158.337
21
-142.455
0
LINE
8
BLACK
6
CONTINUOUS
10
158.337
20
-142.455
11
158.527
21
-142.169
0
LINE
8
BLACK
6
CONTINUOUS
10
158.527
20
-142.169
11
158.623
21
-142.074
0
LINE
8
BLACK
6
CONTINUOUS
10
160.242
20
-143.026
11
160.242
21
-144.36
0
LINE
8
BLACK
6
CONTINUOUS
10
159.765
20
-142.265
11
159.289
21
-143.693
0
LINE
8
BLACK
6
CONTINUOUS
10
159.289
20
-143.693
11
160.527
21
-143.693
0
LINE
8
BLACK
6
CONTINUOUS
10
162.489
20
-144.36
11
162.489
21
-142.36
0
LINE
8
BLACK
6
CONTINUOUS
10
163.346
20
-144.36
11
163.346
21
-143.312
0
LINE
8
BLACK
6
CONTINUOUS
10
163.346
20
-143.312
11
163.251
21
-143.122
0
LINE
8
BLACK
6
CONTINUOUS
10
163.251
20
-143.122
11
163.061
21
-143.026
0
LINE
8
BLACK
6
CONTINUOUS
10
163.061
20
-143.026
11
162.775
21
-143.026
0
LINE
8
BLACK
6
CONTINUOUS
10
162.775
20
-143.026
11
162.585
21
-143.122
0
LINE
8
BLACK
6
CONTINUOUS
10
162.585
20
-143.122
11
162.489
21
-143.217
0
LINE
8
BLACK
6
CONTINUOUS
10
164.585
20
-144.36
11
164.394
21
-144.265
0
LINE
8
BLACK
6
CONTINUOUS
10
164.394
20
-144.265
11
164.299
21
-144.169
0
LINE
8
BLACK
6
CONTINUOUS
10
164.299
20
-144.169
11
164.204
21
-143.979
0
LINE
8
BLACK
6
CONTINUOUS
10
164.204
20
-143.979
11
164.204
21
-143.407
0
LINE
8
BLACK
6
CONTINUOUS
10
164.204
20
-143.407
11
164.299
21
-143.217
0
LINE
8
BLACK
6
CONTINUOUS
10
164.299
20
-143.217
11
164.394
21
-143.122
0
LINE
8
BLACK
6
CONTINUOUS
10
164.394
20
-143.122
11
164.585
21
-143.026
0
LINE
8
BLACK
6
CONTINUOUS
10
164.585
20
-143.026
11
164.87
21
-143.026
0
LINE
8
BLACK
6
CONTINUOUS
10
164.87
20
-143.026
11
165.061
21
-143.122
0
LINE
8
BLACK
6
CONTINUOUS
10
165.061
20
-143.122
11
165.156
21
-143.217
0
LINE
8
BLACK
6
CONTINUOUS
10
165.156
20
-143.217
11
165.251
21
-143.407
0
LINE
8
BLACK
6
CONTINUOUS
10
165.251
20
-143.407
11
165.251
21
-143.979
0
LINE
8
BLACK
6
CONTINUOUS
10
165.251
20
-143.979
11
165.156
21
-144.169
0
LINE
8
BLACK
6
CONTINUOUS
10
165.156
20
-144.169
11
165.061
21
-144.265
0
LINE
8
BLACK
6
CONTINUOUS
10
165.061
20
-144.265
11
164.87
21
-144.36
0
LINE
8
BLACK
6
CONTINUOUS
10
164.87
20
-144.36
11
164.585
21
-144.36
0
LINE
8
BLACK
6
CONTINUOUS
10
166.394
20
-144.36
11
166.204
21
-144.265
0
LINE
8
BLACK
6
CONTINUOUS
10
166.204
20
-144.265
11
166.108
21
-144.074
0
LINE
8
BLACK
6
CONTINUOUS
10
166.108
20
-144.074
11
166.108
21
-142.36
0
LINE
8
BLACK
6
CONTINUOUS
10
167.918
20
-144.265
11
167.727
21
-144.36
0
LINE
8
BLACK
6
CONTINUOUS
10
167.727
20
-144.36
11
167.346
21
-144.36
0
LINE
8
BLACK
6
CONTINUOUS
10
167.346
20
-144.36
11
167.156
21
-144.265
0
LINE
8
BLACK
6
CONTINUOUS
10
167.156
20
-144.265
11
167.061
21
-144.074
0
LINE
8
BLACK
6
CONTINUOUS
10
167.061
20
-144.074
11
167.061
21
-143.312
0
LINE
8
BLACK
6
CONTINUOUS
10
167.061
20
-143.312
11
167.156
21
-143.122
0
LINE
8
BLACK
6
CONTINUOUS
10
167.156
20
-143.122
11
167.346
21
-143.026
0
LINE
8
BLACK
6
CONTINUOUS
10
167.346
20
-143.026
11
167.727
21
-143.026
0
LINE
8
BLACK
6
CONTINUOUS
10
167.727
20
-143.026
11
167.918
21
-143.122
0
LINE
8
BLACK
6
CONTINUOUS
10
167.918
20
-143.122
11
168.013
21
-143.312
0
LINE
8
BLACK
6
CONTINUOUS
10
168.013
20
-143.312
11
168.013
21
-143.503
0
LINE
8
BLACK
6
CONTINUOUS
10
168.013
20
-143.503
11
167.061
21
-143.693
0
LINE
8
BLACK
6
CONTINUOUS
10
168.775
20
-144.265
11
168.965
21
-144.36
0
LINE
8
BLACK
6
CONTINUOUS
10
168.965
20
-144.36
11
169.346
21
-144.36
0
LINE
8
BLACK
6
CONTINUOUS
10
169.346
20
-144.36
11
169.537
21
-144.265
0
LINE
8
BLACK
6
CONTINUOUS
10
169.537
20
-144.265
11
169.632
21
-144.074
0
LINE
8
BLACK
6
CONTINUOUS
10
169.632
20
-144.074
11
169.632
21
-143.979
0
LINE
8
BLACK
6
CONTINUOUS
10
169.632
20
-143.979
11
169.537
21
-143.788
0
LINE
8
BLACK
6
CONTINUOUS
10
169.537
20
-143.788
11
169.346
21
-143.693
0
LINE
8
BLACK
6
CONTINUOUS
10
169.346
20
-143.693
11
169.061
21
-143.693
0
LINE
8
BLACK
6
CONTINUOUS
10
169.061
20
-143.693
11
168.87
21
-143.598
0
LINE
8
BLACK
6
CONTINUOUS
10
168.87
20
-143.598
11
168.775
21
-143.407
0
LINE
8
BLACK
6
CONTINUOUS
10
168.775
20
-143.407
11
168.775
21
-143.312
0
LINE
8
BLACK
6
CONTINUOUS
10
168.775
20
-143.312
11
168.87
21
-143.122
0
LINE
8
BLACK
6
CONTINUOUS
10
168.87
20
-143.122
11
169.061
21
-143.026
0
LINE
8
BLACK
6
CONTINUOUS
10
169.061
20
-143.026
11
169.346
21
-143.026
0
LINE
8
BLACK
6
CONTINUOUS
10
169.346
20
-143.026
11
169.537
21
-143.122
0
LINE
8
BLACK
6
CONTINUOUS
10
170.299
20
-145.122
11
170.394
21
-145.026
0
LINE
8
BLACK
6
CONTINUOUS
10
170.394
20
-145.026
11
170.585
21
-144.741
0
LINE
8
BLACK
6
CONTINUOUS
10
170.585
20
-144.741
11
170.68
21
-144.55
0
LINE
8
BLACK
6
CONTINUOUS
10
170.68
20
-144.55
11
170.775
21
-144.265
0
LINE
8
BLACK
6
CONTINUOUS
10
170.775
20
-144.265
11
170.87
21
-143.788
0
LINE
8
BLACK
6
CONTINUOUS
10
170.87
20
-143.788
11
170.87
21
-143.407
0
LINE
8
BLACK
6
CONTINUOUS
10
170.87
20
-143.407
11
170.775
21
-142.931
0
LINE
8
BLACK
6
CONTINUOUS
10
170.775
20
-142.931
11
170.68
21
-142.645
0
LINE
8
BLACK
6
CONTINUOUS
10
170.68
20
-142.645
11
170.585
21
-142.455
0
LINE
8
BLACK
6
CONTINUOUS
10
170.585
20
-142.455
11
170.394
21
-142.169
0
LINE
8
BLACK
6
CONTINUOUS
10
170.394
20
-142.169
11
170.299
21
-142.074
  0
ENDSEC
  0
EOF
