M48
; DRILL file {KiCad (7.0.0-0)} date Saturday, 11 March 2023 at 20:56:33
; FORMAT={-:-/ absolute / metric / decimal}
; #@! TF.CreationDate,2023-03-11T20:56:33+00:00
; #@! TF.GenerationSoftware,Kicad,Pcbnew,(7.0.0-0)
; #@! TF.FileFunction,Plated,1,2,PTH
FMAT,2
METRIC
; #@! TA.AperFunction,Plated,PTH,ViaDrill
T1C0.400
; #@! TA.AperFunction,Plated,PTH,ComponentDrill
T2C0.500
; #@! TA.AperFunction,Plated,PTH,ComponentDrill
T3C0.600
; #@! TA.AperFunction,Plated,PTH,ComponentDrill
T4C0.800
; #@! TA.AperFunction,Plated,PTH,ComponentDrill
T5C1.000
; #@! TA.AperFunction,Plated,PTH,ComponentDrill
T6C3.200
%
G90
G05
T1
X143.735Y-96.381
X157.214Y-98.899
X167.679Y-96.816
X181.849Y-89.39
X182.257Y-99.818
T2
X125.35Y-75.803
X125.35Y-97.85
X126.053Y-74.106
X126.053Y-77.5
X126.053Y-96.153
X126.053Y-99.547
X127.75Y-73.403
X127.75Y-78.203
X127.75Y-95.45
X127.75Y-100.25
X129.447Y-74.106
X129.447Y-77.5
X129.447Y-96.153
X129.447Y-99.547
X130.15Y-75.803
X130.15Y-97.85
X194.85Y-75.85
X194.85Y-97.85
X195.553Y-74.153
X195.553Y-77.547
X195.553Y-96.153
X195.553Y-99.547
X197.25Y-73.45
X197.25Y-78.25
X197.25Y-95.45
X197.25Y-100.25
X198.947Y-74.153
X198.947Y-77.547
X198.947Y-96.153
X198.947Y-99.547
X199.65Y-75.85
X199.65Y-97.85
T3
X128.5Y-86.5
X130.5Y-86.5
T4
X128.25Y-91.75
X130.75Y-91.75
T5
X135.5Y-103.5
X135.5Y-108.58
X135.72Y-86.42
X135.72Y-91.5
X138.04Y-103.5
X138.04Y-108.58
X138.26Y-86.42
X138.26Y-91.5
X140.58Y-103.5
X140.58Y-108.58
X140.8Y-86.42
X140.8Y-91.5
X143.12Y-103.5
X143.12Y-108.58
X143.34Y-86.42
X143.34Y-91.5
X145.66Y-103.5
X145.66Y-108.58
X145.88Y-86.42
X145.88Y-91.5
X148.2Y-103.5
X148.2Y-108.58
X148.42Y-86.42
X148.42Y-91.5
X150.74Y-103.5
X150.74Y-108.58
X150.96Y-86.42
X150.96Y-91.5
X153.28Y-103.5
X153.28Y-108.58
X153.5Y-86.42
X153.5Y-91.5
X155.82Y-103.5
X155.82Y-108.58
X156.04Y-86.42
X156.04Y-91.5
X158.36Y-103.5
X158.36Y-108.58
X158.58Y-86.42
X158.58Y-91.5
X160.9Y-103.5
X160.9Y-108.58
X161.12Y-86.42
X161.12Y-91.5
X163.44Y-103.5
X163.44Y-108.58
X163.66Y-86.42
X163.66Y-91.5
X165.98Y-103.5
X165.98Y-108.58
X166.2Y-86.42
X166.2Y-91.5
X168.52Y-103.5
X168.52Y-108.58
X168.74Y-86.42
X168.74Y-91.5
X171.06Y-103.5
X171.06Y-108.58
X171.28Y-86.42
X171.28Y-91.5
X173.6Y-103.5
X173.6Y-108.58
X173.82Y-86.42
X173.82Y-91.5
X176.14Y-103.5
X176.14Y-108.58
X176.36Y-86.42
X176.36Y-91.5
X178.68Y-103.5
X178.68Y-108.58
X178.9Y-86.42
X178.9Y-91.5
X181.22Y-103.5
X181.22Y-108.58
X181.44Y-86.42
X181.44Y-91.5
X183.76Y-103.5
X183.76Y-108.58
X183.98Y-86.42
X183.98Y-91.5
X186.3Y-103.5
X186.3Y-108.58
X186.52Y-86.42
X186.52Y-91.5
X188.84Y-103.5
X188.84Y-108.58
X189.06Y-86.42
X189.06Y-91.5
X195.725Y-87.15
X195.725Y-89.65
T6
X127.75Y-75.803
X127.75Y-97.85
X197.25Y-75.85
X197.25Y-97.85
T0
M30
