G04 #@! TF.GenerationSoftware,KiCad,Pcbnew,(7.0.0-0)*
G04 #@! TF.CreationDate,2023-03-11T20:56:30+00:00*
G04 #@! TF.ProjectId,EXT80A,45585438-3041-42e6-9b69-6361645f7063,rev?*
G04 #@! TF.SameCoordinates,Original*
G04 #@! TF.FileFunction,Soldermask,Top*
G04 #@! TF.FilePolarity,Negative*
%FSLAX46Y46*%
G04 Gerber Fmt 4.6, Leading zero omitted, Abs format (unit mm)*
G04 Created by KiCad (PCBNEW (7.0.0-0)) date 2023-03-11 20:56:30*
%MOMM*%
%LPD*%
G01*
G04 APERTURE LIST*
G04 Aperture macros list*
%AMRoundRect*
0 Rectangle with rounded corners*
0 $1 Rounding radius*
0 $2 $3 $4 $5 $6 $7 $8 $9 X,Y pos of 4 corners*
0 Add a 4 corners polygon primitive as box body*
4,1,4,$2,$3,$4,$5,$6,$7,$8,$9,$2,$3,0*
0 Add four circle primitives for the rounded corners*
1,1,$1+$1,$2,$3*
1,1,$1+$1,$4,$5*
1,1,$1+$1,$6,$7*
1,1,$1+$1,$8,$9*
0 Add four rect primitives between the rounded corners*
20,1,$1+$1,$2,$3,$4,$5,0*
20,1,$1+$1,$4,$5,$6,$7,0*
20,1,$1+$1,$6,$7,$8,$9,0*
20,1,$1+$1,$8,$9,$2,$3,0*%
G04 Aperture macros list end*
%ADD10R,1.700000X1.700000*%
%ADD11O,1.700000X1.700000*%
%ADD12R,1.200000X1.200000*%
%ADD13C,1.200000*%
%ADD14RoundRect,0.250000X0.750000X-0.600000X0.750000X0.600000X-0.750000X0.600000X-0.750000X-0.600000X0*%
%ADD15O,2.000000X1.700000*%
%ADD16C,0.800000*%
%ADD17C,6.400000*%
%ADD18RoundRect,0.250001X-0.462499X-1.074999X0.462499X-1.074999X0.462499X1.074999X-0.462499X1.074999X0*%
%ADD19C,1.600000*%
G04 APERTURE END LIST*
D10*
X135499999Y-103499999D03*
D11*
X135499999Y-108579999D03*
X138039999Y-103499999D03*
X138039999Y-108579999D03*
X140579999Y-103499999D03*
X140579999Y-108579999D03*
X143119999Y-103499999D03*
X143119999Y-108579999D03*
X145659999Y-103499999D03*
X145659999Y-108579999D03*
X148199999Y-103499999D03*
X148199999Y-108579999D03*
X150739999Y-103499999D03*
X150739999Y-108579999D03*
X153279999Y-103499999D03*
X153279999Y-108579999D03*
X155819999Y-103499999D03*
X155819999Y-108579999D03*
X158359999Y-103499999D03*
X158359999Y-108579999D03*
X160899999Y-103499999D03*
X160899999Y-108579999D03*
X163439999Y-103499999D03*
X163439999Y-108579999D03*
X165979999Y-103499999D03*
X165979999Y-108579999D03*
X168519999Y-103499999D03*
X168519999Y-108579999D03*
X171059999Y-103499999D03*
X171059999Y-108579999D03*
X173599999Y-103499999D03*
X173599999Y-108579999D03*
X176139999Y-103499999D03*
X176139999Y-108579999D03*
X178679999Y-103499999D03*
X178679999Y-108579999D03*
X181219999Y-103499999D03*
X181219999Y-108579999D03*
X183759999Y-103499999D03*
X183759999Y-108579999D03*
X186299999Y-103499999D03*
X186299999Y-108579999D03*
X188839999Y-103499999D03*
X188839999Y-108579999D03*
D10*
X189059999Y-91499999D03*
D11*
X189059999Y-86419999D03*
X186519999Y-91499999D03*
X186519999Y-86419999D03*
X183979999Y-91499999D03*
X183979999Y-86419999D03*
X181439999Y-91499999D03*
X181439999Y-86419999D03*
X178899999Y-91499999D03*
X178899999Y-86419999D03*
X176359999Y-91499999D03*
X176359999Y-86419999D03*
X173819999Y-91499999D03*
X173819999Y-86419999D03*
X171279999Y-91499999D03*
X171279999Y-86419999D03*
X168739999Y-91499999D03*
X168739999Y-86419999D03*
X166199999Y-91499999D03*
X166199999Y-86419999D03*
X163659999Y-91499999D03*
X163659999Y-86419999D03*
X161119999Y-91499999D03*
X161119999Y-86419999D03*
X158579999Y-91499999D03*
X158579999Y-86419999D03*
X156039999Y-91499999D03*
X156039999Y-86419999D03*
X153499999Y-91499999D03*
X153499999Y-86419999D03*
X150959999Y-91499999D03*
X150959999Y-86419999D03*
X148419999Y-91499999D03*
X148419999Y-86419999D03*
X145879999Y-91499999D03*
X145879999Y-86419999D03*
X143339999Y-91499999D03*
X143339999Y-86419999D03*
X140799999Y-91499999D03*
X140799999Y-86419999D03*
X138259999Y-91499999D03*
X138259999Y-86419999D03*
X135719999Y-91499999D03*
X135719999Y-86419999D03*
D12*
X128499999Y-86499999D03*
D13*
X130500000Y-86500000D03*
X197725000Y-91250000D03*
D14*
X195725000Y-89650000D03*
D15*
X195724999Y-87149999D03*
D16*
X194850000Y-97850000D03*
X195552944Y-96152944D03*
X195552944Y-99547056D03*
X197250000Y-95450000D03*
D17*
X197250000Y-97850000D03*
D16*
X197250000Y-100250000D03*
X198947056Y-96152944D03*
X198947056Y-99547056D03*
X199650000Y-97850000D03*
X125350000Y-75802900D03*
X126052944Y-74105844D03*
X126052944Y-77499956D03*
X127750000Y-73402900D03*
D17*
X127750000Y-75802900D03*
D16*
X127750000Y-78202900D03*
X129447056Y-74105844D03*
X129447056Y-77499956D03*
X130150000Y-75802900D03*
X194850000Y-75850000D03*
X195552944Y-74152944D03*
X195552944Y-77547056D03*
X197250000Y-73450000D03*
D17*
X197250000Y-75850000D03*
D16*
X197250000Y-78250000D03*
X198947056Y-74152944D03*
X198947056Y-77547056D03*
X199650000Y-75850000D03*
D18*
X194762500Y-81750000D03*
X197737500Y-81750000D03*
D16*
X125350000Y-97850000D03*
X126052944Y-96152944D03*
X126052944Y-99547056D03*
X127750000Y-95450000D03*
D17*
X127750000Y-97850000D03*
D16*
X127750000Y-100250000D03*
X129447056Y-96152944D03*
X129447056Y-99547056D03*
X130150000Y-97850000D03*
D19*
X128250000Y-91750000D03*
X130750000Y-91750000D03*
M02*
